<svg width="143" height="105" viewBox="0 0 143 105" fill="none" xmlns="http://www.w3.org/2000/svg">
<path d="M142 103.954H1" stroke="#263238" stroke-width="0.5" stroke-linecap="round" stroke-linejoin="round"/>
<path d="M93.6957 43.4808C93.6957 43.4808 92.4354 52.1187 93.6957 53.7425C94.956 55.3662 97.8353 56.6218 101.975 57.8821C106.114 59.1423 108.814 56.4377 112.77 60.9407C116.725 65.4438 119.973 76.9562 122.13 80.5577C124.287 84.1592 126.812 89.7385 127.374 93.8969C127.936 98.0554 126.114 100.373 122.512 100.916C118.911 101.459 112.6 92.6366 111.897 91.3764C111.193 90.1161 107.734 85.9623 107.734 85.9623C107.734 85.9623 105.751 100.543 105.751 101.26C105.751 101.978 105.93 104.319 105.93 104.319H54.0982C54.0982 104.319 58.0585 82.7243 59.1347 75.1626C60.2109 67.6009 59.6775 62.5645 63.9964 59.8645C68.3154 57.1646 72.2756 57.8868 75.1549 56.9852C78.0342 56.0837 79.8326 55.3662 80.0167 53.7472C80.2008 52.1282 80.1961 44.5665 80.1961 44.5665L93.6957 43.4808Z" fill="#00B386" stroke="#263238" stroke-width="0.5" stroke-linecap="round" stroke-linejoin="round"/>
<path d="M55.9674 95.8181L32.2628 102.058L34.1367 104.343H61.1691" fill="#00B386"/>
<path d="M55.9674 95.8181L32.2628 102.058L34.1367 104.343H61.1691" stroke="#263238" stroke-width="0.5" stroke-linecap="round" stroke-linejoin="round"/>
<path d="M29.2419 99.6744C28.2028 99.0291 27.0388 98.6114 25.8265 98.4487C24.6142 98.2859 23.3813 98.382 22.2088 98.7304C18.3713 99.8491 16.4502 103.21 16.4502 104.329H32.6026C32.4029 103.359 32.0002 102.444 31.4209 101.641C30.8416 100.839 30.099 100.169 29.2419 99.6744Z" fill="#808080" stroke="#263238" stroke-width="0.5" stroke-linecap="round" stroke-linejoin="round"/>
<path d="M19.3295 95.8369C19.3295 95.8369 17.2479 98.8767 17.2479 99.9954C17.2479 101.114 16.1292 102.233 17.7199 102.714C19.3106 103.196 20.2783 97.5975 20.2783 96.9603C20.2783 96.3231 19.3295 95.8369 19.3295 95.8369Z" fill="white" stroke="#263238" stroke-width="0.5" stroke-linecap="round" stroke-linejoin="round"/>
<path d="M22.2088 95.6812C22.2088 95.6812 19.9667 95.2091 19.3295 95.8369C18.6923 96.4647 17.5689 102.077 17.7294 102.714C17.8898 103.351 19.49 103.512 19.9667 102.875C20.4435 102.237 22.2088 95.6812 22.2088 95.6812Z" fill="white" stroke="#263238" stroke-width="0.5" stroke-linecap="round" stroke-linejoin="round"/>
<path d="M38.5217 100.5L34.7456 100.071C34.5321 99.8151 34.2985 99.5768 34.047 99.3582C33.3344 98.915 32.5823 98.5389 31.8002 98.2348C31.8002 98.2348 25.0834 95.8322 23.6437 94.874C22.2041 93.9158 21.4064 95.8181 20.9296 96.9556C20.4529 98.0932 19.3295 102.072 19.3295 103.191C19.3295 104.31 21.0854 104.786 21.4064 103.507C21.7273 102.228 24.2857 98.0743 24.2857 98.0743L27.6417 99.3535C27.6417 99.3535 27.9627 99.8255 26.523 100.793C25.0834 101.761 23.0065 103.828 23.6437 104.149C24.281 104.47 26.2021 104.31 26.844 103.677C27.4859 103.045 30.842 102.261 30.842 102.261C30.842 102.261 33.8818 104.182 34.519 104.343C34.9315 104.403 35.3484 104.428 35.7651 104.418H39.664C39.8311 103.722 39.8136 102.995 39.6132 102.308C39.4129 101.62 39.0366 100.998 38.5217 100.5Z" fill="white" stroke="#263238" stroke-width="0.5" stroke-linecap="round" stroke-linejoin="round"/>
<path d="M26.9337 100.5C26.9337 100.5 28.3497 98.8862 29.4967 98.6926" stroke="#263238" stroke-width="0.5" stroke-linecap="round" stroke-linejoin="round"/>
<path d="M119.822 87.4303C121.531 87.9852 123.206 88.6392 124.839 89.3892C127.166 90.489 128.026 93.1653 127.671 96.493C127.317 99.8207 124.976 102.374 121.535 101.393C118.094 100.411 116.268 97.6164 116.145 95.3885C116.022 93.1606 115.026 88.1619 119.822 87.4303Z" fill="white" stroke="#263238" stroke-width="0.5" stroke-linecap="round" stroke-linejoin="round"/>
<path d="M83.4341 68.3372C75.3343 68.0493 70.0807 63.0601 66.9418 58.491C70.0996 57.4336 72.9459 57.6885 75.1549 56.9994C78.0342 56.0978 79.8326 55.3804 80.0167 53.7613C80.2008 52.1423 80.1961 44.5806 80.1961 44.5806L93.6957 43.4997C93.6957 43.4997 92.4354 52.1376 93.6957 53.7613C94.956 55.3851 97.8353 56.6406 101.975 57.9009C103.787 58.4485 105.321 58.2408 106.813 58.2125C104.382 60.8652 96.0369 68.7856 83.4341 68.3372Z" fill="white" stroke="#263238" stroke-width="0.5" stroke-linecap="round" stroke-linejoin="round"/>
<path d="M80.1724 49.9899C81.1883 50.9719 82.3126 51.8349 83.5238 52.5624C85.6856 53.7802 89.3862 52.6993 90.4671 51.3493C90.9958 50.6885 92.0862 49.3858 93.252 47.8187C93.4172 45.5388 93.7241 43.4997 93.7241 43.4997L80.2244 44.5806C80.2244 44.5806 80.196 47.4174 80.1724 49.9899Z" fill="#263238" stroke="#263238" stroke-width="0.5" stroke-linecap="round" stroke-linejoin="round"/>
<path d="M121.398 71.6272C121.398 71.6272 114.049 81.3035 113.313 85.3487C112.576 89.3939 110.249 99.1788 110.249 99.1788C110.249 99.1788 103.146 102.242 98.6142 102.365C94.0828 102.488 86.2426 101.751 86.2426 101.751C86.2426 101.751 91.2648 88.7944 93.2237 82.2853C95.1826 75.7762 95.6735 72.1181 95.6735 72.1181C95.6735 72.1181 106.823 73.5861 113.19 72.1181L122.744 69.9138L121.398 71.6272Z" fill="white" stroke="#263238" stroke-width="0.5" stroke-linecap="round" stroke-linejoin="round"/>
<path d="M121.049 91.9145C121.049 91.9145 120.152 80.5861 119.071 80.2179C117.99 79.8497 111.519 78.9576 109.711 79.3163C107.903 79.6751 107.351 80.3973 108.814 80.756C110.278 81.1147 112.77 81.4782 113.851 81.6575C115.071 81.9477 116.274 82.3087 117.452 82.7385C117.452 82.7385 113.492 83.2766 111.873 83.2766C110.254 83.2766 106.473 84.8956 106.294 85.6366C106.188 86.0641 106.252 86.5161 106.473 86.8969C106.378 87.2684 106.388 87.6589 106.502 88.025C106.681 88.7472 110.972 88.3885 112.052 88.5679C113.133 88.7472 115.29 89.2665 115.29 89.2665C115.29 89.2665 108.994 88.9077 108.994 90.168C108.994 91.4283 111.689 91.2442 112.77 91.2442C114.079 91.3886 115.324 91.8862 116.371 92.6839C116.91 93.2267 116.73 96.0493 118.349 96.5921C119.043 96.8647 119.77 97.0456 120.511 97.1303" fill="white"/>
<path d="M121.049 91.9145C121.049 91.9145 120.152 80.5861 119.071 80.2179C117.99 79.8497 111.519 78.9576 109.711 79.3163C107.903 79.6751 107.351 80.3973 108.814 80.756C110.278 81.1147 112.77 81.4782 113.851 81.6575C115.071 81.9477 116.274 82.3087 117.452 82.7385C117.452 82.7385 113.492 83.2766 111.873 83.2766C110.254 83.2766 106.473 84.8956 106.294 85.6366C106.188 86.0641 106.252 86.5161 106.473 86.8969C106.378 87.2684 106.388 87.6589 106.502 88.025C106.681 88.7472 110.972 88.3885 112.052 88.5679C113.133 88.7472 115.29 89.2665 115.29 89.2665C115.29 89.2665 108.994 88.9077 108.994 90.168C108.994 91.4283 111.689 91.2442 112.77 91.2442C114.079 91.3886 115.324 91.8862 116.371 92.6839C116.91 93.2267 116.73 96.0493 118.349 96.5921C119.043 96.8647 119.77 97.0456 120.511 97.1303" stroke="#263238" stroke-width="0.5" stroke-linecap="round" stroke-linejoin="round"/>
<path d="M106.473 86.8781C106.473 86.8781 113.671 85.2543 117.273 87.0574" stroke="#263238" stroke-width="0.5" stroke-linecap="round" stroke-linejoin="round"/>
<path d="M67.428 77.1592C67.428 77.1592 64.5487 87.2368 65.0915 90.8477C65.6343 94.4586 67.2486 98.5841 67.428 99.1269C67.6074 99.6697 66.7955 103.937 66.7955 103.937" stroke="#263238" stroke-width="0.5" stroke-linecap="round" stroke-linejoin="round"/>
<path d="M61.4947 21.3621C63.1138 19.7431 61.4947 18.8416 61.6741 17.0432C61.8535 15.2448 63.6519 14.3433 64.5534 13.9845C65.455 13.6258 65.0915 12.7242 65.2756 10.7418C65.4597 8.7593 67.6121 8.04182 69.0517 7.50373C70.4914 6.96563 69.5946 6.08767 70.312 4.62442C71.0295 3.16117 74.9944 3.54351 74.9944 3.54351C74.9944 3.54351 75.8913 1.92448 76.9722 1.92448C78.0531 1.92448 78.7706 3.36414 80.2102 2.10385C81.6499 0.843569 82.9101 0.305466 84.8926 1.02293C85.5329 1.27773 86.1907 1.48597 86.8609 1.646C87.5329 1.4867 88.1924 1.27845 88.834 1.02293C90.8117 0.305466 92.072 0.843569 93.5116 2.10385C94.9513 3.36414 95.6735 1.92448 96.7544 1.92448C97.8353 1.92448 98.7321 3.54351 98.7321 3.54351C98.7321 3.54351 102.692 3.18477 103.415 4.62442C104.137 6.06407 103.23 6.96091 104.67 7.50373C106.11 8.04655 108.272 8.76402 108.446 10.7418C108.621 12.7195 108.267 13.6211 109.168 13.9845C110.07 14.348 111.868 15.2401 112.048 17.0432C112.227 18.8463 110.632 19.7431 112.227 21.3621C113.823 22.9812 115.465 24.2414 114.025 25.3224C112.586 26.4033 111.146 26.762 111.326 28.381C111.505 30 113.308 31.9825 111.868 32.8793C110.429 33.7762 108.989 33.7809 108.989 35.3999C108.989 37.0189 109.527 39.3601 107.908 39.7189C106.289 40.0776 103.948 39.7189 103.948 40.7998C103.948 41.8807 103.769 43.8585 101.248 43.4997C98.7274 43.141 97.8306 42.4188 97.2878 43.8584C96.7449 45.2981 95.4894 46.2185 94.0497 46.0203C92.6101 45.822 90.6276 45.6616 89.3673 46.7378C88.7461 47.2213 88.0056 47.528 87.2244 47.6251V47.6865C87.1017 47.6865 86.9789 47.6865 86.8562 47.6865C86.7335 47.6865 86.6108 47.6865 86.488 47.6865V47.6251C85.7073 47.5261 84.9673 47.2197 84.3451 46.7378C83.0848 45.6616 81.107 45.8409 79.6674 46.0203C78.2277 46.1997 76.9675 45.2981 76.4294 43.8584C75.8913 42.4188 74.9897 43.141 72.4691 43.4997C69.9486 43.8585 69.7692 41.8807 69.7692 40.7998C69.7692 39.7189 67.4091 40.0823 65.809 39.7189C64.2088 39.3554 64.7281 37.0189 64.7281 35.3999C64.7281 33.7809 63.312 33.7809 61.8488 32.8793C60.3855 31.9778 62.2075 30 62.3869 28.381C62.5662 26.762 61.1266 26.4033 59.6869 25.3224C58.2473 24.2414 59.8757 22.9812 61.4947 21.3621Z" fill="#263238" stroke="#263238" stroke-width="0.5" stroke-linecap="round" stroke-linejoin="round"/>
<path d="M75.9243 31.3075C75.9243 31.3075 73.8757 28.2347 72.6438 29.6696C71.4118 31.1046 71.8272 34.791 73.4651 36.6366C75.103 38.4822 76.9439 37.8638 76.9439 37.8638" fill="white"/>
<path d="M75.9243 31.3075C75.9243 31.3075 73.8757 28.2347 72.6438 29.6696C71.4118 31.1046 71.8272 34.791 73.4651 36.6366C75.103 38.4822 76.9439 37.8638 76.9439 37.8638" stroke="#263238" stroke-width="0.5" stroke-linecap="round" stroke-linejoin="round"/>
<path d="M97.8306 31.1518C97.8306 31.1518 100.224 28.3197 101.276 29.9056C102.329 31.4916 101.489 35.0978 99.6478 36.7263C97.807 38.3547 96.0464 37.5429 96.0464 37.5429" fill="white"/>
<path d="M97.8306 31.1518C97.8306 31.1518 100.224 28.3197 101.276 29.9056C102.329 31.4916 101.489 35.0978 99.6478 36.7263C97.807 38.3547 96.0464 37.5429 96.0464 37.5429" stroke="#263238" stroke-width="0.5" stroke-linecap="round" stroke-linejoin="round"/>
<path d="M96.9762 23.8827C96.6152 24.2105 96.1852 24.4532 95.7179 24.5929C95.2507 24.7326 94.7581 24.7657 94.2763 24.6898C93.3841 24.5603 92.5187 24.2877 91.7133 23.8827C91.7133 23.8827 90.0942 24.9636 88.8812 24.5577C87.6681 24.1517 86.3134 23.7458 86.3134 23.7458C85.426 24.2904 84.3671 24.484 83.3444 24.2886C81.4563 24.0149 80.9135 23.6136 80.9135 23.6136C80.9135 23.6136 79.8326 24.5577 78.7564 24.5577C78.0792 24.5553 77.4028 24.5096 76.7315 24.4208C76.4359 24.5675 76.1159 24.6587 75.7874 24.6898H74.8434C74.8434 24.6898 74.4422 32.7896 75.7874 38.5955C77.1327 44.4013 82.3957 48.7202 84.5622 49.9239C86.7288 51.1275 90.4294 50.0607 91.5103 48.7108C92.5912 47.3608 96.0369 43.3109 97.6465 39.7991C99.2561 36.2873 99.8083 26.0304 99.8083 25.3554C99.8083 24.6804 97.6371 25.5017 96.9762 23.8827Z" fill="white" stroke="#263238" stroke-width="0.5" stroke-linecap="round" stroke-linejoin="round"/>
<path d="M89.3579 28.6076C89.1742 28.6858 89.0185 28.8179 88.9115 28.9865C88.8044 29.155 88.7511 29.3521 88.7584 29.5516C88.8056 31.0809 89.0322 34.7155 90.0942 35.3527C91.4442 36.1599 97.7456 36.7688 99.275 35.7539C100.082 35.2158 101.838 30.4909 101.163 29.1457C100.488 27.8004 94.7578 26.3891 89.3579 28.6076Z" stroke="#263238" stroke-width="0.5" stroke-linecap="round" stroke-linejoin="round"/>
<path d="M85.19 28.6076C85.3737 28.6858 85.5294 28.8179 85.6364 28.9865C85.7434 29.155 85.7968 29.3521 85.7894 29.5516C85.7422 31.0809 85.5157 34.7155 84.4536 35.3527C83.1037 36.1599 76.8022 36.7688 75.2729 35.7539C74.4658 35.2158 72.7099 30.4909 73.3848 29.1457C74.0598 27.8004 79.7901 26.3891 85.19 28.6076Z" stroke="#263238" stroke-width="0.5" stroke-linecap="round" stroke-linejoin="round"/>
<path d="M89.3579 28.6076C89.3579 28.6076 86.8562 28.0648 85.2325 28.8766" stroke="#263238" stroke-width="0.5" stroke-linecap="round" stroke-linejoin="round"/>
<path d="M88.4752 30.2266H85.9075" stroke="#263238" stroke-width="0.5" stroke-linecap="round" stroke-linejoin="round"/>
<path d="M92.5251 33.7384C92.9735 33.7384 93.337 33.0727 93.337 32.2516C93.337 31.4304 92.9735 30.7647 92.5251 30.7647C92.0767 30.7647 91.7132 31.4304 91.7132 32.2516C91.7132 33.0727 92.0767 33.7384 92.5251 33.7384Z" fill="#263238"/>
<path d="M83.3444 33.7384C83.7928 33.7384 84.1563 33.0727 84.1563 32.2516C84.1563 31.4304 83.7928 30.7647 83.3444 30.7647C82.896 30.7647 82.5325 31.4304 82.5325 32.2516C82.5325 33.0727 82.896 33.7384 83.3444 33.7384Z" fill="#263238"/>
<path d="M88.1967 33.1956C88.1967 33.1956 88.0598 35.0837 88.7348 35.7586C89.4098 36.4336 90.217 36.9765 89.2729 37.6467C88.3289 38.317 87.5218 38.8598 86.1718 37.6467" stroke="#263238" stroke-width="0.5" stroke-linecap="round" stroke-linejoin="round"/>
<path d="M90.6323 40.4835C90.6323 40.4835 87.2574 42.1073 84.2884 39.9454" stroke="#263238" stroke-width="0.5" stroke-linecap="round" stroke-linejoin="round"/>
<path d="M95.0882 29.2826C94.5544 28.8834 93.929 28.6246 93.2693 28.5298C92.6096 28.4349 91.9366 28.5071 91.312 28.7397" stroke="#263238" stroke-width="0.5" stroke-linecap="round" stroke-linejoin="round"/>
<path d="M84.0194 29.1457C84.0194 29.1457 80.9135 27.5267 79.1576 30.0897" stroke="#263238" stroke-width="0.5" stroke-linecap="round" stroke-linejoin="round"/>
<path d="M95.2251 54.9272L84.6944 80.8457L78.4826 56.0082" stroke="#263238" stroke-width="0.5" stroke-linecap="round" stroke-linejoin="round"/>
<path d="M83.3444 82.0635C83.3444 82.3576 83.4316 82.645 83.595 82.8895C83.7584 83.134 83.9906 83.3246 84.2623 83.4372C84.534 83.5497 84.8329 83.5791 85.1213 83.5218C85.4097 83.4644 85.6747 83.3228 85.8826 83.1148C86.0906 82.9069 86.2322 82.642 86.2895 82.3535C86.3469 82.0651 86.3175 81.7662 86.2049 81.4945C86.0924 81.2228 85.9018 80.9906 85.6573 80.8272C85.4128 80.6638 85.1253 80.5766 84.8313 80.5766C84.4369 80.5766 84.0587 80.7333 83.7799 81.0121C83.5011 81.291 83.3444 81.6691 83.3444 82.0635Z" fill="#263238" stroke="#263238" stroke-width="0.5" stroke-linecap="round" stroke-linejoin="round"/>
<path d="M51.2803 104.338H91.9587V103.078H51.2803V104.338Z" fill="#808080" stroke="#263238" stroke-width="0.5" stroke-linecap="round" stroke-linejoin="round"/>
<path d="M21.5857 76.6164H62.4388L70.718 104.333H29.8649L21.5857 76.6164Z" fill="#808080" stroke="#263238" stroke-width="0.5" stroke-linecap="round" stroke-linejoin="round"/>
</svg>
