<svg width="498" height="518" viewBox="0 0 498 518" fill="none" xmlns="http://www.w3.org/2000/svg">
<path d="M68.5126 422.543H25.7105V436.165H68.5126V422.543Z" fill="#EBEBEB"/>
<path d="M316.463 204.929H273.661V218.551H316.463V204.929Z" fill="#EBEBEB"/>
<path d="M44.6403 453.342C37.5066 453.464 19.5263 453.768 12.6361 453.841H1.83821H1.2904V453.281V439.659V439.05H1.89907L23.3001 439.136C28.6199 439.136 39.3692 439.294 44.7012 439.367H44.9933V439.659L44.7133 453.281L44.6403 453.342ZM44.6403 453.342L44.3481 439.72L44.6403 440.012C39.2961 440.085 28.5713 440.195 23.2393 440.243L1.83821 440.328L2.44688 439.72V453.342L1.8869 452.782L12.49 452.843C19.2707 452.916 37.6649 453.22 44.689 453.342H44.6403Z" fill="#EBEBEB"/>
<path d="M317.729 366.362C310.607 366.484 292.627 366.788 285.725 366.873H274.939H274.33V366.313V352.691V352.083H274.951L296.34 352.168C301.672 352.168 312.421 352.326 317.741 352.411H318.045V352.691L317.753 366.313L317.729 366.362ZM317.729 366.362L317.449 352.74L317.729 353.032C312.397 353.105 301.672 353.227 296.328 353.263L274.939 353.349L275.548 352.74V366.362L275 365.814H285.603C292.384 365.887 310.778 366.204 317.79 366.313L317.729 366.362Z" fill="#EBEBEB"/>
<path d="M293.808 383.539C286.674 383.661 268.694 383.965 261.804 384.05H251.006H250.458V383.49L250.397 369.868V369.259H251.006L272.407 369.345C277.739 369.345 288.476 369.503 293.808 369.588H294.1V369.868L293.808 383.539ZM293.808 383.539L293.516 369.917L293.808 370.209C288.476 370.282 277.751 370.404 272.407 370.44L251.006 370.525L251.614 369.917V383.539L251.055 382.991H261.658C268.45 383.064 286.845 383.368 293.857 383.49L293.808 383.539Z" fill="#EBEBEB"/>
<path d="M270.082 352.74H227.28V366.362H270.082V352.74Z" fill="#EBEBEB"/>
<path d="M493.259 439.72H450.457V453.342H493.259V439.72Z" fill="#EBEBEB"/>
<path d="M469.387 4.24854H426.584V17.8707H469.387V4.24854Z" fill="#EBEBEB"/>
<path d="M493.259 35.0476C486.125 35.1693 468.145 35.4737 461.255 35.5589H450.457H449.909V34.9989L449.848 21.3767V20.7681H450.457L471.858 20.8533C477.19 20.8533 487.927 21.0115 493.259 21.0968H493.551V21.3767L493.259 34.9989V35.0476ZM493.259 35.0476L492.967 21.3767L493.259 21.6689C487.915 21.7419 477.202 21.8637 471.858 21.9002L450.457 21.9854L451.065 21.3767V34.9989L450.505 34.4511H461.109C467.901 34.5241 486.296 34.8407 493.307 34.9502L493.259 35.0476Z" fill="#EBEBEB"/>
<path d="M68.5126 17.8708C61.3789 17.9926 43.3986 18.2969 36.5084 18.3821H25.7105H25.1627V17.8222V4.19998V3.59131H25.7713L47.1724 3.67652C52.5044 3.67652 63.2414 3.83478 68.5734 3.91999H68.8656V4.19998L68.5734 17.8222L68.5126 17.8708ZM68.5126 17.8708L68.2204 4.24868L68.5126 4.54084C63.1684 4.61388 52.4435 4.73562 47.1115 4.77214L25.7105 4.85736L26.3191 4.24868V17.8708L25.7592 17.323H36.3623C43.143 17.3961 61.5371 17.7126 68.5613 17.8222L68.5126 17.8708Z" fill="#EBEBEB"/>
<path d="M11.9666 3.51807V219.805H152.595V3.51807H11.9666ZM147.348 214.607H17.1525V8.71615H147.409L147.348 214.607Z" fill="#EBEBEB"/>
<path d="M147.348 8.71631H17.1525V214.619H147.348V8.71631Z" fill="white"/>
<path d="M17.1525 114.249L147.348 114.249V109.063L17.1525 109.063V114.249Z" fill="#EBEBEB"/>
<path d="M2.42255 234.681L162.09 234.681V219.793L2.42255 219.793V234.681Z" fill="#DBDBDB"/>
<path d="M17.1525 8.7041H147.409V141.895H17.1525V8.7041ZM142.54 13.5126H21.9489V137.11H142.552L142.54 13.5126Z" fill="#DBDBDB"/>
<path d="M105.8 8.7041H103.207V137.11H105.8V8.7041Z" fill="#DBDBDB"/>
<path d="M61.2937 8.7041H58.7007V137.11H61.2937V8.7041Z" fill="#DBDBDB"/>
<path d="M245.589 3.51807V219.805H386.168V3.51807H245.589ZM380.982 214.607H250.726V8.71615H380.982V214.607Z" fill="#EBEBEB"/>
<path d="M380.982 8.71631H250.787V214.619H380.982V8.71631Z" fill="white"/>
<path d="M250.787 114.249L380.982 114.249V109.063L250.787 109.063V114.249Z" fill="#EBEBEB"/>
<path d="M236.045 234.681L395.712 234.681V219.793L236.045 219.793V234.681Z" fill="#DBDBDB"/>
<path d="M250.774 8.7041H381.031V141.895H250.774V8.7041ZM376.162 13.5126H255.583V137.11H376.174L376.162 13.5126Z" fill="#DBDBDB"/>
<path d="M339.422 8.7041H336.829V137.11H339.422V8.7041Z" fill="#DBDBDB"/>
<path d="M294.928 8.7041H292.335V137.11H294.928V8.7041Z" fill="#DBDBDB"/>
<path d="M90.8875 408.519H46.9289L21.7784 283.12L62.0241 264.628L90.8875 408.519Z" fill="#DBDBDB"/>
<path d="M216.664 408.519H90.8875L62.0241 264.628H187.813L216.664 408.519Z" fill="#EBEBEB"/>
<path d="M68.3178 341.236H0.961708V479.43H68.3178V341.236Z" fill="#DBDBDB"/>
<path d="M248.997 479.442H230.591L203.176 341.236H248.997V479.442Z" fill="#DBDBDB"/>
<path d="M105.325 341.236H68.3178V479.43H105.325V341.236Z" fill="#EBEBEB"/>
<path d="M286.005 341.236H248.997V479.43H286.005V341.236Z" fill="#EBEBEB"/>
<path d="M248.997 408.519H105.325V479.442H248.997V408.519Z" fill="#EBEBEB"/>
<path d="M248.997 377.866H105.325V408.811H248.997V377.866Z" fill="#EBEBEB"/>
<path d="M77.3871 341.236L91.3501 340.992L105.325 340.822H105.751V341.248L105.91 357.426V373.593C105.91 384.379 105.995 395.164 105.91 405.938C105.824 416.711 105.91 427.509 105.727 438.295C105.544 449.081 105.484 459.854 105.252 470.64C105.025 459.854 104.871 449.073 104.79 438.295C104.656 427.509 104.631 416.724 104.595 405.938C104.558 395.152 104.595 384.379 104.595 373.593V357.426L104.753 341.248L105.179 341.674L91.3501 341.54L77.3871 341.236Z" fill="#DBDBDB"/>
<path d="M248.997 341.236C249.277 352.058 249.411 362.88 249.533 373.703L249.691 406.169L249.533 438.636L249.338 454.876L248.997 471.103L248.656 454.876L248.462 438.636L248.291 406.169L248.462 373.703C248.571 362.88 248.766 352.058 248.997 341.236Z" fill="#DBDBDB"/>
<path d="M248.997 408.495C237.018 408.787 225.052 408.921 213.073 409.03L177.161 409.189L141.237 409.03L123.281 408.836L105.325 408.495L123.281 408.154L141.237 407.959L177.161 407.801L213.073 407.959C225.052 408.093 237.018 408.227 248.997 408.495Z" fill="#DBDBDB"/>
<path d="M248.997 377.866C237.018 378.146 225.052 378.28 213.073 378.389L177.161 378.56L141.237 378.401L123.281 378.207L105.325 377.866L123.281 377.513L141.237 377.33L177.161 377.16L213.073 377.33C225.052 377.44 237.018 377.574 248.997 377.866Z" fill="#DBDBDB"/>
<path d="M26.5626 479.442L25.6496 490.629L23.5192 516.498H13.7682L11.6501 490.629L10.737 479.442H26.5626Z" fill="#C7C7C7"/>
<path d="M10.737 479.442H26.5626L25.6496 490.629H11.6501L10.737 479.442Z" fill="#A6A6A6"/>
<path d="M94.7343 479.442L93.8213 490.629L91.7031 516.498H81.9521L79.8218 490.629L78.9088 479.442H94.7343Z" fill="#C7C7C7"/>
<path d="M78.9088 479.442H94.7343L93.8213 490.629H79.8218L78.9088 479.442Z" fill="#A6A6A6"/>
<path d="M207.814 479.442L206.901 490.629L204.783 516.498H195.02L192.902 490.629L191.989 479.442H207.814Z" fill="#C7C7C7"/>
<path d="M191.989 479.442H207.814L206.901 490.629H192.902L191.989 479.442Z" fill="#A6A6A6"/>
<path d="M276.01 479.442L275.097 490.629L272.967 516.498H263.216L261.085 490.629L260.172 479.442H276.01Z" fill="#C7C7C7"/>
<path d="M276.01 479.442L275.097 490.629H261.085L260.172 479.442H276.01Z" fill="#A6A6A6"/>
<path d="M76.0967 434.862C76.0967 434.862 98.3377 429.822 110.536 418.586C122.733 407.35 129.538 387.227 129.538 387.227C121.086 388.846 112.753 391.035 104.595 393.776C102.598 395.907 98.8125 400.289 97.0473 404.453C96.8369 401.913 96.8165 399.362 96.9864 396.82C94.1381 398.054 91.4718 399.672 89.0615 401.628C78.9574 410.478 76.0967 434.862 76.0967 434.862Z" fill="#00B386"/>
<path d="M115.648 397.002C118.68 394.909 121.735 392.888 124.791 390.77C124.82 390.741 124.839 390.703 124.844 390.663C124.849 390.622 124.84 390.581 124.819 390.546C124.798 390.511 124.766 390.484 124.728 390.469C124.689 390.454 124.647 390.453 124.608 390.465C118.874 393.898 113.226 397.55 107.76 401.421C105.849 402.761 103.974 404.148 102.124 405.56L102.513 404.903C103.183 403.783 103.889 402.688 104.583 401.592C105.988 399.372 107.568 397.268 109.306 395.298C109.321 395.284 109.329 395.264 109.329 395.243C109.329 395.223 109.321 395.203 109.306 395.189C109.292 395.174 109.272 395.166 109.251 395.166C109.231 395.166 109.211 395.174 109.196 395.189C107.468 397.185 105.739 399.169 104.157 401.275C103.402 402.274 102.708 403.321 102.051 404.392C101.698 404.94 101.369 405.5 101.04 406.072C100.943 406.254 100.821 406.449 100.712 406.644C97.8386 408.896 95.0387 411.258 92.3605 413.741C90.7373 415.283 89.1467 416.878 87.5885 418.525C88.4406 415.835 89.1954 413.108 90.1936 410.454C90.1936 410.369 90.084 410.332 90.0475 410.454C89.0736 413.23 88.0145 416.03 87.272 418.89C85.5677 420.729 83.9364 422.64 82.4025 424.624L82.4756 424.259C82.7272 423.212 82.995 422.165 83.279 421.118C83.8147 419.114 84.4152 417.121 85.0807 415.141C86.3629 411.044 88.3892 407.219 91.0579 403.856C91.0579 403.783 91.0579 403.674 90.9484 403.747C86.7776 408.941 83.8615 415.027 82.4269 421.532C82.1834 422.482 81.9643 423.431 81.7452 424.393C81.6234 424.892 81.4895 425.403 81.4043 425.927C80.7348 426.84 80.0774 427.753 79.4444 428.69C75.6523 434.485 72.4973 440.673 70.0343 447.145C67.2558 454.415 64.8784 461.832 62.9127 469.362C62.9127 469.508 63.0953 469.557 63.144 469.423C67.49 456.409 71.9333 443.201 79.3835 431.563C80.9539 429.128 82.6582 426.694 84.4599 424.454C88.147 424.22 91.7866 423.495 95.2821 422.299C99.1052 421.022 102.75 419.263 106.129 417.064C108.049 415.764 109.902 414.366 111.68 412.877C111.688 412.87 111.694 412.862 111.699 412.853C111.704 412.845 111.708 412.835 111.709 412.825C111.71 412.814 111.709 412.804 111.706 412.794C111.703 412.784 111.698 412.775 111.692 412.767C111.686 412.759 111.678 412.753 111.669 412.748C111.66 412.743 111.65 412.74 111.64 412.738C111.63 412.737 111.619 412.738 111.609 412.741C111.6 412.744 111.59 412.749 111.582 412.755C108.479 415.261 105.052 417.337 101.393 418.927C97.7951 420.573 94.0328 421.834 90.1693 422.689C88.5258 423.042 86.8581 423.309 85.1903 423.541C87.247 420.992 89.4372 418.554 91.7518 416.237C92.5066 415.482 93.2857 414.764 94.0526 414.045C96.6435 412.223 99.3985 410.646 102.282 409.334C105.934 407.569 109.513 405.682 113.116 403.868C115.149 402.834 117.17 401.775 119.203 400.776C119.288 400.776 119.203 400.606 119.118 400.642C115.466 402.408 111.753 404.063 108.064 405.755C104.583 407.338 101.077 408.933 97.7412 410.807L97.3151 411.063C100.334 408.433 103.402 405.938 106.64 403.528C109.623 401.288 112.605 399.109 115.648 397.002Z" fill="#263238"/>
<path d="M114.382 408.494C112.581 409.298 110.73 409.991 108.941 410.831C107.151 411.671 105.362 412.694 103.609 413.729C103.597 413.74 103.59 413.755 103.588 413.772C103.586 413.788 103.589 413.804 103.597 413.818C103.606 413.832 103.619 413.843 103.634 413.849C103.649 413.855 103.666 413.855 103.682 413.85C105.459 412.998 107.249 412.207 109.002 411.318C110.755 410.43 112.581 409.456 114.431 408.64C114.516 408.579 114.468 408.494 114.382 408.494Z" fill="#263238"/>
<path d="M3.83466 323.45C7.94384 328.755 10.2703 335.223 10.4814 341.93C10.5544 343.926 10.2379 346.702 10.0066 349.976C15.5647 353.189 20.487 357.394 24.5296 362.381C20.1066 359.811 15.0295 358.588 9.92142 358.863C10.028 361.097 10.3089 363.319 10.7614 365.51C14.0019 365.518 17.21 366.154 20.208 367.384C17.281 367.351 14.379 367.928 11.6866 369.077C15.643 381.688 27.4391 394.641 59.9789 400.156C63.4337 384.68 61.398 368.485 54.2209 354.347C44.4212 335.161 3.83466 323.45 3.83466 323.45Z" fill="#00B386"/>
<path d="M71.2029 453.439C70.6348 448.042 69.9328 442.67 69.0969 437.321C67.4397 426.594 65.2416 415.957 62.511 405.451C61.2372 400.524 59.668 395.679 57.812 390.94C57.907 390.075 57.9476 389.205 57.9338 388.335C57.9338 387.288 57.9338 386.254 57.9338 385.207C57.9338 383.125 57.812 381.043 57.6294 378.962C57.2995 374.856 56.6317 370.784 55.633 366.788C55.0365 364.463 54.3426 362.187 53.6609 359.886C53.6609 359.788 53.4904 359.886 53.5148 359.886C54.6053 363.883 55.4188 367.95 55.9495 372.059C56.5257 376.095 56.8914 380.159 57.0451 384.233C57.0451 385.353 57.0451 386.46 57.0451 387.58C57.0451 388.055 57.0451 388.542 57.0451 389.017C55.4372 385.155 53.604 381.391 51.5549 377.744C48.2525 371.925 44.5297 366.355 40.4161 361.079C40.4064 360.461 40.3164 359.847 40.1483 359.253L39.6735 357.074C39.3448 355.588 38.9674 354.115 38.5657 352.642C37.7501 349.696 36.691 346.848 35.7658 343.938C35.7658 343.919 35.7581 343.9 35.7444 343.887C35.7307 343.873 35.7121 343.865 35.6928 343.865C35.6734 343.865 35.6548 343.873 35.6411 343.887C35.6274 343.9 35.6197 343.919 35.6197 343.938C36.484 346.824 37.0562 349.806 37.7136 352.74C38.0422 354.189 38.3588 355.649 38.6753 357.098C38.8335 357.828 38.9918 358.559 39.1379 359.277V359.447C37.811 357.78 36.4719 356.148 35.0963 354.578C28.8878 347.274 22.0706 340.566 15.2169 333.883L12.6483 331.448C12.5752 331.375 12.4779 331.448 12.5509 331.558C19.1003 338.387 25.5522 345.314 31.6633 352.545C33.1242 354.274 34.5485 356.015 35.9606 357.767L33.7328 356.307C31.8459 355.089 29.9225 353.872 27.9504 352.752C25.9783 351.632 23.9818 350.561 21.9489 349.563C19.9159 348.564 17.6394 347.676 15.6186 346.507C15.5334 346.507 15.4604 346.604 15.5456 346.641C17.6012 347.594 19.5864 348.693 21.4863 349.928C23.4706 351.145 25.4427 352.289 27.3904 353.58C29.3382 354.87 31.2251 356.015 33.1241 357.232C34.7067 358.254 36.2649 359.387 37.9083 360.336C41.686 365.179 45.1698 370.244 48.341 375.504C50.3138 378.816 52.1098 382.229 53.7217 385.73L52.5044 385.219L49.5219 383.904C47.6106 383.052 45.6872 382.224 43.7638 381.384C40.1117 379.802 36.4597 378.341 32.8076 376.6C30.788 375.651 28.8357 374.565 26.9644 373.35C26.8913 373.35 26.8183 373.435 26.8913 373.484C33.5746 378.085 41.0491 381.323 48.4384 384.598L51.6401 386.01C52.5166 386.4 53.4052 386.838 54.3061 387.227C56.4911 392.12 58.3298 397.16 59.8085 402.31C62.7218 412.672 65.0867 423.18 66.8935 433.791C68.756 444.431 70.0221 455.131 70.996 465.881C71.1177 467.22 71.2394 468.559 71.3977 469.898C71.4146 469.997 71.4661 470.087 71.5429 470.152C71.6198 470.217 71.7171 470.252 71.8177 470.252C71.9182 470.252 72.0155 470.217 72.0924 470.152C72.1693 470.087 72.2207 469.997 72.2377 469.898C72.3229 464.322 71.7629 458.856 71.2029 453.439Z" fill="#263238"/>
<path d="M51.3966 363.55C50.8001 360.238 49.9236 357 48.9619 353.811C48.9619 353.726 48.8036 353.811 48.828 353.811C49.6436 356.988 50.2401 360.226 50.8366 363.464C51.4331 366.703 51.9809 370.05 52.4435 373.362C52.4435 373.422 52.5409 373.422 52.5287 373.362C52.3404 370.072 51.9624 366.796 51.3966 363.55Z" fill="#263238"/>
<path d="M37.3727 372.521C35.1048 371.034 32.7375 369.704 30.2877 368.541C29.0704 367.932 27.853 367.323 26.7087 366.763C25.5644 366.203 24.1766 365.656 22.9471 365.047C22.8619 365.047 22.7888 365.132 22.874 365.181C24.0914 365.777 25.1992 366.496 26.3678 367.129L30.0199 369.113C32.3581 370.475 34.7634 371.718 37.2266 372.838C37.2652 372.843 37.3044 372.836 37.3385 372.817C37.3725 372.798 37.3997 372.769 37.416 372.733C37.4323 372.698 37.4369 372.658 37.4291 372.62C37.4213 372.582 37.4016 372.548 37.3727 372.521Z" fill="#263238"/>
<path opacity="0.1" d="M76.4984 396.321C76.4984 396.321 97.0838 391.451 106.543 377.586C115.563 364.402 118.485 341.917 118.716 339.945C118.339 341.759 114.09 361.407 100.079 370.562C89.3536 377.586 78.9818 383.344 76.4984 396.321Z" fill="#263238"/>
<path d="M95.5012 360.762C91.8394 364.127 89.2092 368.462 87.9172 373.264C87.9172 373.264 87.9172 373.325 87.9172 373.264C89.4278 368.575 92.0411 364.317 95.5378 360.847C95.6717 360.811 95.5743 360.689 95.5012 360.762Z" fill="#263238"/>
<path d="M76.4984 397.027C76.4984 397.027 97.0838 392.158 106.543 378.292C115.563 365.108 118.485 342.636 118.716 340.651C118.716 340.566 118.716 340.518 118.716 340.518C118.716 340.518 108.843 354.554 98.4594 358.133C88.0754 361.712 73.5281 374.092 76.4984 397.027Z" fill="#00B386"/>
<path d="M115.088 347.554C113.245 351.338 111.117 354.976 108.722 358.437C106.304 361.728 103.436 364.662 100.2 367.153C97.4003 369.369 94.4422 371.39 91.6788 373.569C91.6944 373.53 91.7148 373.493 91.7396 373.459C92.2753 372.648 92.8352 371.881 93.4196 371.158C94.6369 369.649 95.8543 368.224 97.1812 366.825C99.7498 364.049 102.355 361.322 104.644 358.303C105.921 356.644 107.03 354.862 107.955 352.983C107.955 352.898 107.845 352.849 107.809 352.983C104.473 359.934 97.802 364.39 93.0422 370.27C92.3606 371.097 91.7265 371.963 91.1431 372.863C90.6621 373.514 90.2539 374.216 89.9258 374.956C87.3199 377.045 84.9631 379.426 82.9017 382.054C83.0908 380.706 83.3673 379.372 83.7295 378.061C84.207 376.228 84.945 374.473 85.9207 372.85C85.9207 372.765 85.8355 372.68 85.7868 372.765C84.7773 374.39 83.9602 376.126 83.3521 377.939C82.9209 379.388 82.6675 380.884 82.5973 382.394C81.5726 383.771 80.6413 385.215 79.8096 386.716L80.0652 385.401C80.4791 383.344 80.9295 381.299 81.4652 379.315C82.4275 375.19 84.0999 371.264 86.4076 367.713C86.4076 367.64 86.3346 367.555 86.2859 367.628C83.926 371.13 82.0773 374.95 80.7956 378.974C80.1383 380.995 79.5783 383.052 79.1522 385.121C78.9331 386.132 78.7261 387.154 78.5314 388.177C78.434 388.7 78.3122 389.236 78.227 389.784C76.1892 394.266 74.5989 398.939 73.4794 403.735C71.4606 412.307 69.9967 421.001 69.0969 429.762C68.0322 438.933 67.5564 448.163 67.6726 457.396C67.6726 458.552 67.7578 459.708 67.8308 460.865C67.8308 461.169 68.2934 461.206 68.3056 460.865C68.5004 456.3 68.6221 451.735 68.8899 447.17C69.1578 442.605 69.5595 438.04 70.0464 433.487C70.9857 424.544 72.4204 415.66 74.3437 406.875C76.0114 399.352 78.1783 391.78 82.2808 385.182C84.3306 381.907 86.8303 378.936 89.7067 376.356C92.6039 373.763 95.7934 371.487 98.8003 369.052C101.899 366.71 104.714 364.013 107.188 361.018C109.708 357.699 111.901 354.144 113.737 350.402L115.21 347.603C115.259 347.554 115.137 347.469 115.088 347.554Z" fill="#263238"/>
<path d="M111.534 350.573C110.187 353.344 108.654 356.02 106.944 358.583C106.944 358.644 107.005 358.705 107.042 358.644C108.809 356.1 110.361 353.412 111.68 350.61C111.716 350.536 111.582 350.488 111.534 350.573Z" fill="#263238"/>
<path d="M0.961704 387.921C0.961704 387.921 0.633022 417.137 18.1264 425.659C35.6197 434.18 44.9933 427.059 56.8868 429.895C56.4243 429.189 47.9028 417.016 34.4267 413.595C20.5489 410.138 5.17374 400.107 0.961704 387.921Z" fill="#00B386"/>
<path opacity="0.2" d="M0.961704 387.921C0.961704 387.921 0.633022 417.137 18.1264 425.659C35.6197 434.18 44.9933 427.059 56.8868 429.895C50.5956 426.879 43.8649 424.882 36.9466 423.979C25.9905 422.652 4.88158 415.457 0.961704 387.921Z" fill="black"/>
<path d="M58.0312 429.676C55.9494 427.784 53.6089 426.198 51.0801 424.965L49.9358 424.478C49.7532 424.247 49.5584 424.028 49.3514 423.808C48.8295 423.258 48.2768 422.738 47.6959 422.25C46.6049 421.294 45.4271 420.443 44.1777 419.706C41.2804 418.002 38.0909 416.809 35.1449 415.226C35.0597 415.226 34.9867 415.324 35.0719 415.36C36.5327 416.127 37.957 416.967 39.3813 417.795C40.8056 418.623 42.1812 419.377 43.5325 420.229C44.7455 421.01 45.9009 421.876 46.9898 422.822C47.3063 423.102 47.5985 423.395 47.8906 423.687C45.9588 423.035 43.9866 422.511 41.9865 422.116C38.7848 421.471 35.5467 421.009 32.345 420.327C30.7778 420.007 29.2294 419.6 27.7069 419.109C26.2583 417.892 24.8096 416.784 23.434 415.518C21.7649 413.998 20.2482 412.318 18.9055 410.503C18.9055 410.43 18.7229 410.503 18.7837 410.588C20.9182 413.45 23.3323 416.093 25.9905 418.476C25.2357 418.184 24.4931 417.88 23.7505 417.539C17.7465 414.844 12.5939 410.559 8.85015 405.146C8.85015 405.061 8.66755 405.146 8.71624 405.219C11.8956 409.87 16.0031 413.811 20.7802 416.797C23.1616 418.313 25.7159 419.539 28.3886 420.449C31.4902 421.413 34.6548 422.161 37.8596 422.688C41 423.202 44.0999 423.939 47.1359 424.892C49.9232 425.84 52.5441 427.22 54.9026 428.982C59.359 432.443 62.9477 436.894 65.384 441.984C68.4919 448.703 70.431 455.903 71.1177 463.275C71.1177 463.592 71.6412 463.592 71.6168 463.275C70.8012 451.016 67.5143 438.222 58.0312 429.676Z" fill="#263238"/>
<path d="M37.7379 420.145C36.8103 418.771 35.5552 417.65 34.0859 416.882C32.4464 416.019 31.0071 414.82 29.8616 413.364C29.8008 413.291 29.679 413.364 29.7399 413.449C30.7867 414.793 32.0646 415.939 33.5137 416.833C35.1043 417.67 36.5051 418.827 37.6283 420.23C37.677 420.279 37.7866 420.218 37.7379 420.145Z" fill="#263238"/>
<path d="M47.0141 451.272L47.8054 467.353L50.2523 516.498H86.9433L89.378 467.353L90.1814 451.272H47.0141Z" fill="#455A64"/>
<path d="M47.0141 451.272L47.8054 467.353H89.378L90.1814 451.272H47.0141Z" fill="#263238"/>
<path d="M44.4455 459.903H92.75V444.552H44.4455V459.903Z" fill="#455A64"/>
<path d="M0.961708 516.498C158.937 515.755 336.16 515.755 494.135 516.498C336.16 517.253 158.937 517.253 0.961708 516.498Z" fill="#263238"/>
<path d="M457.98 32.6494H37.1171V322.513H457.98V32.6494Z" fill="white"/>
<path d="M457.98 322.513C457.907 322.586 37.0197 322.635 36.9344 322.696C36.8492 322.757 36.9344 32.7104 36.8127 32.6495V32.333H37.1171C37.1171 32.333 458.041 32.54 458.102 32.5034C458.163 32.4669 457.907 322.404 457.98 322.501V322.513ZM457.98 322.513C457.98 322.574 457.676 32.1017 457.98 32.7834L37.1171 32.966L37.4214 32.6617C37.4214 32.5643 37.5553 323.341 37.1171 322.391L457.98 322.574V322.513Z" fill="#263238"/>
<path d="M457.98 32.6494H37.1171V43.8004H457.98V32.6494Z" fill="#263238"/>
<path d="M47.9028 38.2251C47.9052 38.67 47.7757 39.1056 47.5308 39.477C47.2859 39.8484 46.9364 40.139 46.5265 40.312C46.1166 40.485 45.6647 40.5327 45.2277 40.4492C44.7907 40.3656 44.3883 40.1545 44.0712 39.8424C43.7541 39.5304 43.5365 39.1314 43.4458 38.6958C43.3552 38.2603 43.3956 37.8076 43.562 37.395C43.7284 36.9824 44.0132 36.6283 44.3806 36.3774C44.748 36.1264 45.1815 35.99 45.6263 35.9852C45.9236 35.9803 46.2188 36.0347 46.4947 36.1451C46.7707 36.2555 47.022 36.4197 47.2339 36.6282C47.4458 36.8366 47.614 37.0852 47.7289 37.3594C47.8437 37.6336 47.9028 37.9278 47.9028 38.2251Z" fill="#00B386"/>
<path d="M57.0451 38.2248C57.0475 38.6713 56.9172 39.1084 56.6706 39.4806C56.4241 39.8528 56.0725 40.1433 55.6605 40.3153C55.2485 40.4873 54.7946 40.5329 54.3566 40.4464C53.9186 40.3599 53.5163 40.1451 53.2006 39.8294C52.8849 39.5137 52.6701 39.1113 52.5836 38.6733C52.4971 38.2354 52.5427 37.7815 52.7147 37.3695C52.8867 36.9575 53.1772 36.6059 53.5494 36.3594C53.9216 36.1128 54.3587 35.9825 54.8052 35.9849C55.0993 35.9849 55.3906 36.0428 55.6624 36.1554C55.9341 36.268 56.181 36.433 56.389 36.641C56.597 36.849 56.762 37.0959 56.8746 37.3676C56.9872 37.6394 57.0451 37.9307 57.0451 38.2248Z" fill="white"/>
<path d="M66.2239 38.2248C66.2263 38.6708 66.0963 39.1074 65.8503 39.4793C65.6043 39.8513 65.2534 40.1418 64.8421 40.3142C64.4308 40.4865 63.9776 40.5328 63.54 40.4473C63.1023 40.3618 62.6999 40.1483 62.3837 39.8338C62.0675 39.5193 61.8518 39.118 61.7639 38.6809C61.6761 38.2437 61.7199 37.7902 61.89 37.378C62.0601 36.9658 62.3488 36.6133 62.7194 36.3653C63.09 36.1173 63.5259 35.9849 63.9718 35.9849C64.267 35.9833 64.5596 36.04 64.8328 36.1519C65.1059 36.2637 65.3543 36.4285 65.5636 36.6366C65.7729 36.8448 65.9389 37.0923 66.0523 37.3648C66.1656 37.6374 66.2239 37.9296 66.2239 38.2248Z" fill="#455A64"/>
<path d="M89.7675 68.8291H80.6982V70.2899H89.7675V68.8291Z" fill="#EBEBEB"/>
<path d="M89.7675 75.3784H80.6982V76.8392H89.7675V75.3784Z" fill="#EBEBEB"/>
<path d="M89.7675 72.1406H80.6982V73.6015H89.7675V72.1406Z" fill="#EBEBEB"/>
<path d="M160.824 71.2153H112.581V74.4413H160.824V71.2153Z" fill="#EBEBEB"/>
<path d="M226.987 71.2153H178.744V74.4413H226.987V71.2153Z" fill="#00B386"/>
<path d="M293.163 71.2153H244.919V74.4413H293.163V71.2153Z" fill="#EBEBEB"/>
<path d="M414.289 67.1978H313.541V78.4704H414.289V67.1978Z" fill="white"/>
<path d="M414.399 78.5925C414.094 78.3003 312.835 79.4203 313.139 78.5925V67.0763V66.772L389.175 66.9181L414.472 67.0276C414.472 67.0276 414.411 78.5438 414.472 78.5925H414.399ZM414.399 78.5925C414.399 78.5925 414.289 66.8572 414.399 67.125C401.799 67.198 376.503 67.2833 363.903 67.2954L313.419 67.3806L313.724 67.0763V78.5925C311.959 77.789 414.764 78.8481 414.423 78.5925H414.399Z" fill="#C7C7C7"/>
<path d="M412.22 75.9993L411.173 76.7906L409.249 74.2342L408.543 73.309C408.686 73.2485 408.821 73.1708 408.945 73.0777C409.18 72.8962 409.365 72.6573 409.481 72.3838L410.235 73.3698L412.22 75.9993Z" fill="#DBDBDB"/>
<path d="M410.162 69.9979C409.832 69.5698 409.386 69.245 408.878 69.0618C408.369 68.8786 407.818 68.8446 407.291 68.9639C406.764 69.0832 406.281 69.3507 405.901 69.735C405.52 70.1193 405.258 70.6043 405.144 71.1329C405.03 71.6615 405.069 72.2116 405.258 72.7185C405.446 73.2253 405.775 73.6678 406.207 73.9937C406.638 74.3196 407.154 74.5155 407.693 74.5581C408.232 74.6007 408.772 74.4884 409.249 74.2343C409.386 74.1605 409.517 74.075 409.639 73.9786C409.938 73.7539 410.189 73.4718 410.377 73.1489C410.565 72.826 410.688 72.4688 410.736 72.0982C410.785 71.7275 410.759 71.3508 410.661 70.9902C410.562 70.6296 410.393 70.2923 410.162 69.9979ZM408.945 73.0778C408.821 73.1709 408.686 73.2486 408.543 73.3091C408.138 73.4749 407.684 73.4804 407.274 73.3244C406.865 73.1684 406.529 72.8625 406.337 72.4688C406.144 72.0751 406.108 71.6229 406.236 71.2036C406.364 70.7844 406.647 70.4295 407.027 70.2108C407.407 69.9921 407.856 69.9259 408.282 70.0255C408.709 70.1252 409.082 70.3833 409.326 70.7477C409.57 71.112 409.666 71.5553 409.595 71.9879C409.525 72.4205 409.292 72.8101 408.945 73.0778Z" fill="#DBDBDB"/>
<path d="M316.499 69.4136H315.891V76.2551H316.499V69.4136Z" fill="#C7C7C7"/>
<path d="M457.98 43.8003H449.836V322.513H457.98V43.8003Z" fill="#DBDBDB"/>
<path d="M453.914 140.896C453.638 140.898 453.364 140.845 453.109 140.74C452.854 140.636 452.621 140.482 452.426 140.287C452.23 140.093 452.074 139.861 451.968 139.606C451.863 139.352 451.808 139.078 451.808 138.802V47.854C451.803 47.575 451.854 47.2978 451.958 47.0387C452.062 46.7796 452.216 46.5439 452.412 46.3454C452.609 46.147 452.843 45.9897 453.1 45.8829C453.358 45.7761 453.635 45.722 453.914 45.7237C454.19 45.7237 454.463 45.7782 454.718 45.8842C454.973 45.9902 455.204 46.1455 455.399 46.3412C455.593 46.537 455.747 46.7692 455.852 47.0247C455.956 47.2801 456.009 47.5537 456.008 47.8297V138.778C456.011 139.055 455.959 139.33 455.855 139.587C455.752 139.844 455.598 140.077 455.403 140.274C455.208 140.471 454.977 140.628 454.721 140.735C454.465 140.841 454.191 140.896 453.914 140.896Z" fill="#A6A6A6"/>
<path d="M414.721 97H333V122.881H414.721V97Z" fill="#00B386"/>
<path d="M355.17 108.924C355.151 109.344 355.142 109.736 355.142 110.1C355.142 110.464 355.151 110.856 355.17 111.276C355.198 112.051 355.431 112.681 355.87 113.166C356.318 113.642 356.957 113.88 357.788 113.88C358.236 113.88 358.614 113.824 358.922 113.712C359.23 113.6 359.482 113.455 359.678 113.278C359.883 113.101 360.037 112.9 360.14 112.676C360.252 112.443 360.336 112.209 360.392 111.976C360.411 111.873 360.457 111.799 360.532 111.752C360.607 111.696 360.681 111.668 360.756 111.668H361.4C361.484 111.668 361.554 111.701 361.61 111.766C361.675 111.822 361.708 111.892 361.708 111.976C361.699 112.284 361.619 112.62 361.47 112.984C361.321 113.348 361.087 113.693 360.77 114.02C360.462 114.337 360.061 114.603 359.566 114.818C359.081 115.033 358.488 115.14 357.788 115.14C357.181 115.14 356.64 115.047 356.164 114.86C355.688 114.664 355.277 114.398 354.932 114.062C354.596 113.726 354.335 113.329 354.148 112.872C353.961 112.405 353.859 111.897 353.84 111.346C353.812 110.515 353.812 109.685 353.84 108.854C353.859 108.313 353.961 107.809 354.148 107.342C354.335 106.875 354.596 106.474 354.932 106.138C355.277 105.802 355.688 105.541 356.164 105.354C356.64 105.158 357.181 105.06 357.788 105.06C358.488 105.06 359.081 105.167 359.566 105.382C360.061 105.597 360.462 105.867 360.77 106.194C361.087 106.511 361.321 106.852 361.47 107.216C361.619 107.58 361.699 107.916 361.708 108.224C361.708 108.308 361.675 108.383 361.61 108.448C361.554 108.504 361.484 108.532 361.4 108.532H360.756C360.681 108.532 360.607 108.509 360.532 108.462C360.457 108.406 360.411 108.327 360.392 108.224C360.336 107.991 360.252 107.762 360.14 107.538C360.037 107.305 359.883 107.099 359.678 106.922C359.482 106.745 359.23 106.6 358.922 106.488C358.614 106.376 358.236 106.32 357.788 106.32C356.957 106.32 356.318 106.563 355.87 107.048C355.431 107.524 355.198 108.149 355.17 108.924ZM367.084 107.72C367.187 107.72 367.275 107.757 367.35 107.832C367.425 107.907 367.462 107.995 367.462 108.098V108.546C367.462 108.649 367.425 108.737 367.35 108.812C367.275 108.887 367.187 108.924 367.084 108.924H366.272C365.199 108.924 364.662 109.461 364.662 110.534V114.622C364.662 114.725 364.625 114.813 364.55 114.888C364.475 114.963 364.387 115 364.284 115H363.766C363.663 115 363.575 114.963 363.5 114.888C363.425 114.813 363.388 114.725 363.388 114.622V108.098C363.388 107.995 363.425 107.907 363.5 107.832C363.575 107.757 363.663 107.72 363.766 107.72H364.284C364.387 107.72 364.475 107.757 364.55 107.832C364.625 107.907 364.662 107.995 364.662 108.098V108.532C364.849 108.252 365.073 108.047 365.334 107.916C365.595 107.785 365.936 107.72 366.356 107.72H367.084ZM368.193 110.66C368.23 110.231 368.333 109.829 368.501 109.456C368.669 109.083 368.888 108.756 369.159 108.476C369.429 108.196 369.751 107.977 370.125 107.818C370.507 107.659 370.932 107.58 371.399 107.58C371.903 107.58 372.351 107.664 372.743 107.832C373.144 107.991 373.485 108.224 373.765 108.532C374.045 108.84 374.259 109.213 374.409 109.652C374.558 110.091 374.633 110.581 374.633 111.122V111.5C374.633 111.603 374.595 111.691 374.521 111.766C374.446 111.841 374.357 111.878 374.255 111.878H369.439V111.962C369.457 112.597 369.649 113.087 370.013 113.432C370.386 113.768 370.848 113.936 371.399 113.936C371.912 113.936 372.295 113.866 372.547 113.726C372.808 113.577 373.018 113.413 373.177 113.236C373.251 113.161 373.317 113.11 373.373 113.082C373.429 113.054 373.513 113.04 373.625 113.04H374.045C374.147 113.04 374.241 113.077 374.325 113.152C374.409 113.227 374.441 113.315 374.423 113.418C374.395 113.586 374.315 113.773 374.185 113.978C374.054 114.174 373.863 114.361 373.611 114.538C373.368 114.706 373.06 114.851 372.687 114.972C372.323 115.084 371.893 115.14 371.399 115.14C370.932 115.14 370.512 115.061 370.139 114.902C369.765 114.734 369.439 114.51 369.159 114.23C368.888 113.941 368.669 113.605 368.501 113.222C368.333 112.83 368.23 112.405 368.193 111.948C368.146 111.519 368.146 111.089 368.193 110.66ZM369.439 110.702H373.373V110.66C373.373 110.091 373.191 109.638 372.827 109.302C372.472 108.957 371.996 108.784 371.399 108.784C371.128 108.784 370.876 108.831 370.643 108.924C370.409 109.008 370.204 109.134 370.027 109.302C369.849 109.461 369.709 109.657 369.607 109.89C369.504 110.123 369.448 110.38 369.439 110.66V110.702ZM375.803 113.166C375.803 112.793 375.878 112.466 376.027 112.186C376.177 111.906 376.382 111.668 376.643 111.472C376.905 111.276 377.208 111.117 377.553 110.996C377.908 110.875 378.281 110.781 378.673 110.716L380.647 110.394V110.212C380.647 109.736 380.489 109.381 380.171 109.148C379.863 108.905 379.476 108.784 379.009 108.784C378.599 108.784 378.286 108.859 378.071 109.008C377.866 109.157 377.689 109.335 377.539 109.54C377.483 109.615 377.423 109.666 377.357 109.694C377.292 109.722 377.203 109.736 377.091 109.736H376.671C376.569 109.736 376.475 109.699 376.391 109.624C376.317 109.549 376.284 109.461 376.293 109.358C376.312 109.153 376.391 108.943 376.531 108.728C376.681 108.513 376.877 108.322 377.119 108.154C377.371 107.986 377.656 107.851 377.973 107.748C378.3 107.636 378.645 107.58 379.009 107.58C379.429 107.58 379.817 107.641 380.171 107.762C380.535 107.883 380.843 108.061 381.095 108.294C381.357 108.527 381.557 108.817 381.697 109.162C381.847 109.507 381.921 109.904 381.921 110.352V114.622C381.921 114.725 381.884 114.813 381.809 114.888C381.735 114.963 381.646 115 381.543 115H381.025C380.923 115 380.834 114.963 380.759 114.888C380.685 114.813 380.647 114.725 380.647 114.622V114.048C380.563 114.225 380.433 114.384 380.255 114.524C380.078 114.655 379.873 114.767 379.639 114.86C379.415 114.953 379.177 115.023 378.925 115.07C378.683 115.117 378.454 115.14 378.239 115.14C377.875 115.14 377.539 115.089 377.231 114.986C376.933 114.883 376.676 114.748 376.461 114.58C376.256 114.403 376.093 114.193 375.971 113.95C375.859 113.707 375.803 113.446 375.803 113.166ZM378.379 113.936C378.715 113.936 379.023 113.885 379.303 113.782C379.583 113.679 379.821 113.539 380.017 113.362C380.223 113.175 380.377 112.956 380.479 112.704C380.591 112.452 380.647 112.172 380.647 111.864V111.514L378.995 111.78C378.407 111.873 377.941 112.023 377.595 112.228C377.25 112.433 377.077 112.699 377.077 113.026C377.077 113.129 377.101 113.231 377.147 113.334C377.194 113.437 377.269 113.535 377.371 113.628C377.474 113.721 377.605 113.796 377.763 113.852C377.931 113.908 378.137 113.936 378.379 113.936ZM385.786 112.55C385.786 112.727 385.8 112.895 385.828 113.054C385.865 113.203 385.926 113.334 386.01 113.446C386.094 113.558 386.211 113.647 386.36 113.712C386.519 113.768 386.719 113.796 386.962 113.796H387.704C387.807 113.796 387.895 113.833 387.97 113.908C388.045 113.983 388.082 114.071 388.082 114.174V114.622C388.082 114.725 388.045 114.813 387.97 114.888C387.895 114.963 387.807 115 387.704 115H386.822C386.01 115 385.422 114.79 385.058 114.37C384.694 113.95 384.512 113.343 384.512 112.55V108.924H383.476C383.373 108.924 383.285 108.887 383.21 108.812C383.135 108.737 383.098 108.649 383.098 108.546V108.098C383.098 107.995 383.135 107.907 383.21 107.832C383.285 107.757 383.373 107.72 383.476 107.72H384.512V105.438C384.512 105.335 384.549 105.247 384.624 105.172C384.699 105.097 384.787 105.06 384.89 105.06H385.408C385.511 105.06 385.599 105.097 385.674 105.172C385.749 105.247 385.786 105.335 385.786 105.438V107.72H387.564C387.667 107.72 387.755 107.757 387.83 107.832C387.905 107.907 387.942 107.995 387.942 108.098V108.546C387.942 108.649 387.905 108.737 387.83 108.812C387.755 108.887 387.667 108.924 387.564 108.924H385.786V112.55ZM389.152 110.66C389.189 110.231 389.292 109.829 389.46 109.456C389.628 109.083 389.847 108.756 390.118 108.476C390.388 108.196 390.71 107.977 391.084 107.818C391.466 107.659 391.891 107.58 392.358 107.58C392.862 107.58 393.31 107.664 393.702 107.832C394.103 107.991 394.444 108.224 394.724 108.532C395.004 108.84 395.218 109.213 395.368 109.652C395.517 110.091 395.592 110.581 395.592 111.122V111.5C395.592 111.603 395.554 111.691 395.48 111.766C395.405 111.841 395.316 111.878 395.214 111.878H390.398V111.962C390.416 112.597 390.608 113.087 390.972 113.432C391.345 113.768 391.807 113.936 392.358 113.936C392.871 113.936 393.254 113.866 393.506 113.726C393.767 113.577 393.977 113.413 394.136 113.236C394.21 113.161 394.276 113.11 394.332 113.082C394.388 113.054 394.472 113.04 394.584 113.04H395.004C395.106 113.04 395.2 113.077 395.284 113.152C395.368 113.227 395.4 113.315 395.382 113.418C395.354 113.586 395.274 113.773 395.144 113.978C395.013 114.174 394.822 114.361 394.57 114.538C394.327 114.706 394.019 114.851 393.646 114.972C393.282 115.084 392.852 115.14 392.358 115.14C391.891 115.14 391.471 115.061 391.098 114.902C390.724 114.734 390.398 114.51 390.118 114.23C389.847 113.941 389.628 113.605 389.46 113.222C389.292 112.83 389.189 112.405 389.152 111.948C389.105 111.519 389.105 111.089 389.152 110.66ZM390.398 110.702H394.332V110.66C394.332 110.091 394.15 109.638 393.786 109.302C393.431 108.957 392.955 108.784 392.358 108.784C392.087 108.784 391.835 108.831 391.602 108.924C391.368 109.008 391.163 109.134 390.986 109.302C390.808 109.461 390.668 109.657 390.566 109.89C390.463 110.123 390.407 110.38 390.398 110.66V110.702Z" fill="white"/>
<path d="M414.399 168.214C414.119 167.934 80.1261 169.03 80.4183 168.214V137.33V137.025C80.7226 137.025 414.167 137.257 414.447 137.33V168.214H414.399ZM414.399 168.214V137.33C414.545 137.415 80.6982 137.61 80.7226 137.634L81.0269 137.33V168.214C79.0913 167.447 414.971 168.457 414.447 168.214H414.399Z" fill="#C7C7C7"/>
<path d="M97.5586 149.053C135.723 148.456 178.549 148.456 216.713 149.053C178.549 149.649 135.723 149.649 97.5586 149.053Z" fill="#C7C7C7"/>
<path d="M97.5586 156.503C122.38 155.894 149.698 155.894 174.52 156.503C149.698 157.099 122.38 157.099 97.5586 156.503Z" fill="#C7C7C7"/>
<path d="M330.134 148.055H261.731V157.501H330.134V148.055Z" fill="#EBEBEB"/>
<path d="M327.675 150.1H263.751V155.359H327.675V150.1Z" fill="#00B386"/>
<path d="M399.377 146.131H364.134V159.303H399.377V146.131Z" fill="#00B386"/>
<path d="M414.399 211.284C414.119 211.004 80.1261 212.087 80.4183 211.284V180.4V180.095C80.7226 180.095 414.167 180.327 414.447 180.4V211.284H414.399ZM414.399 211.284V180.4C414.545 180.473 80.6982 180.68 80.7226 180.704L81.0269 180.4V211.284C79.0913 210.517 414.971 211.527 414.447 211.284H414.399Z" fill="#C7C7C7"/>
<path d="M97.5586 192.098C135.723 191.502 178.549 191.502 216.713 192.098C178.549 192.695 135.723 192.695 97.5586 192.098Z" fill="#C7C7C7"/>
<path d="M97.5586 199.549C122.38 198.952 149.698 198.94 174.52 199.549C149.698 200.157 122.38 200.145 97.5586 199.549Z" fill="#C7C7C7"/>
<path d="M330.134 191.1H261.731V200.547H330.134V191.1Z" fill="#EBEBEB"/>
<path d="M308.258 193.145H263.751V198.404H308.258V193.145Z" fill="#00B386"/>
<path d="M399.377 189.189H364.134V202.361H399.377V189.189Z" fill="#00B386"/>
<path d="M414.399 254.317C414.119 254.037 80.1261 255.133 80.4183 254.317V223.433V223.128C80.7226 223.128 414.167 223.36 414.447 223.433V254.317H414.399ZM414.399 254.317L414.326 223.457C414.472 223.53 80.6252 223.737 80.6496 223.761L80.9539 223.457V254.341C79.0183 253.574 414.898 254.585 414.374 254.341L414.399 254.317Z" fill="#C7C7C7"/>
<path d="M97.5586 235.156C135.723 234.56 178.549 234.547 216.713 235.156C178.549 235.753 135.723 235.74 97.5586 235.156Z" fill="#C7C7C7"/>
<path d="M97.5586 242.594C122.38 241.997 149.698 241.997 174.52 242.594C149.698 243.203 122.38 243.203 97.5586 242.594Z" fill="#C7C7C7"/>
<path d="M330.134 234.146H261.731V243.592H330.134V234.146Z" fill="#EBEBEB"/>
<path d="M272.285 236.191H263.751V241.45H272.285V236.191Z" fill="#00B386"/>
<path d="M399.377 232.234H364.134V245.406H399.377V232.234Z" fill="#00B386"/>
<path d="M414.399 297.363C414.119 297.083 80.1261 298.179 80.4183 297.363V266.491V266.187C80.7226 266.187 414.167 266.406 414.447 266.491V297.363H414.399ZM414.399 297.363V266.491C414.545 266.564 80.6982 266.759 80.7226 266.783L81.0269 266.491V297.363C79.0913 296.596 414.971 297.606 414.447 297.363H414.399Z" fill="#C7C7C7"/>
<path d="M97.5586 278.238C135.723 277.641 178.549 277.641 216.713 278.238C178.549 278.834 135.723 278.834 97.5586 278.238Z" fill="#C7C7C7"/>
<path d="M97.5586 285.652C122.38 285.055 149.698 285.043 174.52 285.652C149.698 286.248 122.38 286.248 97.5586 285.652Z" fill="#C7C7C7"/>
<path d="M330.134 277.203H261.731V286.65H330.134V277.203Z" fill="#EBEBEB"/>
<path d="M276.789 279.249H263.751V284.508H276.789V279.249Z" fill="#00B386"/>
<path d="M399.377 275.292H364.134V288.464H399.377V275.292Z" fill="#00B386"/>
<path d="M492.589 431.381C492.589 431.381 492.455 487.075 492.455 487.111C492.139 497.398 491.688 506.406 491.007 511.057C491.012 511.081 491.012 511.106 491.007 511.13C490.964 512.231 490.673 513.309 490.155 514.283V514.343C487.026 516.328 404.745 516.182 401.872 515.22C398.999 514.258 401.544 505.992 404.745 503.448C407.947 500.904 439.488 486.868 439.488 486.868L440.121 431.223L492.589 431.381Z" fill="#AD6359"/>
<path d="M492.857 476.07C492.857 476.07 492.455 487.026 492.455 487.111C492.139 497.398 491.688 506.406 491.007 511.056C491.012 511.08 491.012 511.105 491.007 511.129C490.844 512.209 490.558 513.267 490.155 514.282V514.343C487.026 516.328 404.745 516.181 401.872 515.22C398.999 514.258 401.544 505.992 404.745 503.448C407.947 500.904 439.488 486.868 439.488 486.868L439.732 475.668L492.857 476.07Z" fill="white"/>
<path d="M434.376 486.758C439.878 486.016 446.549 487.172 450.469 491.263C450.627 491.421 450.396 491.64 450.225 491.579C445.113 489.643 439.807 488.259 434.4 487.452C434.318 487.44 434.243 487.4 434.189 487.338C434.134 487.277 434.102 487.198 434.099 487.116C434.096 487.033 434.122 486.952 434.173 486.887C434.223 486.822 434.295 486.776 434.376 486.758Z" fill="#263238"/>
<path d="M430.322 488.937C435.824 488.195 442.495 489.351 446.427 493.441C446.573 493.6 446.354 493.819 446.172 493.758C441.059 491.822 435.753 490.438 430.346 489.631C430.264 489.619 430.19 489.579 430.135 489.517C430.08 489.456 430.048 489.377 430.045 489.294C430.042 489.212 430.068 489.131 430.119 489.066C430.169 489 430.241 488.955 430.322 488.937Z" fill="#263238"/>
<path d="M426.268 491.116C431.77 490.374 438.441 491.53 442.374 495.621C442.532 495.779 442.3 495.998 442.13 495.937C437.017 494.001 431.712 492.618 426.304 491.81C426.222 491.8 426.147 491.761 426.09 491.7C426.034 491.64 426.001 491.561 425.996 491.479C425.992 491.396 426.017 491.314 426.066 491.248C426.116 491.182 426.187 491.135 426.268 491.116Z" fill="#263238"/>
<path d="M401.799 515.22C404.672 516.194 487.014 516.328 490.082 514.343C491.299 513.613 492.005 501.622 492.455 487.111C492.455 486.965 492.455 486.807 492.455 486.661L439.379 485.979V486.88C439.379 486.88 407.886 500.916 404.672 503.448C401.458 505.98 398.926 514.258 401.799 515.22Z" fill="#37474F"/>
<path d="M492.48 486.649V487.123C492.017 501.622 491.262 513.613 490.106 514.343C488.682 515.244 470.835 515.707 451.565 515.865C428.496 516.035 403.394 515.755 401.824 515.22C398.951 514.258 401.519 505.992 404.696 503.448C407.874 500.904 439.428 486.88 439.428 486.88V485.979L457.14 486.21L492.48 486.649Z" fill="#00B386"/>
<path d="M402.737 512.03C416.602 511.714 472.576 511.738 486.308 512.481C486.429 512.481 486.429 512.566 486.308 512.566C472.576 513.187 416.602 512.7 402.737 512.262C402.444 512.249 402.444 512.03 402.737 512.03Z" fill="#263238"/>
<path opacity="0.1" d="M457.091 486.21C455.545 495.06 453.208 508.123 451.54 515.865C428.471 516.035 403.37 515.755 401.799 515.22C398.926 514.258 401.495 505.992 404.672 503.448C407.849 500.904 439.403 486.88 439.403 486.88V485.979L457.091 486.21Z" fill="black"/>
<path d="M497.106 487.83L437.601 486.746C437.601 486.746 437.127 384.05 437.76 351.742C438.49 314.832 443.64 204.199 443.64 204.199L488.122 205.416C488.122 205.416 496.972 231.321 496.059 247.256C495.791 251.87 492.699 258.553 491.335 263.459L484.214 354.931L497.106 487.83Z" fill="#37474F"/>
<path d="M492.991 477.287C491.423 477.031 489.842 476.861 488.256 476.776C486.503 476.605 484.75 476.423 482.997 476.301C479.612 476.07 476.228 475.912 472.844 475.802C466.014 475.595 459.173 475.449 452.344 475.473C448.46 475.473 444.565 475.546 440.681 475.656C440.649 475.656 440.618 475.669 440.595 475.692C440.572 475.714 440.56 475.745 440.56 475.778C440.56 475.81 440.572 475.841 440.595 475.864C440.618 475.887 440.649 475.899 440.681 475.899C447.45 476.338 454.218 476.63 460.987 476.946C467.755 477.263 474.536 477.579 481.292 477.64C483.24 477.64 485.188 477.64 487.123 477.64C489.059 477.64 491.055 477.75 492.954 477.531C493.064 477.494 493.125 477.312 492.991 477.287Z" fill="#263238"/>
<path d="M443.786 420.498C443.542 404.465 443.567 384.598 443.579 368.566C443.579 336.476 444.232 304.419 445.539 272.395C446.269 254.415 447.243 236.447 448.278 218.478C448.278 218.272 447.973 218.272 447.961 218.478C445.368 250.617 443.822 282.864 442.897 315.087C441.972 347.311 441.68 383.077 442.349 415.154C442.739 433.146 443.214 453.074 444.419 471.042C444.419 471.075 444.432 471.106 444.454 471.129C444.477 471.151 444.508 471.164 444.54 471.164C444.573 471.164 444.604 471.151 444.627 471.129C444.649 471.106 444.662 471.075 444.662 471.042C444.382 454.754 444.041 436.701 443.786 420.498Z" fill="#263238"/>
<path d="M428.8 433.012C428.8 433.012 426.864 486.795 426.864 486.831C426.548 497.118 426.085 506.126 425.416 510.765C425.421 510.789 425.421 510.814 425.416 510.838C425.375 511.945 425.08 513.028 424.551 514.003L424.491 514.064C421.362 516.036 339.081 515.902 336.22 514.928C333.36 513.954 335.892 505.712 339.093 503.168C342.295 500.624 373.824 486.588 373.824 486.588L376.259 432.854L428.8 433.012Z" fill="#AD6359"/>
<path d="M427.266 475.79C427.266 475.79 426.864 486.746 426.864 486.831C426.548 497.118 426.085 506.126 425.416 510.764C425.421 510.788 425.421 510.813 425.416 510.837C425.25 511.922 424.96 512.984 424.551 514.003L424.491 514.063C421.362 516.036 339.081 515.902 336.22 514.928C333.36 513.954 335.892 505.712 339.093 503.168C342.295 500.624 373.824 486.588 373.824 486.588L374.08 475.376L427.266 475.79Z" fill="white"/>
<path d="M368.772 486.478C374.275 485.736 380.946 486.892 384.878 490.982C385.024 491.141 384.805 491.36 384.622 491.287C379.509 489.354 374.204 487.975 368.797 487.172C368.715 487.16 368.64 487.12 368.585 487.058C368.53 486.997 368.499 486.918 368.496 486.835C368.493 486.753 368.519 486.672 368.57 486.607C368.62 486.541 368.692 486.496 368.772 486.478Z" fill="#263238"/>
<path d="M364.719 488.657C370.221 487.903 376.892 489.071 380.824 493.162C380.982 493.32 380.751 493.539 380.581 493.466C375.468 491.533 370.162 490.154 364.755 489.351C364.673 489.341 364.597 489.302 364.541 489.241C364.485 489.181 364.451 489.102 364.447 489.02C364.443 488.937 364.467 488.856 364.517 488.789C364.567 488.723 364.638 488.676 364.719 488.657Z" fill="#263238"/>
<path d="M360.677 490.836C366.167 490.081 372.851 491.25 376.77 495.34C376.929 495.499 376.697 495.718 376.527 495.645C371.414 493.712 366.108 492.333 360.701 491.53C360.62 491.518 360.545 491.478 360.49 491.416C360.435 491.355 360.403 491.276 360.4 491.193C360.398 491.111 360.424 491.03 360.474 490.965C360.525 490.899 360.596 490.854 360.677 490.836Z" fill="#263238"/>
<path d="M336.208 514.928C339.081 515.902 421.35 516.048 424.478 514.064C425.696 513.321 426.402 501.342 426.913 486.831V486.405L373.837 485.724V486.624C373.837 486.624 342.319 500.661 339.106 503.205C335.892 505.749 333.335 513.978 336.208 514.928Z" fill="#00B386"/>
<path d="M337.146 511.751C351.011 511.434 406.985 511.458 420.717 512.201C420.826 512.201 420.826 512.274 420.717 512.286C406.973 512.895 351.011 512.42 337.133 511.97C336.841 511.97 336.841 511.751 337.146 511.751Z" fill="#263238"/>
<path d="M460.743 261.658C460.743 261.658 434.205 337.913 433.377 352.046C432.671 364.086 430.797 487.83 430.797 487.83L372.644 486.491C372.644 486.491 381.883 358.669 383.198 346.142C385.255 326.397 395.944 281.537 410.065 233.062C412.707 223.993 421.289 203.578 421.289 203.578L486.746 205.392C486.746 205.392 485.334 235.461 471.042 256.837C471.042 256.837 464.773 259.54 460.743 261.658Z" fill="#37474F"/>
<path d="M427.838 476.667C421.326 476.326 414.569 475.961 408.044 475.924C401.519 475.887 395.079 475.802 388.567 475.924C384.914 476.009 381.262 476.021 377.61 476.24C377.586 476.24 377.563 476.25 377.546 476.267C377.529 476.284 377.519 476.308 377.519 476.332C377.519 476.356 377.529 476.379 377.546 476.396C377.563 476.414 377.586 476.423 377.61 476.423C384.111 476.934 390.66 477.056 397.185 477.178C403.71 477.3 410.126 477.421 416.663 477.336C420.315 477.336 423.967 477.227 427.619 477.093C428.009 477.129 428.228 476.667 427.838 476.667Z" fill="#263238"/>
<path d="M420.839 239.843C418.404 247.147 416.371 254.548 414.192 261.901C412.013 269.254 409.809 276.753 407.63 284.179C403.43 298.543 396.978 322.647 393.716 337.267C390.453 351.888 381.092 467.889 381.104 469.8C381.104 469.983 381.372 469.983 381.396 469.8C383.198 456.336 393.253 343.573 394.714 338.326C398.719 323.901 402.907 303.766 407.082 289.389C409.46 281.2 411.842 273.003 414.228 264.798C416.663 256.545 419.098 248.303 421.277 239.977C421.286 239.921 421.274 239.865 421.245 239.817C421.215 239.77 421.169 239.735 421.116 239.719C421.063 239.702 421.005 239.706 420.954 239.729C420.903 239.751 420.862 239.792 420.839 239.843Z" fill="#263238"/>
<path d="M445.259 257.129C448.278 257.709 451.34 258.035 454.413 258.103C457.495 258.034 460.57 257.807 463.628 257.421C466.574 257.33 469.522 257.428 472.454 257.714C475.437 257.871 478.427 257.593 481.329 256.886C481.463 256.886 481.536 257.056 481.402 257.093C478.55 257.963 475.63 258.594 472.673 258.98C469.618 259.32 466.587 258.846 463.531 258.98C460.412 259.273 457.277 259.367 454.145 259.26C451.083 259.039 448.066 258.387 445.186 257.324C445.064 257.287 445.137 257.117 445.259 257.129Z" fill="#263238"/>
<path d="M439.951 323.548C440.645 321.199 441.302 318.849 442.02 316.5C443.493 311.776 444.979 307.041 446.586 302.366C449.799 293.053 452.831 283.68 456.203 274.428C458.126 269.181 459.855 263.861 462.07 258.724C462.08 258.697 462.1 258.674 462.126 258.662C462.153 258.649 462.183 258.647 462.21 258.657C462.238 258.667 462.26 258.687 462.273 258.713C462.285 258.74 462.287 258.77 462.277 258.797C461.06 263.667 459.502 268.305 458.041 273.04C456.58 277.776 455.046 282.487 453.5 287.198C450.432 296.547 447.413 305.921 444.078 315.197C443.153 317.802 442.191 320.391 441.193 322.964C440.158 325.593 439.342 328.32 438.125 330.877C438.113 330.905 438.092 330.927 438.064 330.94C438.036 330.953 438.005 330.955 437.976 330.946C437.947 330.937 437.922 330.917 437.907 330.891C437.892 330.864 437.887 330.833 437.894 330.803C438.405 328.332 439.245 325.946 439.951 323.548Z" fill="#263238"/>
<path d="M459.197 244.639C459.623 240.598 460.975 227.828 461.206 225.478C461.316 224.261 461.79 217.517 461.34 217.456C458.91 217.26 456.471 217.215 454.036 217.322C451.65 217.322 449.26 217.237 446.866 217.066C441.996 216.799 437.179 216.34 432.416 215.691C432.347 215.676 432.275 215.675 432.206 215.689C432.137 215.703 432.071 215.732 432.013 215.772C431.956 215.813 431.907 215.865 431.87 215.926C431.834 215.986 431.81 216.053 431.801 216.123C431.792 216.193 431.797 216.265 431.816 216.332C431.836 216.4 431.87 216.463 431.915 216.518C431.96 216.572 432.016 216.616 432.079 216.648C432.142 216.679 432.211 216.698 432.282 216.701C437.151 217.415 442.02 217.943 446.89 218.284C449.264 218.454 458.491 218.929 460.634 218.698C460.634 219.659 459.989 223.214 459.891 224.017C458.87 224.032 457.85 224.101 456.836 224.224C455.708 224.297 454.575 224.346 453.439 224.37C451.094 224.435 448.736 224.411 446.366 224.297C441.812 224.09 437.275 223.602 432.781 222.837C432.635 222.837 432.623 223.007 432.781 223.044C437.337 224.087 441.977 224.727 446.646 224.955C448.854 225.052 451.045 225.052 453.22 224.955C454.437 224.955 455.655 224.857 456.787 224.772C457.816 224.736 458.841 224.626 459.855 224.443C459.855 224.602 459.855 224.76 459.794 224.918C459.514 227.146 458.041 240.281 457.53 244.615C455.095 245.723 443.25 251.177 441.85 250.422C439.208 248.985 430.139 242.923 427.485 241.426C427.863 237.53 428.362 233.659 429.019 229.812C429.36 227.828 429.737 225.856 430.151 223.883C430.689 221.888 431.063 219.853 431.271 217.797C431.271 217.626 431.016 217.492 430.894 217.651L430.711 217.894C430.7 217.914 430.693 217.938 430.693 217.961C430.693 217.985 430.7 218.008 430.711 218.028C429.935 219.772 429.34 221.592 428.934 223.457C428.423 225.466 427.972 227.487 427.558 229.544C426.747 233.602 426.118 237.66 425.671 241.718C425.652 241.856 425.672 241.998 425.73 242.125C425.789 242.252 425.882 242.36 426 242.436C429.981 244.773 440.925 251.822 441.923 252.004C443.859 252.345 458.321 246.088 458.698 245.82C459.076 245.552 459.149 245.151 459.197 244.639Z" fill="#263238"/>
<path d="M476.021 241.547C475.692 238.065 474.658 227.073 474.487 225.052C474.402 224.054 473.988 218.223 474.256 218.198C475.655 218.185 477.053 218.299 478.431 218.539C479.783 218.661 481.146 218.734 482.51 218.77C485.252 218.84 487.995 218.75 490.727 218.503C491.141 218.503 491.238 219.33 490.824 219.379C488.059 219.675 485.279 219.817 482.497 219.805C479.88 219.797 477.266 219.626 474.67 219.294C474.67 220.122 475.12 223.189 475.193 223.883C475.785 223.964 476.371 224.086 476.946 224.248C477.591 224.382 478.237 224.492 478.882 224.589C480.233 224.784 481.572 224.906 482.911 224.967C485.495 225.077 488.083 224.943 490.642 224.565C490.727 224.565 490.739 224.723 490.642 224.735C488.063 225.348 485.414 225.61 482.765 225.515C481.51 225.455 480.258 225.329 479.016 225.137C478.346 225.028 477.665 224.894 476.983 224.748C476.383 224.658 475.795 224.503 475.23 224.285V224.687C475.437 226.61 476.545 237.919 476.922 241.644C478.322 242.752 485.2 248.145 485.979 247.585C487.464 246.526 492.516 241.912 494.001 240.804C493.709 237.457 493.344 234.109 492.894 230.786C492.662 229.069 492.407 227.365 492.127 225.661C491.779 223.927 491.527 222.175 491.372 220.414C491.372 220.268 491.506 220.17 491.579 220.316L491.688 220.536C491.7 220.571 491.7 220.61 491.688 220.645C492.155 222.181 492.517 223.747 492.772 225.332C493.101 227.073 493.405 228.814 493.673 230.579C494.216 234.085 494.659 237.607 495 241.145C495.016 241.249 495.009 241.355 494.979 241.456C494.95 241.557 494.899 241.651 494.829 241.73C492.601 243.47 486.503 248.802 485.93 248.9C484.835 249.082 476.459 242.813 476.192 242.582C476.018 242.267 475.958 241.901 476.021 241.547Z" fill="#263238"/>
<path d="M469.788 233.585C469.691 227.56 469.545 221.521 469.167 215.496C468.948 212.038 468.693 208.569 468.352 205.112C468.352 204.99 468.145 204.978 468.145 205.112C468.437 211.198 468.717 217.285 468.936 223.372C469.155 229.459 469.167 235.424 469.228 241.45C469.228 244.919 469.228 248.388 469.314 251.858C469.314 251.992 469.508 251.992 469.508 251.858C469.849 245.747 469.886 239.672 469.788 233.585Z" fill="#263238"/>
<path d="M453.792 133.118C453.731 134.42 449.349 143.648 443.603 144.488C441.74 144.756 439.817 134.603 439.817 134.603L439.513 133.885L435.142 123.854L445.94 113.567L447.511 112.179C447.511 112.179 448.533 115.003 449.751 118.534L449.933 119.033C450.006 119.228 450.079 119.422 450.14 119.605C450.335 120.129 450.518 120.664 450.7 121.212C450.883 121.76 450.98 122.015 451.102 122.429C451.224 122.843 451.382 123.281 451.516 123.72C452.486 126.797 453.246 129.937 453.792 133.118Z" fill="#AD6359"/>
<path d="M449.751 118.534C449.263 121.683 448.094 124.688 446.326 127.339C444.558 129.991 442.233 132.224 439.513 133.885L435.142 123.854L445.94 113.567L447.511 112.179C447.511 112.179 448.533 115.003 449.751 118.534Z" fill="#263238"/>
<path d="M442.873 91.7033C442.978 92.0903 442.952 92.5015 442.797 92.8718C442.643 93.242 442.369 93.5501 442.02 93.7472C441.67 93.9443 441.265 94.0191 440.868 93.9598C440.471 93.9005 440.106 93.7104 439.829 93.4197C439.702 93.641 439.537 93.8387 439.342 94.0041C438.954 94.3085 438.467 94.4583 437.974 94.4246C437.482 94.3909 437.02 94.176 436.676 93.8215C436.569 94.0076 436.429 94.1726 436.262 94.3084C435.886 94.6046 435.409 94.7412 434.933 94.6888C434.457 94.6365 434.021 94.3993 433.718 94.0284C433.47 93.7029 433.333 93.3058 433.329 92.8963C432.951 93.1543 432.489 93.2589 432.037 93.1888C431.584 93.1187 431.176 92.8792 430.894 92.5189C430.739 92.3166 430.627 92.0845 430.565 91.8372L430.443 91.9468C430.145 92.1862 429.779 92.3246 429.397 92.3419C429.015 92.3592 428.637 92.2546 428.319 92.0431C428 91.8317 427.757 91.5243 427.625 91.1656C427.493 90.8069 427.478 90.4154 427.583 90.0477C427.215 90.2318 426.796 90.284 426.395 90.1953C425.993 90.1066 425.635 89.8826 425.379 89.5607C425.178 89.3113 425.048 89.0122 425.003 88.6951C424.958 88.3779 425 88.0545 425.124 87.7591C424.712 87.6603 424.341 87.4346 424.065 87.1139C423.902 86.9081 423.782 86.6715 423.713 86.4184C423.644 86.1652 423.627 85.9008 423.663 85.6409C423.32 85.6025 422.993 85.4754 422.715 85.2722C422.436 85.069 422.215 84.7966 422.074 84.482C421.932 84.1674 421.876 83.8215 421.909 83.4782C421.942 83.1349 422.064 82.8062 422.263 82.5245C422.055 82.413 421.873 82.2596 421.727 82.074C421.437 81.7282 421.288 81.2862 421.308 80.8353C421.328 80.3845 421.517 79.9577 421.837 79.6393C421.572 79.5146 421.339 79.3315 421.155 79.1037C420.99 78.9002 420.867 78.6662 420.793 78.4151C420.72 78.1639 420.696 77.9006 420.724 77.6404C420.753 77.3801 420.832 77.128 420.958 76.8986C421.084 76.6692 421.255 76.4671 421.459 76.3038C421.629 76.1672 421.823 76.0639 422.032 75.9994C421.946 75.9347 421.872 75.8566 421.812 75.7681C421.514 75.3952 421.376 74.919 421.428 74.4441C421.481 73.9693 421.72 73.5347 422.092 73.2361C422.355 73.0344 422.665 72.9043 422.993 72.8587C422.721 72.4479 422.613 71.9502 422.69 71.4636C422.766 70.9769 423.022 70.5366 423.407 70.2292C423.697 69.9971 424.048 69.8534 424.418 69.8153C424.304 69.4796 424.283 69.1195 424.357 68.7729C424.431 68.4263 424.596 68.1059 424.837 67.8456C425.077 67.5852 425.383 67.3945 425.723 67.2934C426.063 67.1922 426.423 67.1845 426.767 67.271C426.781 67.0207 426.847 66.7762 426.963 66.5537C427.078 66.3312 427.24 66.1359 427.437 65.9806C427.635 65.823 427.864 65.7091 428.11 65.6461C428.355 65.5832 428.611 65.5727 428.861 65.6154C428.849 65.3097 428.91 65.0055 429.039 64.7282C429.168 64.4508 429.362 64.2083 429.603 64.0207C429.931 63.7554 430.335 63.6026 430.756 63.5851C431.177 63.5675 431.593 63.6861 431.941 63.9233C432.056 63.6582 432.234 63.425 432.459 63.2437C432.684 63.0623 432.95 62.9382 433.234 62.882C433.517 62.8258 433.81 62.8391 434.087 62.9208C434.365 63.0025 434.618 63.1502 434.826 63.3512C434.951 63.0898 435.134 62.8607 435.362 62.6816C435.773 62.354 436.298 62.2033 436.821 62.2627C437.344 62.322 437.822 62.5866 438.149 62.9981C438.247 63.1149 438.325 63.2464 438.381 63.3877C438.456 63.3087 438.538 63.2354 438.624 63.1686C438.827 63.0067 439.06 62.8864 439.309 62.8147C439.559 62.743 439.82 62.7212 440.078 62.7506C440.335 62.78 440.585 62.8601 440.812 62.9861C441.039 63.1121 441.238 63.2817 441.4 63.4851C441.508 63.6121 441.594 63.7561 441.655 63.9111C441.758 63.7537 441.885 63.6139 442.033 63.4972C442.446 63.1689 442.973 63.0179 443.498 63.0773C444.023 63.1366 444.503 63.4014 444.833 63.8138C445.002 64.0231 445.127 64.2653 445.198 64.5251C445.269 64.7849 445.286 65.0567 445.246 65.3233C445.585 65.2754 445.93 65.3165 446.248 65.4424C446.566 65.5683 446.846 65.7748 447.06 66.0415C447.375 66.4417 447.527 66.946 447.486 67.4536C447.81 67.3003 448.172 67.2476 448.526 67.3022C448.88 67.3569 449.209 67.5165 449.471 67.7604C449.734 68.0042 449.917 68.3211 449.997 68.6701C450.077 69.0191 450.051 69.3841 449.921 69.7179C450.241 69.7254 450.553 69.818 450.825 69.9862C451.098 70.1543 451.32 70.3919 451.47 70.6745C451.62 70.9571 451.692 71.2746 451.679 71.5943C451.665 71.914 451.567 72.2243 451.394 72.4935C451.67 72.505 451.94 72.5763 452.186 72.7024C452.432 72.8285 452.648 73.0064 452.818 73.2239C453.107 73.578 453.265 74.0209 453.265 74.4778C453.265 74.9346 453.107 75.3775 452.818 75.7316C453.006 75.846 453.175 75.9899 453.317 76.1577C453.465 76.3431 453.574 76.5557 453.639 76.7833C453.704 77.0109 453.723 77.2491 453.696 77.4843C453.669 77.7194 453.596 77.9469 453.481 78.1538C453.366 78.3606 453.211 78.5428 453.025 78.6898C452.858 78.8308 452.663 78.9346 452.453 78.9941L452.538 79.0793C452.864 79.4942 453.013 80.0203 452.953 80.5441C452.894 81.0679 452.631 81.5474 452.222 81.8792C452.071 81.9977 451.903 82.0922 451.723 82.1592C451.855 82.2568 451.974 82.3714 452.076 82.5001C452.369 82.8738 452.503 83.3482 452.448 83.8202C452.394 84.2921 452.155 84.7234 451.784 85.02C451.598 85.1716 451.384 85.2834 451.153 85.3483C450.923 85.4132 450.682 85.4299 450.445 85.3974C450.505 85.7152 450.476 86.0433 450.362 86.346C450.249 86.6487 450.054 86.9143 449.799 87.1139C449.431 87.4054 448.965 87.5448 448.497 87.5034C448.655 87.8916 448.687 88.32 448.586 88.7271C448.486 89.1342 448.26 89.4992 447.939 89.7696C447.619 90.04 447.221 90.2019 446.803 90.2322C446.385 90.2625 445.968 90.1595 445.612 89.9381C445.65 90.2663 445.597 90.5988 445.459 90.899C445.321 91.1993 445.103 91.4558 444.829 91.6406C444.555 91.8253 444.236 91.9312 443.906 91.9465C443.576 91.9619 443.248 91.8861 442.958 91.7276L442.873 91.7033Z" fill="#263238"/>
<path d="M468.084 115.563C468.187 115.903 468.185 116.266 468.079 116.605C467.973 116.944 467.766 117.243 467.487 117.462C467.133 117.743 466.686 117.88 466.234 117.846C465.783 117.813 465.362 117.61 465.053 117.28C464.933 117.506 464.767 117.705 464.566 117.864C464.179 118.171 463.691 118.323 463.197 118.289C462.704 118.255 462.242 118.039 461.9 117.682C461.8 117.873 461.658 118.039 461.486 118.168C461.222 118.384 460.902 118.52 460.563 118.56C460.225 118.6 459.882 118.542 459.575 118.394C459.268 118.246 459.01 118.013 458.831 117.723C458.652 117.432 458.559 117.097 458.564 116.756C458.187 117.017 457.725 117.124 457.272 117.053C456.819 116.983 456.41 116.742 456.13 116.379C455.97 116.179 455.858 115.946 455.801 115.697L455.667 115.807C455.483 115.954 455.271 116.063 455.044 116.127C454.818 116.192 454.58 116.212 454.346 116.184C454.112 116.157 453.886 116.084 453.68 115.969C453.474 115.854 453.293 115.7 453.147 115.515C452.966 115.293 452.842 115.032 452.785 114.752C452.727 114.472 452.739 114.182 452.818 113.908C452.452 114.094 452.031 114.148 451.629 114.059C451.228 113.97 450.869 113.744 450.615 113.421C450.414 113.171 450.284 112.873 450.237 112.556C450.19 112.24 450.228 111.916 450.347 111.619C449.91 111.513 449.52 111.264 449.239 110.913C449.071 110.71 448.948 110.474 448.876 110.22C448.805 109.967 448.788 109.701 448.825 109.44C448.305 109.379 447.829 109.117 447.499 108.71C447.217 108.369 447.058 107.944 447.047 107.503C447.036 107.061 447.174 106.629 447.438 106.275C447.226 106.164 447.04 106.01 446.89 105.824C446.6 105.479 446.45 105.037 446.471 104.586C446.491 104.135 446.68 103.708 446.999 103.39C446.737 103.262 446.504 103.079 446.318 102.854C445.989 102.444 445.836 101.92 445.893 101.397C445.95 100.875 446.212 100.396 446.622 100.066C446.792 99.9267 446.986 99.8194 447.194 99.7499C447.112 99.6817 447.039 99.6041 446.975 99.5186C446.828 99.3349 446.718 99.124 446.652 98.8978C446.586 98.6716 446.566 98.4346 446.592 98.2005C446.618 97.9664 446.69 97.7397 446.804 97.5335C446.917 97.3272 447.071 97.1455 447.255 96.9987C447.513 96.7889 447.826 96.6579 448.156 96.6213C447.885 96.2072 447.778 95.7066 447.857 95.2179C447.936 94.7291 448.194 94.2875 448.582 93.9797C448.869 93.7503 449.215 93.6068 449.58 93.5658C449.454 93.1818 449.449 92.7687 449.564 92.3814C449.679 91.9942 449.91 91.6514 450.225 91.3989C450.461 91.2077 450.737 91.0741 451.033 91.0086C451.329 90.9431 451.636 90.9475 451.93 91.0215C451.945 90.77 452.013 90.5245 452.129 90.301C452.246 90.0776 452.408 89.8814 452.606 89.7251C452.804 89.5688 453.032 89.456 453.276 89.3941C453.521 89.3322 453.775 89.3226 454.024 89.3659C454.017 89.0041 454.109 88.6472 454.29 88.334C454.471 88.0208 454.735 87.7631 455.052 87.5888C455.369 87.4146 455.728 87.3304 456.09 87.3453C456.451 87.3603 456.802 87.4739 457.103 87.6738C457.224 87.4095 457.403 87.1763 457.627 86.9921C457.969 86.7192 458.398 86.5798 458.834 86.6C459.271 86.6202 459.686 86.7984 460.001 87.1016C460.126 86.8403 460.309 86.6112 460.536 86.4321C460.739 86.2702 460.972 86.15 461.221 86.0782C461.471 86.0065 461.732 85.9848 461.99 86.0142C462.248 86.0436 462.497 86.1236 462.724 86.2496C462.951 86.3756 463.151 86.5452 463.312 86.7486C463.409 86.868 463.49 86.9989 463.555 87.1381L463.787 86.919C464.198 86.5914 464.723 86.4407 465.246 86.5001C465.769 86.5594 466.247 86.824 466.574 87.2355C466.678 87.3657 466.764 87.5089 466.83 87.6616C466.929 87.5013 467.057 87.3609 467.207 87.2477C467.518 87.0005 467.895 86.8519 468.291 86.8214C468.686 86.7908 469.082 86.8795 469.427 87.0761C469.772 87.2727 470.049 87.5681 470.225 87.9242C470.4 88.2803 470.464 88.6807 470.409 89.0737C470.748 89.0246 471.094 89.0651 471.412 89.1911C471.73 89.3171 472.01 89.5243 472.223 89.792C472.384 89.9874 472.505 90.2129 472.578 90.4553C472.651 90.6977 472.675 90.9522 472.649 91.2041C472.973 91.0573 473.333 91.0094 473.683 91.0666C474.034 91.1238 474.36 91.2835 474.62 91.5255C474.881 91.7675 475.063 92.0811 475.146 92.4268C475.228 92.7726 475.207 93.1349 475.084 93.4684C475.404 93.4759 475.716 93.5685 475.988 93.7366C476.26 93.9048 476.483 94.1423 476.633 94.425C476.783 94.7076 476.855 95.0251 476.841 95.3448C476.828 95.6644 476.73 95.9748 476.557 96.2439C476.832 96.2586 477.101 96.3312 477.347 96.4571C477.592 96.583 477.808 96.7592 477.981 96.9743C478.27 97.3284 478.427 97.7713 478.427 98.2282C478.427 98.6851 478.27 99.128 477.981 99.4821C478.169 99.5965 478.338 99.7404 478.48 99.9082C478.627 100.094 478.736 100.306 478.801 100.534C478.866 100.761 478.886 101 478.859 101.235C478.832 101.47 478.758 101.697 478.643 101.904C478.528 102.111 478.373 102.293 478.188 102.44C478.024 102.579 477.833 102.682 477.628 102.745L477.701 102.83C478.029 103.243 478.18 103.77 478.121 104.295C478.062 104.82 477.797 105.3 477.385 105.63C477.234 105.753 477.066 105.851 476.885 105.922C477.023 106.008 477.142 106.12 477.238 106.251C477.386 106.434 477.496 106.645 477.561 106.871C477.627 107.098 477.648 107.335 477.622 107.569C477.596 107.803 477.524 108.029 477.41 108.236C477.296 108.442 477.143 108.624 476.958 108.77C476.772 108.921 476.558 109.032 476.328 109.099C476.098 109.166 475.857 109.187 475.619 109.16C475.666 109.434 475.648 109.715 475.568 109.98C475.489 110.246 475.348 110.49 475.158 110.693C474.969 110.896 474.735 111.052 474.475 111.149C474.215 111.246 473.936 111.282 473.659 111.254C473.827 111.643 473.865 112.075 473.768 112.487C473.671 112.899 473.444 113.269 473.12 113.542C472.797 113.815 472.394 113.977 471.972 114.003C471.549 114.029 471.129 113.919 470.774 113.689C470.817 113.992 470.779 114.302 470.663 114.587C470.548 114.871 470.359 115.12 470.117 115.308C469.843 115.55 469.503 115.704 469.14 115.75C468.777 115.796 468.409 115.731 468.084 115.563Z" fill="#263238"/>
<path d="M418.733 105.374C414.533 124.742 425.684 129.417 429.871 130.306C433.682 131.121 446.732 133.398 452.916 114.565C459.1 95.7328 451.406 87.674 442.812 85.3488C434.217 83.0237 422.932 85.9697 418.733 105.374Z" fill="#AD6359"/>
<path d="M421.739 103.451C422.195 103.442 422.65 103.41 423.103 103.353C423.592 103.391 424.08 103.267 424.491 103C424.6 102.89 424.671 102.748 424.693 102.594C424.715 102.441 424.687 102.284 424.612 102.148C424.418 101.904 424.163 101.715 423.872 101.602C423.581 101.489 423.265 101.454 422.957 101.503C422.317 101.502 421.7 101.741 421.228 102.172C421.127 102.277 421.059 102.409 421.031 102.551C421.003 102.694 421.016 102.842 421.07 102.977C421.124 103.112 421.216 103.228 421.335 103.312C421.454 103.396 421.594 103.444 421.739 103.451Z" fill="#263238"/>
<path d="M434.838 105.374C434.399 105.246 433.968 105.091 433.548 104.912C433.073 104.809 432.644 104.552 432.33 104.181C432.255 104.044 432.228 103.886 432.252 103.732C432.276 103.578 432.351 103.436 432.464 103.329C432.718 103.148 433.015 103.038 433.325 103.01C433.636 102.983 433.948 103.038 434.229 103.171C434.84 103.352 435.364 103.751 435.702 104.291C435.772 104.421 435.802 104.568 435.788 104.715C435.775 104.862 435.718 105.001 435.627 105.117C435.535 105.232 435.411 105.318 435.271 105.363C435.131 105.409 434.98 105.413 434.838 105.374Z" fill="#263238"/>
<path d="M431.503 108.198C431.503 108.198 431.6 108.271 431.588 108.332C431.32 109.647 431.235 111.217 432.367 111.85C432.367 111.85 432.367 111.936 432.367 111.923C430.906 111.461 431.04 109.403 431.503 108.198Z" fill="#263238"/>
<path d="M432.927 107.005C435.106 107.2 434.546 111.51 432.537 111.339C430.529 111.169 431.113 106.835 432.927 107.005Z" fill="#263238"/>
<path d="M433.803 107.334C434.144 107.626 434.461 108.113 434.911 108.211C435.362 108.308 435.897 107.931 436.287 107.541C436.287 107.541 436.372 107.541 436.36 107.541C436.262 108.381 435.836 109.185 434.935 109.197C434.035 109.209 433.621 108.406 433.511 107.541C433.45 107.432 433.609 107.225 433.803 107.334Z" fill="#263238"/>
<path d="M424.125 106.591C424.125 106.591 424.016 106.591 424.016 106.701C423.894 108.04 423.529 109.562 422.263 109.866V109.939C423.772 109.927 424.235 107.906 424.125 106.591Z" fill="#263238"/>
<path d="M423.103 105.07C420.96 104.656 420.266 108.953 422.251 109.343C424.235 109.732 424.892 105.374 423.103 105.07Z" fill="#263238"/>
<path d="M422.153 105.216C421.776 105.386 421.374 105.751 420.936 105.715C420.498 105.678 420.193 105.155 419.962 104.656H419.889C419.731 105.471 419.889 106.372 420.632 106.652C421.374 106.932 421.971 106.287 422.299 105.508C422.385 105.374 422.312 105.143 422.153 105.216Z" fill="#263238"/>
<path d="M425.172 113.896C425.172 113.896 424.612 115.856 424.478 116.793C424.478 116.878 424.698 116.963 425.014 117.024C425.804 117.283 426.649 117.319 427.459 117.131C428.268 116.942 429.01 116.534 429.603 115.953C429.677 115.88 429.604 115.758 429.482 115.807C428.165 116.465 426.67 116.679 425.221 116.415C425.221 116.148 426.292 113.092 426.134 113.056C425.394 113.023 424.653 113.088 423.931 113.25C424.965 109.136 426.658 105.228 427.644 101.077C427.644 100.931 427.461 100.846 427.4 100.979C425.451 105.121 423.926 109.448 422.847 113.896C422.725 114.443 424.771 114.005 425.172 113.896Z" fill="#263238"/>
<path d="M425.16 116.683C425.575 117.525 426.2 118.247 426.974 118.777C427.404 119.056 427.911 119.193 428.423 119.167C429.543 119.094 429.762 118.132 429.737 117.256C429.716 116.794 429.643 116.337 429.518 115.892C428.186 116.612 426.66 116.889 425.16 116.683Z" fill="#263238"/>
<path d="M426.974 118.765C427.404 119.044 427.911 119.18 428.423 119.155C429.543 119.081 429.762 118.12 429.737 117.243C429.173 117.151 428.594 117.251 428.093 117.527C427.592 117.803 427.198 118.239 426.974 118.765Z" fill="#FF9ABB"/>
<path d="M434.071 87.7101C433.403 89.3235 433.233 91.1001 433.584 92.8108C435.021 97.4733 440.438 97.0716 441.972 99.0558C443.506 101.04 442.349 104.193 443.64 106.031C445.417 108.576 448.399 108.113 448.509 109.683C448.619 111.254 448.935 116.184 450.773 117.073C452.611 117.961 466.002 87.2475 440.815 84.6546C440.815 84.6546 437.589 82.7555 431.868 84.6546C425.55 86.7849 421.593 96.1342 421.593 96.1342L422.701 95.3916C424.065 94.4908 424.673 93.5656 425.659 92.9569C427.205 92.0682 427.911 92.5917 429.518 91.7396C431.269 90.6856 432.812 89.3199 434.071 87.7101Z" fill="#263238"/>
<path d="M434.656 86.3711C434.083 87.5631 433.65 88.8171 433.365 90.1084C433.018 91.3589 433.018 92.6803 433.365 93.9308C433.864 95.094 434.768 96.0368 435.909 96.5847C437.042 97.1934 438.344 97.5099 439.561 98.2159C440.188 98.5687 440.706 99.0866 441.059 99.7133C441.345 100.358 441.502 101.053 441.521 101.758C441.474 103.033 441.777 104.296 442.398 105.41C442.752 105.939 443.218 106.383 443.763 106.711C444.308 107.04 444.918 107.244 445.551 107.31C446.768 107.492 448.266 107.31 449.41 108.076C448.192 107.443 446.853 107.711 445.526 107.614C444.835 107.571 444.161 107.376 443.553 107.044C442.945 106.712 442.418 106.25 442.008 105.69C441.287 104.517 440.92 103.16 440.949 101.783C440.924 101.158 440.784 100.543 440.535 99.9689C440.22 99.4567 439.775 99.0368 439.245 98.7516C438.161 98.0942 436.81 97.7533 435.666 97.0838C435.059 96.7639 434.505 96.3534 434.022 95.8664C433.511 95.3774 433.134 94.7654 432.927 94.0891C432.61 92.7519 432.669 91.3533 433.097 90.0475C433.47 88.7648 433.993 87.5308 434.656 86.3711Z" fill="#263238"/>
<path d="M434.01 87.4424C433.588 88.6137 433.011 89.7233 432.294 90.7414C431.585 91.8218 430.573 92.6687 429.384 93.1761C428.791 93.376 428.179 93.5186 427.558 93.6022C427.005 93.6946 426.489 93.9439 426.073 94.3204C425.683 94.8041 425.247 95.2485 424.771 95.6473C424.255 96.0094 423.664 96.2507 423.042 96.3534C423.61 96.1386 424.13 95.8162 424.576 95.4039C425.003 94.9756 425.383 94.5021 425.708 93.9917C426.165 93.499 426.766 93.1625 427.424 93.03C428.013 92.9371 428.591 92.7904 429.153 92.5918C430.239 92.1253 431.186 91.3875 431.904 90.4492C432.674 89.4965 433.378 88.4918 434.01 87.4424Z" fill="#263238"/>
<path d="M447.072 112.922C447.072 112.922 452.161 107.322 454.754 109.196C457.347 111.071 452.989 119.568 449.556 120.372C449.123 120.505 448.667 120.55 448.216 120.503C447.766 120.456 447.329 120.319 446.932 120.1C446.536 119.88 446.188 119.583 445.908 119.226C445.629 118.869 445.425 118.46 445.307 118.022L447.072 112.922Z" fill="#AD6359"/>
<path d="M453.439 111.607V111.692C451.005 112.337 449.544 114.31 448.412 116.403C448.574 116.19 448.78 116.015 449.016 115.889C449.253 115.763 449.514 115.69 449.781 115.675C450.049 115.66 450.316 115.703 450.565 115.802C450.814 115.9 451.039 116.051 451.224 116.245C451.285 116.245 451.224 116.379 451.151 116.367C450.763 116.185 450.329 116.128 449.908 116.204C449.487 116.281 449.1 116.486 448.801 116.793C448.306 117.306 447.866 117.869 447.486 118.473C447.352 118.668 446.999 118.473 447.109 118.29V118.229C447.462 115.308 450.262 111.461 453.439 111.607Z" fill="#263238"/>
<path d="M424.174 185.72L421.289 203.602L488.146 205.343C488.146 205.343 479.746 154.215 463.628 136.806C454.949 127.433 445.052 129.502 437.127 139.643C434.315 143.295 418.635 161.762 419.195 171.83C419.371 176.865 421.111 181.72 424.174 185.72Z" fill="#00B386"/>
<path d="M441.254 157.16C440.825 158.223 440.554 159.343 440.45 160.484C441.13 159.561 441.679 158.549 442.081 157.477C442.504 156.417 442.775 155.302 442.885 154.166C442.201 155.081 441.652 156.089 441.254 157.16ZM434.351 202.848C434.217 203.201 434.096 203.554 433.998 203.907H434.838C434.96 203.651 435.069 203.383 435.167 203.128C435.597 202.065 435.867 200.945 435.97 199.804C435.288 200.736 434.742 201.761 434.351 202.848ZM460.244 198.112C459.823 199.177 459.552 200.296 459.441 201.435C460.129 200.523 460.679 199.514 461.072 198.441C461.496 197.377 461.767 196.258 461.875 195.117C461.194 196.034 460.645 197.042 460.244 198.112ZM473.635 163.673C472.577 163.245 471.461 162.974 470.324 162.87C471.236 163.558 472.245 164.108 473.319 164.501C474.383 164.925 475.502 165.196 476.642 165.304C475.71 164.612 474.68 164.062 473.586 163.673H473.635ZM433.073 175.384C432.01 174.955 430.891 174.68 429.75 174.568C430.673 175.256 431.69 175.81 432.769 176.212C433.83 176.63 434.944 176.901 436.08 177.015C435.15 176.32 434.119 175.77 433.024 175.384H433.073ZM442.069 134.591V134.53L441.363 135.102C441.804 136.098 442.382 137.028 443.08 137.865C442.899 136.732 442.559 135.629 442.069 134.591ZM458.394 170.807C457.938 169.756 457.34 168.773 456.617 167.885C456.977 170.155 457.926 172.292 459.368 174.082C459.192 172.963 458.865 171.873 458.394 170.843V170.807ZM476.411 184.721C475.362 185.173 474.382 185.771 473.501 186.499C475.769 186.131 477.904 185.184 479.698 183.747C478.561 183.912 477.454 184.24 476.411 184.721ZM446.05 187.813C444.994 188.263 444.009 188.866 443.128 189.603C445.4 189.239 447.536 188.286 449.325 186.839C448.187 187.001 447.08 187.33 446.038 187.813H446.05ZM457.444 143.879C456.394 144.335 455.411 144.933 454.523 145.656C456.793 145.296 458.929 144.347 460.719 142.905C459.583 143.075 458.477 143.402 457.432 143.879H457.444Z" fill="white"/>
<path d="M450.846 148.115C444.674 159.071 418.148 191.1 406.303 192.95C397.66 194.301 384.257 176.589 374.884 168.993C371.95 166.619 398.719 145.778 400.898 148.736C405.938 155.541 408.336 158.304 408.823 158C411.684 156.198 425.866 146.374 440.535 136.356C452.697 128.017 458.625 134.213 450.846 148.115Z" fill="#AD6359"/>
<path d="M362.82 113.81C360.287 116.903 368.456 122.49 368.456 122.49C366.741 122.316 365.018 122.747 363.586 123.708C361.152 125.534 362.953 130.147 362.953 130.147C361.154 130.357 359.459 131.098 358.084 132.278C355.929 134.262 357.074 139.168 357.074 139.168C355.528 140.297 354.416 141.921 353.921 143.769C352.034 152.072 369.162 166.023 374.884 168.969L401.239 149.722C401.239 149.722 394.385 128.808 387.641 122.941C383.892 119.617 366.679 109.026 362.82 113.81Z" fill="#AD6359"/>
<path d="M368.59 122.417C373.54 124.722 378.188 127.624 382.431 131.06C382.442 131.077 382.447 131.097 382.447 131.117C382.446 131.136 382.439 131.156 382.427 131.172C382.415 131.187 382.399 131.199 382.38 131.206C382.361 131.212 382.341 131.212 382.322 131.206C378.073 127.944 372.838 125.741 368.456 122.685C368.42 122.667 368.393 122.636 368.381 122.598C368.368 122.561 368.371 122.52 368.389 122.484C368.407 122.449 368.438 122.422 368.476 122.409C368.513 122.396 368.554 122.399 368.59 122.417Z" fill="#263238"/>
<path d="M363.124 130.111C364.218 130.701 365.233 131.43 366.143 132.277C367.153 133.117 368.152 133.97 369.125 134.846C371.098 136.599 373.033 138.389 374.908 140.239C374.993 140.312 374.908 140.47 374.786 140.385C372.83 138.648 370.834 136.948 368.797 135.284C367.774 134.457 366.752 133.629 365.717 132.85C364.692 132.145 363.749 131.328 362.905 130.415C362.795 130.257 362.953 130.025 363.124 130.111Z" fill="#263238"/>
<path d="M357.11 139.265C358.093 139.808 358.974 140.516 359.715 141.359L362.369 143.794C364.159 145.401 365.936 147.02 367.762 148.566C367.772 148.573 367.78 148.582 367.786 148.592C367.792 148.603 367.796 148.614 367.798 148.626C367.799 148.638 367.799 148.65 367.796 148.661C367.793 148.673 367.787 148.684 367.78 148.694C367.773 148.703 367.764 148.711 367.754 148.717C367.743 148.724 367.732 148.728 367.72 148.729C367.708 148.731 367.696 148.73 367.685 148.727C367.673 148.724 367.662 148.719 367.652 148.712C365.778 147.154 363.891 145.608 362.028 144.037L359.314 141.688C358.415 141.054 357.64 140.262 357.025 139.35C357.025 139.35 357.11 139.253 357.11 139.265Z" fill="#263238"/>
<path d="M408.349 157.781C410.849 160.429 412.845 163.511 414.24 166.875C412.025 163.99 410.272 160.861 408.349 157.781Z" fill="#263238"/>
<path d="M410.065 156.016L425.197 185.464C425.197 185.464 443.274 163.478 451.978 148.675C460.682 133.872 454.413 127.566 440.17 135.09C425.927 142.613 410.065 156.016 410.065 156.016Z" fill="#00B386"/>
<path d="M420.412 159.303C419.36 159.756 418.377 160.354 417.491 161.08C418.624 160.915 419.727 160.587 420.766 160.106C421.818 159.654 422.802 159.056 423.687 158.329C422.555 158.498 421.453 158.826 420.412 159.303ZM442.069 134.591C442.008 134.457 441.947 134.323 441.874 134.189C441.619 134.299 441.363 134.42 441.095 134.566L441.254 134.944C441.707 135.999 442.309 136.983 443.043 137.865C442.874 136.733 442.546 135.631 442.069 134.591ZM433.024 175.348C431.961 174.918 430.842 174.643 429.701 174.532C430.583 175.196 431.554 175.733 432.586 176.127L433.134 175.396L433.024 175.348ZM441.254 157.087C440.825 158.15 440.554 159.27 440.45 160.411C441.13 159.488 441.679 158.476 442.081 157.404C442.504 156.344 442.775 155.229 442.885 154.093C442.195 155.03 441.645 156.064 441.254 157.16V157.087Z" fill="white"/>
<path d="M416.76 153.74C417.247 154.75 417.905 155.7 418.477 156.661C419.049 157.623 419.585 158.633 420.132 159.619C421.167 161.543 422.226 163.454 423.285 165.365C425.428 169.237 427.668 173.059 429.603 177.064C429.603 177.125 429.604 177.198 429.506 177.149C426.983 173.537 424.686 169.773 422.628 165.877C421.557 163.929 420.514 161.965 419.499 159.985C418.976 158.986 418.477 157.964 418.002 156.929C417.527 155.894 417.138 154.799 416.614 153.813C416.541 153.727 416.675 153.654 416.76 153.74Z" fill="#263238"/>
<path d="M449.118 153.24C447.365 156.101 445.466 158.877 443.615 161.64C441.765 164.403 439.756 167.118 437.821 169.845C435.885 172.572 433.816 175.201 431.734 177.867C429.652 180.533 427.558 183.102 425.27 185.561L425.111 185.731L425.026 185.537C424.564 184.551 424.113 183.564 423.675 182.566C424.223 183.504 424.758 184.441 425.294 185.39H425.051C427.096 182.745 429.125 180.075 431.137 177.38L437.078 169.309C439.099 166.643 441.034 163.916 443.067 161.263C445.1 158.609 447.072 155.894 449.118 153.24Z" fill="#263238"/>
<path d="M448.582 155.967C448.232 156.688 447.739 157.33 447.133 157.854C446.833 158.118 446.516 158.362 446.184 158.585C445.857 158.81 445.511 159.005 445.149 159.169C446.354 158.169 447.5 157.1 448.582 155.967Z" fill="#263238"/>
</svg>
