<svg width="183" height="113" viewBox="0 0 183 113" fill="none" xmlns="http://www.w3.org/2000/svg">
<path d="M31.0819 107.315H76.4431V104.896L31.0819 102.482V107.315Z" fill="white" stroke="#263238" stroke-miterlimit="10"/>
<path d="M5.22335 98.3386L16.8952 69.4029L18.8688 70.204V70.6762L7.34551 99.1875C7.07744 99.8567 6.97757 100.581 7.05466 101.298C7.13175 102.015 7.38343 102.702 7.78767 103.299C8.1919 103.896 8.73636 104.385 9.37333 104.722C10.0103 105.06 10.7204 105.236 11.4413 105.236H26.7368V107.543H11.4413C10.3469 107.538 9.27048 107.265 8.3054 106.749C7.34032 106.233 6.51572 105.489 5.90312 104.582C5.29052 103.675 4.90843 102.632 4.78997 101.544C4.67151 100.457 4.82027 99.3561 5.22335 98.3386Z" fill="white" stroke="#263238" stroke-miterlimit="10"/>
<path d="M11.1792 29.4593L14.782 29.0246L22.9321 96.5712L19.3293 97.0059L11.1792 29.4593Z" fill="white" stroke="#263238" stroke-miterlimit="10"/>
<path d="M26.3548 107.358H45.9848V105.05C45.9858 103.843 45.5385 102.679 44.7298 101.783C43.9211 100.887 42.8086 100.323 41.6078 100.201L31.7027 99.1981C31.0255 99.1299 30.3416 99.2043 29.695 99.4167C29.0484 99.629 28.4534 99.9745 27.9486 100.431C27.4437 100.887 27.0401 101.444 26.7637 102.066C26.4874 102.688 26.3445 103.361 26.3442 104.042L26.3548 107.358Z" fill="white" stroke="#263238" stroke-miterlimit="10"/>
<path d="M113.549 12.0727C113.549 12.0727 117.735 1.94472 121.698 1.06402C125.661 0.183323 142.389 8.54994 137.774 16.2587C133.158 23.9674 128.303 23.5218 123.9 21.5641C119.496 19.6064 113.549 12.0727 113.549 12.0727Z" fill="#263238" stroke="#263238" stroke-miterlimit="10"/>
<path d="M131.609 4.80433C131.609 4.80433 136.012 3.26576 138.214 3.26576C140.416 3.26576 140.867 10.3113 140.867 10.3113C140.867 10.3113 139.312 3.48328 131.609 4.80433Z" fill="#263238" stroke="#263238" stroke-miterlimit="10"/>
<path d="M84.0458 19.7815C84.0458 19.7815 81.6212 23.0814 80.9633 25.9464C80.3055 28.8113 82.0615 31.8884 81.4037 34.313C80.7458 36.7376 77.6581 38.934 77.8809 40.4779C78.1037 42.0217 82.5019 44.441 82.5019 44.441C82.5019 44.441 86.2475 53.4602 87.8073 54.1287C89.3671 54.7972 94.6141 53.2427 97.0069 52.1498C99.3996 51.0568 102.514 51.2691 102.514 51.2691L116.838 44.0006C116.838 44.0006 115.295 41.1357 117.056 36.9551C118.817 32.7744 119.709 25.7235 108.912 18.678C98.1157 11.6324 84.0458 19.7815 84.0458 19.7815Z" fill="white" stroke="#263238" stroke-miterlimit="10"/>
<path d="M86.0247 44.0007C86.3236 43.5417 86.7741 43.2023 87.2976 43.0413C87.8211 42.8804 88.3845 42.9082 88.8896 43.12" stroke="#263238" stroke-miterlimit="10"/>
<path d="M84.2739 33.2095C84.2739 34.3077 84.6188 35.1937 85.0432 35.1937C85.4676 35.1937 85.8178 34.3077 85.8178 33.2095C85.8178 32.1112 85.473 31.2305 85.0432 31.2305C84.6135 31.2305 84.2739 32.1165 84.2739 33.2095Z" fill="#263238"/>
<path d="M86.465 27.7078C86.2599 27.4967 86.0112 27.333 85.7363 27.2281C85.4613 27.1232 85.1668 27.0796 84.8733 27.1003C84.5797 27.121 84.2942 27.2056 84.0368 27.3481C83.7793 27.4906 83.556 27.6875 83.3826 27.9253" stroke="#263238" stroke-miterlimit="10"/>
<path d="M84.815 37.613C82.6878 37.613 80.9633 34.8528 80.9633 31.4481C80.9633 28.0433 82.6878 25.2832 84.815 25.2832C86.9423 25.2832 88.6667 28.0433 88.6667 31.4481C88.6667 34.8528 86.9423 37.613 84.815 37.613Z" stroke="#263238" stroke-miterlimit="10"/>
<path d="M88.6668 31.4481L105.846 33.2095" stroke="#263238" stroke-miterlimit="10"/>
<path d="M109.369 37.3954C109.369 37.3954 113.549 42.0217 115.974 42.0217C118.398 42.0217 123.019 38.934 125.221 35.6553C127.423 32.3765 123.019 23.9834 120.595 19.1395C118.17 14.2957 113.772 6.1466 104.742 4.38521C95.7124 2.62382 92.1896 3.28699 84.4862 7.25013C76.7827 11.2133 77.6581 16.9378 78.9792 18.6992C79.952 19.9228 81.0609 21.0316 82.2844 22.0045C82.2844 22.0045 77.4406 19.3517 75.6792 20.2431C73.9178 21.1344 73.9125 22.222 73.9125 22.222C73.9125 22.222 79.4195 22.4448 80.0827 22.4448C80.7459 22.4448 82.9423 23.543 82.9423 23.543C82.9423 23.543 87.5686 24.6465 89.9879 23.9834C92.4071 23.3202 95.7124 20.8797 95.9458 23.5324C96.1793 26.1851 99.4686 30.8008 100.79 31.2412C102.111 31.6815 104.095 31.899 105.856 33.2201C107.618 34.5411 109.369 37.3954 109.369 37.3954Z" fill="#263238" stroke="#263238" stroke-miterlimit="10"/>
<path d="M104.302 35.4112C104.302 35.4112 107.384 29.0447 110.467 31.6709C113.549 34.2971 110.249 41.1357 108.928 41.7989C107.607 42.4621 104.965 40.6954 104.965 40.6954C104.965 40.6954 104.742 43.5603 103.861 44.8813" fill="white"/>
<path d="M104.302 35.4112C104.302 35.4112 107.384 29.0447 110.467 31.6709C113.549 34.2971 110.249 41.1357 108.928 41.7989C107.607 42.4621 104.965 40.6954 104.965 40.6954C104.965 40.6954 104.742 43.5603 103.861 44.8813" stroke="#263238" stroke-miterlimit="10"/>
<path d="M121.916 51.2691C121.916 51.2691 118.202 47.5235 118.202 45.1042C118.202 42.6849 116.881 40.6954 108.514 44.6638C100.148 48.6323 97.2562 53.2427 99.0176 54.569C100.779 55.8954 104.525 57.2217 105.384 58.0918C106.244 58.9619 109.347 63.1585 109.347 63.1585C109.347 63.1585 114.653 51.2691 121.916 51.2691Z" fill="#00B386" stroke="#263238" stroke-miterlimit="10"/>
<path d="M112.796 43.364C112.796 43.364 114.663 43.7407 114.287 45.0458C114.065 45.837 114.065 46.6739 114.287 47.4651L115.406 49.1469" stroke="#263238" stroke-miterlimit="10"/>
<path d="M108.488 44.6638C108.488 44.6638 110.562 46.908 110.376 47.6508C110.191 48.3935 109.814 49.5183 110.562 49.8896C111.226 50.1867 111.911 50.4367 112.61 50.6377" stroke="#263238" stroke-miterlimit="10"/>
<path d="M107.766 53.3063C108.154 53.874 108.509 54.3674 108.509 54.3674" stroke="#263238" stroke-miterlimit="10"/>
<path d="M104.594 47.2794C104.594 47.2794 104.222 48.9559 104.97 50.0753C105.718 51.1948 106.647 51.1948 106.832 51.7518" stroke="#263238" stroke-miterlimit="10"/>
<path d="M100.493 50.261C100.836 51.2332 101.273 52.1696 101.798 53.057C102.36 53.805 104.408 53.6193 104.785 54.5478C105.151 55.2642 105.658 55.8994 106.275 56.4153" stroke="#263238" stroke-miterlimit="10"/>
<path d="M57.6514 85.2714C59.2908 84.6188 63.8799 83.961 63.8799 83.961" stroke="#263238" stroke-miterlimit="10"/>
<path d="M65.8483 83.3031C65.8483 83.3031 62.2406 82.3216 59.9487 83.3031" stroke="#263238" stroke-miterlimit="10"/>
<path d="M58.3835 90.911C58.3835 90.911 56.4364 94.2694 55.9059 95.3304C55.3753 96.3915 55.2003 96.9221 55.7308 96.9221C56.2614 96.9221 58.2084 96.0414 58.3835 94.9803C58.4552 94.4203 58.6354 93.8797 58.9141 93.3887C58.9141 93.3887 57.9166 97.2775 58.2084 97.4526C59.3597 98.1582 60.1502 96.9221 60.1502 96.9221L61.5668 92.6777C61.5668 92.6777 62.0973 94.7999 62.2724 95.3304C62.4474 95.861 63.5138 94.4498 63.5138 93.3887C63.4965 92.5602 63.4363 91.7332 63.3335 90.911L64.3945 90.025C64.3945 90.025 62.8029 88.4334 61.0362 88.4334C59.2695 88.4334 58.3835 90.911 58.3835 90.911Z" fill="white" stroke="#263238" stroke-miterlimit="10"/>
<path d="M85.6162 85.6056L84.9265 85.5579C81.8758 85.3563 69.7689 84.5446 69.0102 84.5446C68.1242 84.5446 62.9992 87.3723 62.9992 87.3723C61.4055 87.2761 59.8062 87.3366 58.2244 87.5527C56.4524 87.9029 54.8607 90.0251 54.1551 90.736C53.4495 91.4469 51.1469 92.3276 52.3884 92.6777C53.6299 93.0279 54.1551 93.2083 54.8607 93.0332C55.5664 92.8581 58.3994 90.911 58.3994 90.911L62.9992 90.2054C62.9992 90.2054 67.2435 92.5027 67.7741 92.6777C68.3046 92.8528 67.0632 94.0943 65.827 94.9803C64.5908 95.8663 62.6438 97.1024 62.8188 98.5137C62.9939 99.9249 63.5298 99.7551 64.941 98.5137C66.3522 97.2722 67.7741 96.5719 69.8962 95.1554C71.8353 93.761 73.6672 92.2235 75.3767 90.5556L76.4378 89.4945C76.4378 89.4945 88.8153 93.5637 93.0596 94.7999C96.9446 95.8923 100.899 96.7201 104.896 97.2775C107.549 97.633 112.674 96.5719 114.09 95.5108C115.507 94.4498 119.221 91.0861 119.221 91.0861L112.854 78.3531C112.854 78.3531 105.246 85.4306 102.243 86.1362C99.2404 86.8418 85.6162 85.6056 85.6162 85.6056Z" fill="white" stroke="#263238" stroke-miterlimit="10"/>
<path d="M102.243 86.1362C105.246 85.4306 112.854 78.3531 112.854 78.3531L119.221 91.0861C119.221 91.0861 115.507 94.4498 114.09 95.5108C112.674 96.5719 107.549 97.633 104.896 97.2775C101.267 96.7705 97.6723 96.0441 94.1313 95.1023C94.0358 94.2906 93.9616 93.4205 93.9297 92.5027C93.8608 90.4972 93.9297 88.2265 94.0305 86.2052C97.4472 86.4015 100.901 86.4704 102.243 86.1362Z" fill="#00B386" stroke="#263238" stroke-miterlimit="10"/>
<path d="M106.647 65.2276C106.662 61.5693 107.817 58.0068 109.952 55.0359C110.978 53.5322 112.367 52.3115 113.989 51.4866C121.343 48.1442 126.51 50.5687 131.168 56.792C140.416 69.127 146.74 83.7753 149.207 89.8234C154.411 102.429 155.366 106.976 155.366 106.976H120.573C120.573 106.976 122.335 102.572 122.335 101.474C122.335 100.376 120.573 98.1688 120.573 98.1688C120.573 98.1688 110.005 94.4232 108.026 88.6987C106.588 84.4862 106.557 71.6949 106.647 65.2276Z" fill="#00B386" stroke="#263238" stroke-miterlimit="10"/>
<path d="M55.3594 68.2251C52.5649 68.7851 49.8162 69.553 47.1361 70.5224" stroke="#263238" stroke-miterlimit="10"/>
<path d="M50.1124 67.2436C48.1098 68.0709 46.2329 69.1745 44.5364 70.5224" stroke="#263238" stroke-miterlimit="10"/>
<path d="M129.184 74.1672C129.184 74.1672 118.393 103.676 115.533 104.557C112.674 105.437 109.809 104.116 108.488 103.235C107.167 102.355 68.851 75.2707 68.851 75.2707C68.851 75.2707 62.023 79.2391 60.7019 79.2391C59.3809 79.2391 56.7388 83.2023 56.0809 84.5445C55.423 85.8868 54.7599 86.5234 54.5371 85.2024C54.3142 83.8814 56.0809 81.0218 56.5213 80.1411C56.7744 79.6415 56.9942 79.1258 57.1791 78.5972C56.4145 78.6993 55.6712 78.9232 54.9774 79.2604C54.3195 79.7007 52.1178 82.5603 51.4546 83.441C50.7915 84.3217 49.2529 85.2024 49.2529 83.8814C49.2529 82.5603 51.6775 80.1411 52.1178 79.0375C52.3717 78.3901 52.8373 77.8478 53.4388 77.499C53.4388 77.499 49.2529 78.1568 48.1334 78.5972C47.014 79.0375 46.3667 81.6796 45.0457 81.9024C43.7246 82.1253 45.7089 79.2497 46.1492 77.9393C46.5896 76.6289 52.0966 74.8569 52.0966 74.8569C52.0966 74.8569 48.5738 74.4165 47.4703 74.4165C46.3667 74.4165 43.9528 76.5864 43.3055 76.5864C42.6583 76.5864 42.6476 75.9233 44.409 74.6022C46.1704 73.2812 49.2529 71.9495 50.5739 71.9495C51.9049 71.913 53.2305 71.7657 54.5371 71.5092C55.8581 71.2916 65.7686 69.3074 67.7475 69.3074C69.7264 69.3074 99.4579 83.181 99.4579 83.181L101.384 81.4674C101.421 81.4344 101.467 81.4139 101.516 81.409L101.84 81.3719C102.951 81.2785 104.057 81.5915 104.954 82.2526C105.113 82.3587 105.273 82.3428 105.405 82.0775C105.846 81.1968 108.705 63.5829 110.249 59.8373C111.793 56.0917 116.616 47.7303 124.998 52.5742" fill="white"/>
<path d="M129.184 74.1672C129.184 74.1672 118.393 103.676 115.533 104.557C112.674 105.437 109.809 104.116 108.488 103.235C107.167 102.355 68.851 75.2707 68.851 75.2707C68.851 75.2707 62.023 79.2391 60.7019 79.2391C59.3809 79.2391 56.7388 83.2023 56.0809 84.5445C55.4231 85.8868 54.7599 86.5234 54.5371 85.2024C54.3142 83.8814 56.0809 81.0218 56.5213 80.1411C56.7744 79.6415 56.9942 79.1258 57.1791 78.5972C56.4145 78.6993 55.6712 78.9232 54.9774 79.2604C54.3195 79.7007 52.1178 82.5603 51.4546 83.441C50.7915 84.3217 49.2529 85.2024 49.2529 83.8814C49.2529 82.5603 51.6775 80.1411 52.1178 79.0375C52.3717 78.3901 52.8373 77.8478 53.4388 77.499C53.4388 77.499 49.2529 78.1568 48.1334 78.5972C47.014 79.0375 46.3667 81.6796 45.0457 81.9024C43.7246 82.1253 45.7089 79.2497 46.1492 77.9393C46.5896 76.6289 52.0966 74.8569 52.0966 74.8569C52.0966 74.8569 48.5738 74.4165 47.4703 74.4165C46.3667 74.4165 43.9528 76.5864 43.3055 76.5864C42.6583 76.5864 42.6476 75.9233 44.409 74.6022C46.1704 73.2812 49.2529 71.9495 50.5739 71.9495C51.9049 71.913 53.2305 71.7657 54.5371 71.5092C55.8581 71.2916 65.7686 69.3074 67.7475 69.3074C69.7264 69.3074 99.4579 83.181 99.4579 83.181L101.384 81.4674C101.421 81.4344 101.467 81.4139 101.516 81.409L101.84 81.3719C102.951 81.2785 104.057 81.5915 104.954 82.2526C105.113 82.3587 105.273 82.3428 105.405 82.0775C105.846 81.1968 108.705 63.5829 110.249 59.8373C111.793 56.0917 116.616 47.7303 124.998 52.5742" stroke="#263238" stroke-miterlimit="10"/>
<path d="M129.184 74.1672C129.184 74.1672 118.393 103.676 115.533 104.557C112.674 105.437 109.809 104.116 108.488 103.235C107.787 102.769 96.8158 95.0174 86.5764 87.7914L90.3857 79.0057C95.5054 81.3507 99.4579 83.197 99.4579 83.197L101.384 81.4833C101.421 81.4503 101.467 81.4298 101.516 81.425L101.84 81.3878C102.951 81.2944 104.057 81.6074 104.954 82.2685C105.113 82.3746 105.273 82.3587 105.405 82.0934C105.846 81.2127 108.705 63.5988 110.249 59.8532C111.793 56.1076 116.616 47.7463 124.998 52.5901" fill="#00B386"/>
<path d="M129.184 74.1672C129.184 74.1672 118.393 103.676 115.533 104.557C112.674 105.437 109.809 104.116 108.488 103.235C107.787 102.769 96.8158 95.0174 86.5764 87.7914L90.3857 79.0057C95.5054 81.3507 99.4579 83.197 99.4579 83.197L101.384 81.4833C101.421 81.4503 101.467 81.4298 101.516 81.425L101.84 81.3878C102.951 81.2944 104.057 81.6074 104.954 82.2685C105.113 82.3746 105.273 82.3587 105.405 82.0934C105.846 81.2127 108.705 63.5988 110.249 59.8532C111.793 56.1076 116.616 47.7463 124.998 52.5901" stroke="#263238" stroke-miterlimit="10"/>
<path d="M105.373 82.8097C107.05 84.8582 108.9 86.7591 110.902 88.4918" stroke="#263238" stroke-miterlimit="10"/>
<path d="M106.636 84.2315C106.636 84.2315 110.265 85.4942 113.268 86.2847" stroke="#263238" stroke-miterlimit="10"/>
<path d="M155.366 106.976L161.441 53.7095C161.515 53.0615 161.717 52.4348 162.037 51.8665C162.357 51.2981 162.788 50.7997 163.304 50.4005C163.82 50.0014 164.41 49.7097 165.041 49.5427C165.671 49.3757 166.329 49.3367 166.975 49.4281C168.243 49.6088 169.389 50.2808 170.166 51.2991C170.943 52.3174 171.289 53.6005 171.129 54.8714L164.508 107.061L155.366 106.976Z" fill="#263238" stroke="#263238" stroke-miterlimit="10"/>
<path d="M126.234 92.9908C126.649 92.5706 127.19 92.2975 127.774 92.2132C128.358 92.1289 128.954 92.238 129.471 92.5239C131.322 93.5425 131.694 97.7073 130.861 100.668C130.028 103.628 126.234 101.962 126.234 101.962L126.325 100.02C126.325 100.02 129.471 100.387 129.656 98.7259C129.842 97.0653 129.932 94.9325 128.065 94.9325C126.197 94.9325 125.656 95.3941 125.656 95.3941L126.234 92.9908Z" fill="white" stroke="#263238" stroke-miterlimit="10"/>
<path d="M111.851 89.3619H126.542V106.944H111.851V89.3619Z" fill="white" stroke="#263238" stroke-miterlimit="10"/>
<path d="M1.00002 106.848H181.904V112H1.00002V106.848Z" fill="#263238" stroke="#263238" stroke-miterlimit="10"/>
</svg>
