<svg width="441" height="382" viewBox="0 0 441 382" fill="none" xmlns="http://www.w3.org/2000/svg">
<path d="M220.5 381.145C342.279 381.145 441 324.149 441 253.841C441 183.533 342.279 126.538 220.5 126.538C98.7212 126.538 0 183.533 0 253.841C0 324.149 98.7212 381.145 220.5 381.145Z" fill="#F5F5F5"/>
<path d="M345.485 338.236C369.147 338.236 388.329 327.159 388.329 313.494C388.329 299.829 369.147 288.752 345.485 288.752C321.823 288.752 302.641 299.829 302.641 313.494C302.641 327.159 321.823 338.236 345.485 338.236Z" fill="#E0E0E0"/>
<path d="M31.8536 252.363L146.246 318.398C147.707 319.14 149.322 319.527 150.961 319.527C152.599 319.527 154.215 319.14 155.675 318.398L371.05 194.04C373.654 192.535 373.654 190.097 371.05 188.591L256.694 122.548C255.232 121.81 253.617 121.425 251.98 121.425C250.342 121.425 248.727 121.81 247.265 122.548L31.8536 246.914C29.2492 248.42 29.2492 250.858 31.8536 252.363Z" fill="#E0E0E0"/>
<path d="M77.1635 5.80043L70.6985 9.49467C70.7352 9.16963 70.7537 8.8428 70.754 8.5157V6.38227C70.754 2.53103 68.4174 0.757794 65.5266 2.42944C64.2513 3.23293 63.1822 4.32422 62.405 5.61572C61.934 0.730084 58.6461 -1.36639 54.6471 0.933271C50.3248 3.43612 46.8245 10.1227 46.8245 15.8857V19.1274C46.7982 20.4268 47.0241 21.719 47.4895 22.9325L42.1051 26.0356C41.2216 26.6677 40.4988 27.4984 39.9951 28.4609C39.4914 29.4234 39.2208 30.4908 39.2051 31.577C39.2051 33.7197 40.4981 34.6986 42.1051 33.7751L77.2004 13.5306C78.0829 12.8976 78.8049 12.0666 79.3085 11.1043C79.8121 10.1421 80.0833 9.07522 80.1004 7.98927C80.0634 5.85585 78.7612 4.86764 77.1635 5.80043Z" fill="#EBEBEB"/>
<path d="M118.733 17.0771L113.847 19.8478C113.876 19.6026 113.892 19.3559 113.893 19.109V17.5389C113.893 14.6297 112.12 13.2998 109.941 14.5558C108.981 15.1606 108.177 15.9833 107.595 16.9571C107.235 13.2628 104.75 11.6928 101.73 13.4291C98.47 15.2762 95.8287 20.365 95.8287 24.715V27.1532C95.8114 28.1366 95.9806 29.1143 96.3274 30.0347L92.2729 32.3713C91.607 32.8496 91.0622 33.477 90.6822 34.2035C90.3021 34.9299 90.0973 35.7353 90.0841 36.555C90.0841 38.1713 91.0631 38.9101 92.2729 38.2082L118.733 22.9325C119.4 22.4558 119.946 21.8287 120.327 21.1019C120.707 20.3751 120.911 19.569 120.922 18.7488C120.922 17.1418 119.943 16.4029 118.733 17.0771Z" fill="#EBEBEB"/>
<path d="M373.571 285.63C373.571 285.63 373.118 272.7 377.995 261.839C382.871 250.978 390.647 243.534 398.682 241.678C406.717 239.821 414.383 246.295 406.459 252.76C398.535 259.225 383.859 266.725 379.602 286.987L373.571 285.63Z" fill="#00B386"/>
<g opacity="0.15">
<path d="M373.571 285.63C373.571 285.63 373.118 272.7 377.995 261.839C382.871 250.978 390.647 243.534 398.682 241.678C406.717 239.821 414.383 246.295 406.459 252.76C398.535 259.225 383.859 266.725 379.602 286.987L373.571 285.63Z" fill="black"/>
</g>
<path d="M375.464 281.963H375.372C375.258 281.935 375.16 281.863 375.1 281.762C375.039 281.662 375.021 281.542 375.049 281.428C380.479 259.031 395.496 247.782 402.681 244.966C402.786 244.94 402.897 244.953 402.993 245.003C403.089 245.053 403.163 245.137 403.202 245.238C403.24 245.339 403.241 245.45 403.203 245.552C403.165 245.653 403.091 245.737 402.995 245.788C395.967 248.558 381.246 259.595 375.898 281.64C375.875 281.736 375.819 281.821 375.739 281.88C375.66 281.939 375.563 281.968 375.464 281.963Z" fill="white"/>
<path d="M410.975 277.216C410.31 278.814 408.601 279.682 407.013 280.375C405.424 281.068 403.697 281.806 402.875 283.321C401.204 286.387 404.187 290.562 402.386 293.554C401.963 294.154 401.422 294.661 400.796 295.046C400.171 295.43 399.474 295.683 398.747 295.789C397.556 296.048 396.337 296.075 395.127 296.214C394.55 296.216 393.973 296.185 393.4 296.122C391.709 295.791 389.957 296.024 388.412 296.787C386.048 298.2 385.392 301.247 383.998 303.621C383.133 305.027 381.973 306.23 380.599 307.145C379.224 308.06 377.668 308.666 376.037 308.922C373.321 309.347 369.23 308.848 368.491 307.666C367.937 306.743 369.415 303.972 369.415 302.901C369.434 300.178 369.709 297.463 370.237 294.792C370.523 293.581 370.662 292.341 370.652 291.097C370.606 289.703 370.569 288.327 370.542 286.923C370.514 285.519 370.135 284.245 370.634 282.712C371.181 281.27 371.938 279.916 372.878 278.694C373.759 277.463 374.648 276.231 375.547 275C376.555 273.527 377.74 272.184 379.075 271.001C380.282 270.022 381.677 269.3 383.173 268.881C384.669 268.462 386.235 268.353 387.775 268.563C390.315 268.914 392.827 270.271 395.432 270.086C398.036 269.902 400.437 269.163 403.032 269.274C404.405 269.274 405.76 269.587 406.993 270.189C408.227 270.79 409.308 271.665 410.153 272.746C410.648 273.366 410.982 274.098 411.125 274.878C411.268 275.658 411.217 276.461 410.975 277.216Z" fill="#00B386"/>
<path d="M370.551 300.841C370.501 300.829 370.454 300.807 370.413 300.777C370.371 300.747 370.336 300.709 370.309 300.665C370.283 300.621 370.265 300.573 370.257 300.522C370.25 300.471 370.252 300.42 370.264 300.37C375.944 276.542 400.788 272.469 406.634 272.737C406.685 272.739 406.735 272.752 406.781 272.774C406.828 272.795 406.869 272.826 406.903 272.864C406.938 272.901 406.964 272.946 406.981 272.994C406.999 273.042 407.006 273.092 407.004 273.143C407.001 273.194 406.989 273.244 406.967 273.291C406.946 273.337 406.915 273.378 406.877 273.412C406.839 273.447 406.795 273.473 406.747 273.491C406.699 273.508 406.648 273.515 406.597 273.513C400.881 273.254 376.582 277.207 371.022 300.545C371.011 300.596 370.99 300.644 370.96 300.687C370.931 300.729 370.893 300.765 370.849 300.793C370.805 300.82 370.756 300.839 370.705 300.847C370.653 300.855 370.601 300.853 370.551 300.841Z" fill="white"/>
<path d="M397.934 288.124C397.857 288.113 397.786 288.077 397.731 288.022C395.376 286.087 392.622 284.696 389.667 283.947C386.712 283.199 383.629 283.111 380.636 283.691C380.586 283.699 380.534 283.698 380.484 283.686C380.435 283.675 380.388 283.654 380.346 283.624C380.305 283.594 380.269 283.557 380.242 283.514C380.215 283.471 380.197 283.422 380.188 283.372C380.18 283.322 380.181 283.27 380.193 283.22C380.204 283.171 380.225 283.124 380.255 283.082C380.284 283.04 380.322 283.005 380.365 282.978C380.408 282.951 380.456 282.933 380.507 282.924C383.618 282.324 386.824 282.42 389.894 283.204C392.965 283.988 395.824 285.441 398.267 287.459C398.328 287.516 398.369 287.591 398.383 287.673C398.398 287.756 398.386 287.84 398.348 287.915C398.311 287.99 398.251 288.051 398.176 288.088C398.101 288.126 398.017 288.138 397.934 288.124Z" fill="white"/>
<path d="M48.5331 223.308C50.6758 210.101 47.1293 181.96 29.3323 183.318C25.4533 183.595 21.4636 187.511 25.6381 193.052C29.0183 197.596 32.574 202.02 35.3447 206.98C38.2539 212.198 38.1153 218.293 39.1497 224.149C39.593 226.605 40.5166 229.579 42.9733 230.041C43.7538 230.127 44.5428 229.991 45.25 229.65C45.9572 229.309 46.554 228.775 46.9723 228.111C47.7888 226.769 48.3025 225.266 48.4777 223.705L48.5331 223.308Z" fill="#00B386"/>
<path opacity="0.15" d="M48.5331 223.308C50.6758 210.101 47.1293 181.96 29.3323 183.318C25.4533 183.595 21.4636 187.511 25.6381 193.052C29.0183 197.596 32.574 202.02 35.3447 206.98C38.2539 212.198 38.1153 218.293 39.1497 224.149C39.593 226.605 40.5166 229.579 42.9733 230.041C43.7538 230.127 44.5428 229.991 45.25 229.65C45.9572 229.309 46.554 228.775 46.9723 228.111C47.7888 226.769 48.3025 225.266 48.4777 223.705L48.5331 223.308Z" fill="black"/>
<path d="M42.9548 222.209C42.8372 222.175 42.7381 222.095 42.6792 221.988C42.6203 221.88 42.6065 221.754 42.6408 221.636C46.9261 206.047 35.1046 189.192 31.7613 186.541C31.6647 186.466 31.6017 186.356 31.5862 186.235C31.5706 186.114 31.6037 185.991 31.6781 185.895C31.7544 185.8 31.8642 185.739 31.9847 185.723C32.1052 185.708 32.2269 185.739 32.3246 185.811C35.7695 188.508 47.9513 205.76 43.5274 221.83C43.5114 221.889 43.4838 221.945 43.4463 221.993C43.4088 222.041 43.362 222.082 43.3087 222.112C43.2554 222.142 43.1967 222.161 43.136 222.168C43.0752 222.175 43.0136 222.17 42.9548 222.153V222.209Z" fill="white"/>
<path d="M41.3386 212.872C41.3386 212.632 41.3386 212.382 41.3386 212.133C41.3039 210.284 40.6539 208.5 39.4915 207.063C39.0296 206.539 38.5055 206.074 37.9306 205.677C35.8601 204.218 33.474 203.269 30.967 202.907C29.8366 202.811 28.7156 202.625 27.6145 202.352C24.4836 201.337 22.0731 198.298 19.3671 196.488C16.4024 194.401 8.91238 192.554 6.40953 196.543C4.56241 199.425 10.1038 203.211 13.8811 207.035C17.6585 210.858 19.718 214.673 17.0212 218.339C14.7031 221.479 14.112 224.675 19.0161 228.092C23.3753 231.121 29.5909 230.373 29.7571 235.748C29.8495 238.815 33.2112 243.451 38.3093 242.647C40.0456 242.37 42.1144 240.311 43.158 238.999C44.3015 237.514 45.114 235.801 45.5408 233.975C46.2153 231.382 46.3348 228.675 45.8917 226.033C45.7111 224.711 45.2884 223.433 44.6449 222.264C43.8968 221.055 42.4838 220.149 41.4032 219.207C41.2413 219.08 41.101 218.927 40.9876 218.755C40.832 218.394 40.7995 217.991 40.8953 217.61C41.1497 216.042 41.2978 214.459 41.3386 212.872Z" fill="#00B386"/>
<path d="M39.8978 234.622C39.8056 234.596 39.7237 234.542 39.664 234.468C39.6043 234.393 39.5697 234.301 39.5653 234.206C38.808 219.429 20.0413 201.253 12.3295 197.55C12.2749 197.523 12.226 197.486 12.1857 197.441C12.1455 197.395 12.1146 197.342 12.0948 197.285C12.0751 197.227 12.0669 197.166 12.0707 197.106C12.0746 197.045 12.0903 196.986 12.1171 196.931C12.1428 196.877 12.179 196.828 12.2237 196.788C12.2684 196.748 12.3206 196.717 12.3774 196.697C12.4341 196.677 12.4942 196.669 12.5542 196.673C12.6142 196.676 12.6728 196.692 12.7267 196.719C20.5954 200.487 39.7131 219.023 40.4889 234.16C40.4926 234.22 40.4843 234.28 40.4644 234.337C40.4445 234.394 40.4134 234.447 40.3729 234.491C40.3325 234.536 40.2835 234.572 40.2289 234.598C40.1743 234.623 40.1151 234.638 40.0548 234.64C40.0018 234.644 39.9486 234.637 39.8978 234.622Z" fill="white"/>
<path d="M22.1193 221.461C22.0531 221.439 21.9925 221.402 21.9415 221.355C21.8905 221.307 21.8504 221.249 21.8237 221.184C21.7808 221.07 21.7837 220.944 21.8319 220.832C21.8802 220.72 21.9699 220.631 22.0823 220.584C26.4446 219.155 31.1312 219.042 35.5571 220.26C35.6726 220.295 35.7701 220.373 35.8287 220.478C35.8874 220.583 35.9026 220.707 35.8711 220.824C35.8387 220.941 35.7613 221.041 35.6558 221.101C35.5504 221.162 35.4253 221.178 35.3077 221.147C31.0559 220.009 26.5656 220.124 22.3779 221.48C22.2916 221.497 22.2022 221.49 22.1193 221.461Z" fill="white"/>
<path d="M39.4914 229.579C37.8937 230.816 38.0691 232.58 40.0086 233.698L146.514 295.198C147.715 295.806 149.042 296.122 150.388 296.122C151.734 296.122 153.061 295.806 154.262 295.198L357.815 177.684C359.782 176.548 359.939 174.756 358.267 173.519C359.269 174.274 360.093 175.239 360.684 176.346C361.274 177.453 361.615 178.676 361.685 179.928V185.045C361.615 186.391 361.227 187.701 360.553 188.869C359.879 190.036 358.937 191.026 357.806 191.759L154.281 309.264C153.079 309.874 151.75 310.192 150.402 310.192C149.054 310.192 147.725 309.874 146.523 309.264L40.0178 247.773C38.8879 247.042 37.9478 246.053 37.275 244.887C36.6022 243.721 36.216 242.412 36.1481 241.068V235.933C36.2194 234.697 36.5546 233.49 37.1313 232.394C37.708 231.298 38.5127 230.338 39.4914 229.579Z" fill="#00B386"/>
<path opacity="0.5" d="M39.4914 229.579C37.8937 230.816 38.0691 232.58 40.0086 233.698L146.514 295.198C147.715 295.806 149.042 296.122 150.388 296.122C151.734 296.122 153.061 295.806 154.262 295.198L357.815 177.684C359.782 176.548 359.939 174.756 358.267 173.519C359.269 174.274 360.093 175.239 360.684 176.346C361.274 177.453 361.615 178.676 361.685 179.928V185.045C361.615 186.391 361.227 187.701 360.553 188.869C359.879 190.036 358.937 191.026 357.806 191.759L154.281 309.264C153.079 309.874 151.75 310.192 150.402 310.192C149.054 310.192 147.725 309.874 146.523 309.264L40.0178 247.773C38.8879 247.042 37.9478 246.053 37.275 244.887C36.6022 243.721 36.216 242.412 36.1481 241.068V235.933C36.2194 234.697 36.5546 233.49 37.1313 232.394C37.708 231.298 38.5127 230.338 39.4914 229.579Z" fill="black"/>
<path d="M40.0086 233.698L146.514 295.198C147.715 295.806 149.042 296.123 150.388 296.123C151.734 296.123 153.061 295.806 154.262 295.198L357.815 177.684C359.948 176.447 359.948 174.443 357.815 173.214L251.31 111.705C250.109 111.097 248.782 110.781 247.436 110.781C246.09 110.781 244.762 111.097 243.561 111.705L40.0086 229.228C37.8752 230.466 37.8752 232.47 40.0086 233.698ZM227.177 127.609C229.024 126.547 230.872 127.165 232.719 128.228L329.563 184.14C331.41 185.193 331.41 186.911 329.563 187.973L171.117 279.47C170.086 279.989 168.947 280.26 167.792 280.26C166.638 280.26 165.499 279.989 164.468 279.47L67.6323 223.557C65.7852 222.495 65.7852 220.787 67.6323 219.725L227.177 127.609Z" fill="#00B386"/>
<path opacity="0.3" d="M40.0086 233.698L146.514 295.198C147.715 295.806 149.042 296.123 150.388 296.123C151.734 296.123 153.061 295.806 154.262 295.198L357.815 177.684C359.948 176.447 359.948 174.443 357.815 173.214L251.31 111.705C250.109 111.097 248.782 110.781 247.436 110.781C246.09 110.781 244.762 111.097 243.561 111.705L40.0086 229.228C37.8752 230.466 37.8752 232.47 40.0086 233.698ZM227.177 127.609C229.024 126.547 230.872 127.165 232.719 128.228L329.563 184.14C331.41 185.193 331.41 186.911 329.563 187.973L171.117 279.47C170.086 279.989 168.947 280.26 167.792 280.26C166.638 280.26 165.499 279.989 164.468 279.47L67.6323 223.557C65.7852 222.495 65.7852 220.787 67.6323 219.725L227.177 127.609Z" fill="black"/>
<path d="M358.267 173.51C359.269 174.265 360.093 175.23 360.684 176.337C361.274 177.444 361.615 178.667 361.685 179.919V185.036C361.613 186.382 361.225 187.691 360.551 188.858C359.877 190.025 358.936 191.016 357.806 191.75L154.281 309.264C153.083 309.894 151.746 310.212 150.393 310.187V296.112C151.74 296.142 153.073 295.823 154.262 295.189L357.815 177.675C359.782 176.539 359.967 174.747 358.267 173.51Z" fill="#00B386"/>
<path opacity="0.6" d="M358.267 173.51C359.269 174.265 360.093 175.23 360.684 176.337C361.274 177.444 361.615 178.667 361.685 179.919V185.036C361.613 186.382 361.225 187.691 360.551 188.858C359.877 190.025 358.936 191.016 357.806 191.75L154.281 309.264C153.083 309.894 151.746 310.212 150.393 310.187V296.112C151.74 296.142 153.073 295.823 154.262 295.189L357.815 177.675C359.782 176.539 359.967 174.747 358.267 173.51Z" fill="black"/>
<path d="M294.394 148.5C292.953 147.668 292.953 146.329 294.394 145.498C295.198 145.088 296.087 144.875 296.989 144.875C297.891 144.875 298.781 145.088 299.584 145.498C301.016 146.329 301.016 147.668 299.584 148.5C298.779 148.905 297.891 149.116 296.989 149.116C296.088 149.116 295.199 148.905 294.394 148.5Z" fill="black"/>
<path d="M103.328 262.873C101.119 262.916 98.9348 262.395 96.983 261.359C95.2006 260.324 94.2123 258.93 94.2123 257.424C94.2123 255.919 95.1913 254.524 96.983 253.499C98.9513 252.502 101.127 251.983 103.334 251.985C105.54 251.986 107.715 252.508 109.682 253.508C111.464 254.534 112.453 255.928 112.453 257.434C112.453 258.939 111.474 260.333 109.682 261.368C107.727 262.402 105.54 262.921 103.328 262.873ZM103.328 252.89C101.279 252.848 99.2539 253.331 97.4448 254.293C95.9579 255.152 95.1451 256.261 95.1451 257.424C95.1451 258.588 95.9579 259.696 97.4448 260.555C99.2682 261.479 101.284 261.961 103.328 261.961C105.372 261.961 107.388 261.479 109.211 260.555C110.698 259.696 111.511 258.588 111.511 257.424C111.511 256.261 110.698 255.152 109.211 254.293C107.401 253.334 105.376 252.851 103.328 252.89Z" fill="#E6E6E6"/>
<path d="M296.906 158.446L276.846 146.865C275.655 146.182 275.59 145.092 276.717 144.445C277.372 144.126 278.094 143.966 278.822 143.979C279.551 143.992 280.267 144.177 280.91 144.519L300.961 156.101C302.161 156.784 302.217 157.874 301.099 158.52C300.443 158.835 299.722 158.992 298.994 158.979C298.266 158.966 297.551 158.784 296.906 158.446Z" fill="black"/>
<path d="M227.177 127.609C229.024 126.547 230.872 127.165 232.719 128.228L329.563 184.14C331.41 185.193 331.41 186.911 329.563 187.973L171.117 279.47C170.086 279.989 168.947 280.26 167.792 280.26C166.638 280.26 165.499 279.989 164.468 279.47L67.6323 223.557C65.7852 222.495 65.7852 220.787 67.6323 219.725L227.177 127.609Z" fill="#FAFAFA"/>
<path d="M73.4507 188.019L70.2644 186.172C70.1769 186.136 70.1048 186.071 70.0612 185.987L68.0663 181.166L70.6615 179.661L70.5877 179.892L73.4507 188.019Z" fill="#00B386"/>
<g opacity="0.4">
<path d="M73.4507 188.019L70.2644 186.172C70.1769 186.136 70.1048 186.071 70.0612 185.987L68.0663 181.166L70.6615 179.661L70.5877 179.892L73.4507 188.019Z" fill="black"/>
</g>
<path d="M70.2645 179.901L73.2937 187.862C73.3365 187.938 73.4003 188 73.4774 188.04C73.5546 188.081 73.6418 188.098 73.7286 188.091C73.8154 188.083 73.8981 188.05 73.9668 187.996C74.0355 187.943 74.0872 187.87 74.1157 187.788L77.3574 175.828L70.2645 179.901Z" fill="#00B386"/>
<path opacity="0.2" d="M70.2645 179.901L73.2937 187.862C73.3365 187.938 73.4003 188 73.4774 188.04C73.5546 188.081 73.6418 188.098 73.7286 188.091C73.8154 188.083 73.8981 188.05 73.9668 187.996C74.0355 187.943 74.0872 187.87 74.1157 187.788L77.3574 175.828L70.2645 179.901Z" fill="black"/>
<path d="M119.019 68.9259C118.983 68.187 118.772 67.4672 118.405 66.8251C118.037 66.1831 117.523 65.6371 116.904 65.2317L115.223 64.2619C114.566 63.9292 113.84 63.7559 113.104 63.7559C112.367 63.7559 111.641 63.9292 110.984 64.2619L57.427 95.1643C56.8066 95.568 56.2912 96.1136 55.9234 96.756C55.5557 97.3984 55.3461 98.1191 55.312 98.8585V179.208C55.3461 179.948 55.5557 180.668 55.9234 181.311C56.2912 181.953 56.8066 182.499 57.427 182.902L59.154 183.9C59.8094 184.233 60.534 184.406 61.269 184.406C62.0039 184.406 62.7285 184.233 63.3839 183.9L116.766 153.053C117.429 152.63 117.982 152.053 118.375 151.371C118.769 150.69 118.993 149.924 119.028 149.137L119.019 68.9259Z" fill="#00B386"/>
<path opacity="0.3" d="M63.504 183.789L116.766 153.044C117.424 152.614 117.971 152.036 118.365 151.356C118.758 150.676 118.985 149.912 119.028 149.128V69.0922C119.028 67.6514 118.022 67.0696 116.775 67.7899L63.504 98.5076C62.846 98.9369 62.2983 99.5151 61.9052 100.195C61.5121 100.876 61.2846 101.639 61.2413 102.423V182.487C61.2413 183.928 62.2572 184.509 63.504 183.789Z" fill="black"/>
<path d="M69.3779 172.984L110.938 149.017C111.436 148.692 111.849 148.254 112.146 147.739C112.443 147.224 112.615 146.646 112.647 146.053V79.5562C112.647 78.4572 111.88 78.0231 110.938 78.568L69.3779 102.562C68.8781 102.886 68.462 103.323 68.1635 103.838C67.8649 104.354 67.6924 104.932 67.66 105.527V172.023C67.66 173.085 68.4266 173.528 69.3779 172.984Z" fill="#00B386"/>
<path opacity="0.5" d="M55.312 179.227C55.3461 179.966 55.5557 180.687 55.9234 181.329C56.2912 181.971 56.8066 182.517 57.427 182.921L59.154 183.918C59.7496 184.221 60.4027 184.393 61.07 184.423C61.7372 184.453 62.4033 184.341 63.0237 184.094C62.0263 184.472 61.269 183.9 61.269 182.699V102.276C61.2966 101.539 61.5094 100.821 61.8878 100.188L55.9308 96.7434C55.5483 97.3743 55.3352 98.0932 55.312 98.8307V179.227Z" fill="black"/>
<path opacity="0.1" d="M119.01 68.7965C119.01 67.7713 118.086 67.0232 116.766 67.7805L63.384 98.5997C62.7531 98.9882 62.2392 99.5404 61.897 100.197L55.9401 96.7619C56.2875 96.1133 56.8006 95.5684 57.427 95.1826L110.938 64.2802C111.595 63.9475 112.321 63.7742 113.058 63.7742C113.794 63.7742 114.52 63.9475 115.177 64.2802L116.904 65.2777C117.497 65.668 117.995 66.1872 118.359 66.7964C118.724 67.4057 118.946 68.0893 119.01 68.7965Z" fill="black"/>
<path d="M113.173 123.333C107.502 123.499 92.3468 122.659 92.3468 122.659C87.6592 120.064 83.7521 116.261 81.0316 111.645C78.3111 107.029 76.8766 101.769 76.8771 96.4111V91.7102C76.8422 87.374 78.2875 83.1556 80.9742 79.7518C83.6609 76.3481 87.4284 73.9627 91.6541 72.9896C94.2061 72.4102 96.8558 72.4127 99.4067 72.9968C101.958 73.581 104.344 74.7318 106.39 76.364C108.436 77.9962 110.088 80.0679 111.223 82.4255C112.359 84.7831 112.95 87.3662 112.951 89.9831C112.951 92.292 113.358 94.3793 115.103 96.0509C116.072 96.8943 117.135 97.6226 118.271 98.2213C119.89 99.1099 121.328 100.294 122.51 101.712C123.1 102.424 123.535 103.251 123.789 104.139C124.044 105.028 124.111 105.959 123.988 106.875C123.752 108.045 123.188 109.125 122.362 109.987C122.281 110.029 122.21 110.09 122.157 110.165C122.104 110.24 122.07 110.326 122.058 110.417C122.046 110.509 122.057 110.601 122.089 110.687C122.121 110.773 122.174 110.85 122.242 110.911C123.757 113.257 124.385 116.388 123.111 118.881C122.248 120.442 120.866 121.652 119.204 122.298C117.556 122.941 115.809 123.294 114.041 123.342L113.173 123.333Z" fill="#263238"/>
<path d="M85.3462 125.577C85.0866 127.659 84.2749 129.634 82.9953 131.297C81.7156 132.96 80.0147 134.25 78.0685 135.034L70.2737 172.466L67.6693 173.962L67.5769 129.631C69.8489 118.346 73.7463 117.034 80.7376 115.011C80.7284 115.039 86.4083 118.669 85.3462 125.577Z" fill="#B16668"/>
<path d="M150.319 124.007C146.714 130.298 142.787 136.399 138.552 142.284C137.5 143.679 134.572 147.539 133.011 147.927C131.062 148.407 129.4 146.865 128.393 146.154C124.856 143.697 106.56 125.503 106.56 125.503C100.862 117.561 102.303 112.499 103.069 112.499C103.836 112.499 109.682 110.966 114.688 115.852C118.465 119.546 131.395 132.91 131.395 132.91C134.452 129.327 136.456 127.553 139.504 123.952C140.981 122.206 143.198 120.322 143.346 117.912C143.33 116.81 143.231 115.711 143.05 114.624C142.865 112.111 143.024 109.585 143.521 107.115C143.534 107.003 143.565 106.894 143.614 106.792C143.697 106.653 143.823 106.546 143.974 106.487C144.254 106.408 144.553 106.424 144.824 106.532C145.095 106.641 145.322 106.836 145.47 107.087C145.755 107.596 145.91 108.167 145.923 108.75C145.937 109.335 146.062 109.911 146.292 110.449C146.344 110.557 146.42 110.652 146.514 110.726C146.62 110.789 146.741 110.821 146.865 110.819C147.566 110.819 147.936 110.07 148.185 109.516C148.787 108.229 149.276 106.89 149.644 105.517C149.894 104.594 150.328 103.67 150.642 102.747C150.776 102.188 151.075 101.683 151.501 101.297C151.919 101.085 152.387 100.989 152.855 101.02C153.323 101.051 153.774 101.207 154.161 101.472C154.628 101.7 155.071 101.975 155.481 102.294C156.672 103.393 157.459 104.86 157.716 106.459C158.05 108.308 157.926 110.211 157.356 112.001C156.633 114.523 155.446 116.887 153.856 118.974C152.628 120.654 151.335 122.243 150.319 124.007Z" fill="#B16668"/>
<path d="M109.996 136.752L109.627 144.399L110.753 149.1L92.5223 159.629L74.0511 170.268L80.2574 150.596L78.0224 135.043C78.2625 134.84 80.9963 132.088 81.8829 125.586C82.7141 119.371 81.1625 115.667 80.6822 115.048C80.9316 114.965 86.473 113.469 86.473 113.469L98.2853 112.546L103.18 112.472C107.372 115.539 110.651 119.689 112.665 124.478C115.602 131.663 109.996 136.752 109.996 136.752Z" fill="#FAFAFA"/>
<path opacity="0.1" d="M84.1825 159.426C84.9675 155.925 89.2898 154.032 87.5812 152.619C85.8726 151.206 81.5042 142.34 81.0516 138.267C80.7765 135.108 80.7765 131.931 81.0516 128.773C79.9711 134.065 77.6899 136.374 77.4775 136.558L79.7125 152.111L73.5062 171.783L89.5576 162.547C85.8542 162.584 83.73 161.43 84.1825 159.426Z" fill="black"/>
<path opacity="0.9" d="M106.994 81.9758C106.644 85.4022 102.811 89.0133 97.1031 92.1996C91.3955 95.3858 87.0917 95.2658 87.0917 95.2658C101.545 87.7849 105.064 78.771 105.064 78.771C106.994 79.6114 106.994 81.9758 106.994 81.9758Z" fill="#00B386"/>
<path d="M106.994 81.9756C108.177 83.167 109.765 86.2886 109.636 96.7525C109.497 105.6 106.653 107.835 105.212 108.445C103.771 109.054 101.001 108.722 98.2945 108.288V112.601C98.2945 112.601 101.989 116.757 101.73 119.186C101.472 121.615 97.7681 123.416 90.8137 118.262C87.4334 115.741 86.4822 113.515 86.4822 113.515V101.897C86.4822 101.897 84.9029 103.448 82.1968 101.112C79.9526 99.1815 79.186 95.9121 80.9039 94.1389C81.3496 93.7172 81.8893 93.4076 82.4783 93.2355C83.0673 93.0635 83.6887 93.034 84.2914 93.1495C84.894 93.265 85.4606 93.5221 85.9443 93.8997C86.428 94.2773 86.8149 94.7644 87.0732 95.321C87.0732 95.321 91.377 95.4503 97.0939 92.264C102.811 89.0778 106.634 85.4205 106.994 81.9756Z" fill="#B16668"/>
<path d="M99.4213 94.2222C99.4442 94.5222 99.3472 94.819 99.1516 95.0476C98.9559 95.2761 98.6776 95.4177 98.3776 95.4413C98.0761 95.4489 97.7835 95.3381 97.5626 95.1327C97.3416 94.9273 97.2099 94.6436 97.1955 94.3423C97.176 94.1899 97.1881 94.0351 97.2312 93.8876C97.2742 93.7401 97.3472 93.603 97.4456 93.485C97.5439 93.367 97.6656 93.2705 97.8029 93.2016C97.9403 93.1327 98.0903 93.0929 98.2438 93.0846C98.3972 93.0764 98.5507 93.0998 98.6946 93.1535C98.8386 93.2072 98.9699 93.2901 99.0804 93.3968C99.1909 93.5036 99.2782 93.632 99.3369 93.774C99.3955 93.916 99.4242 94.0686 99.4213 94.2222Z" fill="#263238"/>
<path d="M99.569 101.823L102.524 102.747C102.475 102.945 102.385 103.131 102.261 103.293C102.137 103.455 101.981 103.591 101.803 103.691C101.625 103.791 101.429 103.854 101.226 103.876C101.023 103.898 100.817 103.878 100.622 103.818C100.222 103.686 99.8895 103.405 99.6931 103.033C99.4968 102.661 99.4523 102.227 99.569 101.823Z" fill="#9A4A4D"/>
<path d="M108.842 91.0912L106.579 89.5489C106.672 89.3989 106.794 89.2693 106.938 89.1677C107.082 89.0661 107.245 88.9946 107.418 88.9575C107.59 88.9204 107.769 88.9185 107.942 88.9519C108.115 88.9853 108.28 89.0532 108.426 89.1517C108.732 89.3588 108.947 89.6763 109.024 90.0378C109.102 90.3994 109.036 90.7768 108.842 91.0912Z" fill="#263238"/>
<path d="M108.343 93.7327C108.344 93.9495 108.282 94.1619 108.164 94.3437C108.046 94.5254 107.877 94.6686 107.679 94.7555C107.48 94.8423 107.26 94.869 107.047 94.8323C106.833 94.7956 106.635 94.697 106.477 94.5488C106.319 94.4006 106.207 94.2092 106.157 93.9985C106.106 93.7877 106.119 93.5667 106.192 93.3629C106.266 93.1591 106.398 92.9814 106.572 92.8518C106.746 92.7221 106.953 92.6463 107.17 92.6337C107.319 92.6287 107.468 92.6533 107.608 92.7058C107.747 92.7584 107.875 92.838 107.984 92.9401C108.093 93.0422 108.181 93.1647 108.242 93.3007C108.304 93.4367 108.338 93.5835 108.343 93.7327Z" fill="#263238"/>
<path d="M103.328 92.5598L103.319 99.8005L106.837 98.6923L103.328 92.5598Z" fill="#9A4A4D"/>
<path d="M98.2945 108.26C95.45 107.909 89.5854 106.274 88.6618 103.966C89.0354 105.133 89.7574 106.158 90.7306 106.902C92.4946 108.389 98.313 110.033 98.313 110.033L98.2945 108.26Z" fill="#9A4A4D"/>
<path d="M87.1102 98.9044C87.7005 98.9044 88.2666 98.6699 88.684 98.2525C89.1015 97.8351 89.336 97.269 89.336 96.6787C89.336 96.0884 89.1015 95.5222 88.684 95.1048C88.2666 94.6874 87.7005 94.4529 87.1102 94.4529V98.9044Z" fill="#263238"/>
<path d="M163.489 246.693L160.302 244.846C160.217 244.807 160.146 244.742 160.099 244.661L158.095 239.84L160.699 238.334L160.616 238.565L163.489 246.693Z" fill="#00B386"/>
<g opacity="0.4">
<path d="M163.489 246.693L160.302 244.846C160.217 244.807 160.146 244.742 160.099 244.661L158.095 239.84L160.699 238.334L160.616 238.565L163.489 246.693Z" fill="black"/>
</g>
<path d="M160.302 238.575L163.332 246.536C163.374 246.612 163.438 246.674 163.515 246.714C163.592 246.755 163.68 246.772 163.766 246.764C163.853 246.757 163.936 246.724 164.005 246.67C164.073 246.617 164.125 246.544 164.154 246.462L167.349 234.502L160.302 238.575Z" fill="#00B386"/>
<path opacity="0.2" d="M160.302 238.575L163.332 246.536C163.374 246.612 163.438 246.674 163.515 246.714C163.592 246.755 163.68 246.772 163.766 246.764C163.853 246.757 163.936 246.724 164.005 246.67C164.073 246.617 164.125 246.544 164.154 246.462L167.349 234.502L160.302 238.575Z" fill="black"/>
<path d="M209.048 127.6C209.014 126.86 208.804 126.139 208.436 125.497C208.069 124.855 207.553 124.309 206.933 123.905L205.206 122.908C204.55 122.575 203.826 122.402 203.091 122.402C202.356 122.402 201.631 122.575 200.976 122.908L147.465 153.81C146.843 154.213 146.326 154.759 145.957 155.401C145.588 156.043 145.376 156.764 145.341 157.504V237.9C145.376 238.64 145.588 239.361 145.957 240.004C146.326 240.646 146.843 241.191 147.465 241.595L149.183 242.592C149.84 242.925 150.566 243.098 151.302 243.098C152.039 243.098 152.765 242.925 153.422 242.592L206.804 211.736C207.465 211.314 208.016 210.738 208.408 210.058C208.8 209.378 209.023 208.614 209.057 207.829L209.048 127.6Z" fill="#00B386"/>
<path opacity="0.6" d="M159.406 231.657L200.967 207.691C201.464 207.365 201.878 206.927 202.175 206.412C202.472 205.897 202.643 205.32 202.675 204.726V138.23C202.675 137.14 201.909 136.696 200.967 137.241L159.406 161.254C158.913 161.578 158.502 162.014 158.207 162.525C157.912 163.037 157.741 163.611 157.707 164.2V230.696C157.707 231.759 158.464 232.202 159.406 231.657Z" fill="white"/>
<path opacity="0.1" d="M145.341 237.901C145.376 238.641 145.588 239.361 145.957 240.004C146.326 240.646 146.843 241.191 147.465 241.595L149.183 242.592C149.781 242.892 150.435 243.063 151.103 243.093C151.772 243.123 152.439 243.012 153.062 242.768C152.064 243.146 151.307 242.574 151.307 241.373V161.023C151.333 160.285 151.549 159.566 151.935 158.936L145.969 155.491C145.59 156.124 145.377 156.842 145.35 157.578L145.341 237.901Z" fill="black"/>
<path opacity="0.6" d="M209.048 127.479C209.048 126.454 208.069 125.706 206.794 126.464L153.422 157.283C152.793 157.668 152.277 158.213 151.926 158.862L145.969 155.426C146.322 154.779 146.838 154.235 147.465 153.847L200.976 122.936C201.633 122.608 202.357 122.437 203.091 122.437C203.825 122.437 204.549 122.608 205.206 122.936L206.942 123.933C207.536 124.329 208.034 124.853 208.398 125.467C208.763 126.08 208.985 126.768 209.048 127.479Z" fill="white"/>
<path d="M202.638 204.726V182.755C200.376 175.791 195.601 170.268 188.166 170.97L195.028 188.204L200.191 208.097L200.893 207.691C201.397 207.369 201.818 206.933 202.122 206.418C202.425 205.903 202.602 205.323 202.638 204.726Z" fill="#37474F"/>
<path d="M167.127 174.276C165.382 175.052 164.357 177.574 163.692 179.356C162.626 182.12 162.003 185.034 161.845 187.991L162.667 212.078L162.371 229.939L200.237 208.097C200.237 208.097 199.72 190.882 199.72 184.685C199.72 184.408 199.72 184.122 199.72 183.835C199.54 180.792 198.367 177.892 196.383 175.579C194.398 173.266 191.71 171.666 188.73 171.025C186.578 170.536 173.731 172.198 173.731 172.198L167.155 174.276H167.127Z" fill="#455A64"/>
<path d="M188.933 196.848C188.889 196.158 188.793 195.473 188.646 194.798C188.462 194.053 188.35 193.292 188.314 192.526C188.337 191.748 188.42 190.973 188.563 190.208C188.97 187.603 189.099 184.666 187.159 182.598C186.956 182.376 186.291 182.385 186.522 182.81C187.206 183.968 187.635 185.259 187.778 186.597C187.826 187.946 187.721 189.297 187.464 190.623C187.34 191.349 187.284 192.085 187.298 192.821C187.369 193.497 187.486 194.166 187.649 194.825C187.801 195.45 187.921 196.082 188.009 196.719C188.009 197.033 188.074 197.356 188.083 197.642C188.041 198.011 188.041 198.382 188.083 198.751C188.148 198.991 188.499 199.194 188.656 198.926C188.919 198.267 189.015 197.553 188.933 196.848Z" fill="#37474F"/>
<path d="M186.421 184.759C186.347 184.112 186.079 182.995 185.303 182.838C185.174 182.838 185.118 182.949 185.146 183.05C185.302 183.382 185.431 183.724 185.534 184.075C185.598 184.457 185.628 184.843 185.626 185.23C185.618 186.039 185.515 186.845 185.322 187.631C185.044 188.712 184.398 189.691 184.121 190.771C183.671 192.015 183.648 193.374 184.056 194.632C184.112 194.761 184.296 194.844 184.37 194.696C184.635 193.924 184.766 193.112 184.758 192.295C184.841 191.613 185.006 190.943 185.248 190.3C185.695 189.361 186.051 188.38 186.31 187.373C186.471 186.511 186.508 185.631 186.421 184.759Z" fill="#37474F"/>
<path d="M177.01 145.147C177.01 147.308 177.65 149.42 178.851 151.217C180.051 153.014 181.758 154.414 183.754 155.241C185.751 156.068 187.947 156.285 190.067 155.863C192.186 155.441 194.133 154.401 195.661 152.873C197.189 151.345 198.229 149.398 198.651 147.279C199.073 145.159 198.856 142.962 198.029 140.966C197.202 138.97 195.802 137.263 194.005 136.063C192.209 134.862 190.096 134.221 187.935 134.221C185.038 134.221 182.259 135.373 180.21 137.422C178.161 139.47 177.01 142.249 177.01 145.147Z" fill="#263238"/>
<path d="M169.048 152.914C169.048 152.914 170.822 161.226 171.533 162.602C172.004 163.444 172.781 164.073 173.703 164.357L173.583 158.502L169.048 152.914Z" fill="#263238"/>
<path d="M171.33 140.982C171.259 140.719 171.134 140.473 170.962 140.261C170.79 140.05 170.575 139.877 170.332 139.754C169.996 139.63 169.636 139.582 169.279 139.615C168.268 139.651 167.296 140.014 166.509 140.649C166.126 140.97 165.815 141.367 165.597 141.816C165.379 142.265 165.259 142.755 165.243 143.254C165.294 143.926 165.489 144.58 165.816 145.17C166.143 145.76 166.593 146.272 167.137 146.671C166.663 146.911 166.289 147.31 166.079 147.798C165.87 148.286 165.839 148.832 165.991 149.34C166.227 150.11 166.683 150.793 167.303 151.307C167.787 151.842 168.325 152.325 168.91 152.748C169.31 152.943 169.748 153.047 170.194 153.053C170.918 153.1 171.639 153.183 172.355 153.302L171.939 148.684C171.828 147.428 171.708 146.172 171.597 144.916C171.597 144.362 171.477 143.799 171.45 143.245C171.49 142.503 171.446 141.76 171.32 141.028L171.33 140.982Z" fill="#263238"/>
<path d="M173.408 153.302C172.743 153.7 171.791 152.379 170.96 151.557C170.129 150.735 167.451 149.516 166.102 152.342C164.754 155.168 167.294 159.038 169.409 159.73C173.103 160.876 173.611 158.53 173.611 158.53L173.879 173.307C178.423 179.134 191.029 178.682 185.774 172.605V167.35C187.401 167.608 189.052 167.692 190.697 167.599C193.384 167.183 195.074 165.069 195.887 162.159C197.199 157.486 197.734 153.718 196.58 144.538C195.37 134.462 183.65 134.379 177.333 138.341C171.016 142.303 173.408 153.302 173.408 153.302Z" fill="#FFA8A7"/>
<path d="M185.414 181.674C180.772 179.125 176.79 175.526 173.786 171.164V169.215C173.786 169.215 168.383 170.277 166.527 172.06C164.671 173.842 164.68 174.526 164.68 174.526L167.34 174.276C167.34 174.276 169.187 173.815 172.392 176.724C176.511 180.464 183.04 183.521 185.414 181.674Z" fill="#37474F"/>
<path d="M185.737 169.705V172.577C186.206 173.658 186.469 174.817 186.513 175.994C186.417 177.928 186.053 179.84 185.432 181.674C185.432 181.674 186.504 181.674 187.926 180.067C190.318 177.407 189.699 172.946 189.487 171.561C189.274 170.176 187.751 169.012 185.728 168.504L185.737 169.705Z" fill="#37474F"/>
<path d="M169.944 144.685C169.76 143.707 170.304 142.755 170.184 141.776C170.064 140.797 169.436 140.345 169.159 139.523C168.97 138.932 168.919 138.306 169.01 137.693C169.102 137.079 169.333 136.495 169.686 135.986C170.048 135.481 170.514 135.06 171.052 134.751C171.591 134.442 172.189 134.252 172.807 134.194C173.132 134.146 173.462 134.164 173.78 134.246C174.097 134.329 174.394 134.474 174.654 134.674C174.61 133.874 174.867 133.087 175.375 132.467C176.012 131.658 176.927 131.114 177.942 130.943C178.476 130.873 179.017 130.902 179.54 131.026C179.688 131.026 180.925 131.414 180.898 131.58C181.029 130.894 181.364 130.263 181.858 129.769C182.352 129.276 182.982 128.941 183.668 128.809C184.354 128.704 185.055 128.778 185.703 129.026C186.351 129.274 186.923 129.686 187.363 130.223C187.918 129.806 188.572 129.542 189.26 129.456C189.949 129.37 190.648 129.465 191.288 129.733C191.933 129.978 192.511 130.37 192.978 130.878C193.209 131.13 193.414 131.406 193.587 131.7C193.754 131.977 193.772 132.328 193.929 132.578C194.945 132.226 196.038 132.162 197.088 132.393C197.992 132.634 198.8 133.149 199.402 133.866C200.003 134.583 200.369 135.468 200.45 136.401C200.591 137.455 200.323 138.522 199.701 139.384C199.279 139.915 198.718 140.318 198.081 140.551C197.444 140.784 196.755 140.837 196.09 140.705C195.938 141.426 195.591 142.092 195.087 142.63C194.584 143.168 193.943 143.559 193.234 143.76C192.525 143.96 191.774 143.963 191.063 143.768C190.352 143.573 189.708 143.188 189.201 142.654C188.916 143.202 188.501 143.672 187.991 144.021C187.037 144.584 185.906 144.769 184.823 144.538C183.773 144.361 182.804 143.861 182.052 143.106C181.998 143.743 181.741 144.346 181.318 144.827C180.896 145.307 180.331 145.639 179.706 145.775C178.447 146.009 177.151 145.965 175.911 145.646C176.493 146.4 176.767 147.348 176.677 148.297C176.625 148.769 176.414 149.209 176.078 149.545C175.742 149.881 175.302 150.092 174.83 150.144C175.084 151.134 175.084 152.173 174.83 153.164C174.757 153.566 174.552 153.934 174.248 154.207C173.094 155.085 171.727 152.194 171.034 151.575C170.609 151.178 170.637 150.273 170.609 149.728C170.582 149.183 170.609 148.648 170.609 148.112C170.687 147.771 170.74 147.426 170.766 147.077C170.545 146.246 170.101 145.498 169.944 144.685Z" fill="#263238"/>
<path d="M169.141 140.492L165.096 138.322C165.224 138.05 165.407 137.806 165.632 137.606C165.857 137.407 166.121 137.255 166.407 137.16C166.692 137.065 166.994 137.029 167.295 137.054C167.595 137.079 167.887 137.165 168.153 137.306C168.695 137.609 169.1 138.109 169.284 138.702C169.467 139.295 169.416 139.936 169.141 140.492Z" fill="#263238"/>
<path d="M185.737 167.322C185.737 167.322 179.743 166.112 177.647 165.004C176.414 164.359 175.403 163.358 174.747 162.131C175.06 163.358 175.619 164.508 176.391 165.512C177.924 167.47 185.737 168.92 185.737 168.92V167.322Z" fill="#F28F8F"/>
<path d="M185.414 151.806C185.403 152.041 185.324 152.267 185.185 152.457C185.047 152.647 184.856 152.793 184.636 152.875C184.416 152.957 184.176 152.973 183.947 152.921C183.718 152.869 183.509 152.75 183.347 152.58C183.184 152.41 183.075 152.197 183.033 151.965C182.991 151.734 183.018 151.495 183.11 151.279C183.203 151.063 183.356 150.879 183.552 150.749C183.748 150.62 183.978 150.55 184.213 150.55C184.375 150.554 184.534 150.589 184.681 150.654C184.829 150.719 184.962 150.813 185.074 150.929C185.185 151.046 185.273 151.183 185.331 151.334C185.389 151.484 185.418 151.645 185.414 151.806Z" fill="#263238"/>
<path d="M184.167 147.299L181.6 148.722C181.416 148.368 181.375 147.958 181.487 147.576C181.599 147.193 181.855 146.869 182.2 146.671C182.37 146.579 182.556 146.523 182.748 146.505C182.94 146.487 183.134 146.507 183.317 146.566C183.501 146.625 183.671 146.72 183.817 146.846C183.963 146.972 184.082 147.126 184.167 147.299Z" fill="#263238"/>
<path d="M185.192 160.1L187.963 161.134C187.905 161.317 187.81 161.487 187.685 161.634C187.56 161.78 187.407 161.9 187.234 161.986C187.062 162.072 186.874 162.123 186.682 162.135C186.49 162.147 186.298 162.121 186.116 162.058C185.734 161.92 185.423 161.636 185.249 161.269C185.076 160.902 185.056 160.482 185.192 160.1Z" fill="#F28F8F"/>
<path d="M195.813 148.269L193.467 146.422C193.576 146.263 193.717 146.129 193.88 146.026C194.043 145.924 194.225 145.856 194.416 145.826C194.606 145.797 194.8 145.807 194.986 145.855C195.173 145.904 195.347 145.989 195.499 146.108C195.824 146.355 196.038 146.72 196.097 147.124C196.156 147.528 196.054 147.939 195.813 148.269Z" fill="#263238"/>
<path d="M195.093 151.464C195.095 151.625 195.066 151.785 195.006 151.935C194.947 152.084 194.858 152.22 194.746 152.335C194.633 152.45 194.499 152.542 194.351 152.605C194.203 152.668 194.044 152.701 193.883 152.702C193.635 152.709 193.39 152.642 193.18 152.509C192.97 152.377 192.804 152.184 192.704 151.956C192.604 151.729 192.575 151.477 192.62 151.232C192.664 150.988 192.781 150.762 192.955 150.584C193.128 150.406 193.351 150.285 193.595 150.235C193.838 150.184 194.091 150.208 194.321 150.303C194.551 150.397 194.747 150.559 194.884 150.766C195.022 150.973 195.095 151.216 195.093 151.464Z" fill="#263238"/>
<path d="M188.97 150.319L189.357 157.551L193.135 156.258L188.97 150.319Z" fill="#F28F8F"/>
<path d="M212.511 207.331L211.588 206.536C211.452 206.449 211.298 206.394 211.138 206.376C210.978 206.358 210.815 206.379 210.664 206.435L200.653 209.178C200.149 209.347 199.688 209.622 199.301 209.986C198.914 210.349 198.609 210.792 198.408 211.284L191.205 232.054C191.113 232.223 191.077 232.416 191.1 232.606C191.123 232.796 191.205 232.975 191.334 233.116L192.258 233.938C192.393 234.026 192.546 234.082 192.706 234.101C192.867 234.121 193.029 234.103 193.181 234.049L203.248 231.343C203.75 231.175 204.211 230.901 204.598 230.539C204.985 230.178 205.29 229.737 205.492 229.247L212.696 208.476C212.871 207.913 212.779 207.525 212.511 207.331Z" fill="#455A64"/>
<path d="M192.128 232.83L199.332 212.059C199.534 211.569 199.839 211.128 200.226 210.767C200.613 210.405 201.074 210.131 201.576 209.963L211.588 207.192C212.511 206.943 213.01 207.469 212.696 208.383L205.492 229.154C205.29 229.644 204.985 230.085 204.598 230.447C204.211 230.808 203.75 231.083 203.248 231.251L193.237 233.975C192.313 234.271 191.814 233.744 192.128 232.83Z" fill="#37474F"/>
<path d="M200.486 210.535C199.972 210.93 199.573 211.457 199.332 212.059L192.128 232.83C192.046 232.996 192.011 233.182 192.029 233.366C192.047 233.551 192.117 233.727 192.23 233.874L191.306 233.107C191.176 232.966 191.092 232.789 191.067 232.598C191.042 232.408 191.078 232.215 191.168 232.045L198.371 211.265C198.593 210.7 198.959 210.203 199.434 209.824L200.486 210.535Z" fill="#263238"/>
<path d="M149.958 227.834L159.277 217.148C159.277 217.148 184.73 221.165 187.584 221.212C190.438 221.258 192.525 218.561 194.363 216.206C195.116 215.462 196.087 214.98 197.134 214.83L196.136 217.702C196.016 218.035 197.337 218.478 197.503 218.533C198.36 218.814 199.253 218.963 200.154 218.977C202.169 219.024 204.172 218.653 206.037 217.887C207.036 217.374 208.098 216.995 209.196 216.76C209.385 216.716 209.584 216.739 209.759 216.825C210.036 216.991 210.064 217.37 210.054 217.693C209.934 221.12 208.565 224.386 206.203 226.873C205.694 227.415 205.13 227.904 204.522 228.332C201.133 230.687 196.94 230.66 193.006 230.392C191.522 230.299 190.035 230.244 188.545 230.226C179.189 230.152 154.29 228.905 149.958 227.834Z" fill="#FFA8A7"/>
<path d="M180.879 220.408L187.584 221.212C186.273 222.8 185.303 228.028 186.476 230.198H178.219C177.361 226.411 177.702 223.031 180.879 220.408Z" fill="#455A64"/>
<path d="M160.718 215.301C158.695 214.959 166.998 216.668 172.022 217.637C176.511 218.506 180.473 219.032 180.879 220.408C180.879 220.408 178.219 226.162 179.032 229.967C179.032 229.967 178.515 230.678 174.193 230.891C169.87 231.103 151.732 229.875 149.312 228.489C146.892 227.104 146.015 225.349 146.643 221.47L160.718 215.301Z" fill="#37474F"/>
<path d="M146.624 221.461C146.671 220.732 148.73 201.789 151.242 188.527C152.951 179.587 157.652 175.597 164.634 174.526L167.1 174.138C171.45 176.909 168.097 190.55 163.738 198.003L161.152 217.638L149.681 227.335C146.283 226.652 146.56 222.496 146.624 221.461Z" fill="#37474F"/>
<path d="M241.105 143.3L237.918 141.453C237.834 141.412 237.764 141.348 237.715 141.268L235.711 136.447L238.315 134.942L238.232 135.173L241.105 143.3Z" fill="#00B386"/>
<g opacity="0.4">
<path d="M241.105 143.3L237.918 141.453C237.834 141.412 237.764 141.348 237.715 141.268L235.711 136.447L238.315 134.942L238.232 135.173L241.105 143.3Z" fill="white"/>
</g>
<path d="M237.918 135.182L240.948 143.143C240.99 143.219 241.054 143.281 241.131 143.322C241.208 143.362 241.296 143.38 241.382 143.372C241.469 143.364 241.552 143.331 241.621 143.278C241.689 143.224 241.741 143.152 241.77 143.069L244.965 131.109L237.918 135.182Z" fill="#00B386"/>
<path opacity="0.6" d="M237.918 135.182L240.948 143.143C240.99 143.219 241.054 143.281 241.131 143.322C241.208 143.362 241.296 143.38 241.382 143.372C241.469 143.364 241.552 143.331 241.621 143.278C241.689 143.224 241.741 143.152 241.77 143.069L244.965 131.109L237.918 135.182Z" fill="white"/>
<path d="M286.664 24.207C286.63 23.4676 286.42 22.7469 286.052 22.1046C285.685 21.4622 285.169 20.9166 284.549 20.5128L282.831 19.5153C282.174 19.1826 281.448 19.0093 280.711 19.0093C279.975 19.0093 279.249 19.1826 278.592 19.5153L225.127 50.4454C224.505 50.8487 223.989 51.394 223.619 52.0363C223.25 52.6786 223.039 53.3996 223.003 54.1396V134.536C223.039 135.276 223.25 135.997 223.619 136.639C223.989 137.281 224.505 137.827 225.127 138.23L226.845 139.227C227.502 139.56 228.228 139.733 228.964 139.733C229.701 139.733 230.427 139.56 231.084 139.227L284.466 108.371C285.128 107.949 285.678 107.373 286.07 106.693C286.463 106.013 286.685 105.249 286.719 104.464L286.664 24.207Z" fill="#00B386"/>
<path opacity="0.6" d="M231.158 139.08L284.42 108.334C285.076 107.904 285.623 107.326 286.014 106.646C286.406 105.965 286.631 105.202 286.673 104.418V24.3827C286.673 22.9419 285.666 22.3601 284.42 23.0805L231.158 53.8073C230.499 54.233 229.95 54.8091 229.556 55.4883C229.163 56.1674 228.936 56.9302 228.895 57.714V137.777C228.895 139.218 229.902 139.8 231.158 139.08Z" fill="white"/>
<path opacity="0.6" d="M237.022 128.265L278.583 104.298C279.08 103.973 279.494 103.535 279.791 103.02C280.088 102.505 280.259 101.927 280.291 101.334V34.8372C280.291 33.7474 279.525 33.3041 278.583 33.849L237.022 57.8616C236.525 58.187 236.111 58.6249 235.814 59.1399C235.517 59.655 235.346 60.2326 235.314 60.8262V127.323C235.286 128.366 236.08 128.828 237.022 128.265Z" fill="white"/>
<path opacity="0.4" d="M222.957 134.508C222.993 135.248 223.204 135.969 223.573 136.611C223.943 137.254 224.459 137.799 225.081 138.202L226.799 139.2C227.397 139.499 228.051 139.67 228.719 139.7C229.388 139.73 230.055 139.62 230.678 139.375C229.68 139.754 228.923 139.181 228.923 137.971V57.6215C228.943 56.8837 229.157 56.1641 229.542 55.5342L223.575 52.0894C223.197 52.7221 222.984 53.4399 222.957 54.1766V134.508Z" fill="white"/>
<path opacity="0.8" d="M286.664 24.0868C286.664 23.0617 285.685 22.3136 284.42 23.0709L231.038 53.8901C230.409 54.2758 229.893 54.8205 229.542 55.4694L223.585 52.0338C223.938 51.3867 224.454 50.8425 225.081 50.4545L278.592 19.5429C279.249 19.2152 279.973 19.0447 280.707 19.0447C281.441 19.0447 282.165 19.2152 282.822 19.5429L284.558 20.5404C285.154 20.9346 285.652 21.4583 286.017 22.0725C286.382 22.6866 286.603 23.3752 286.664 24.0868Z" fill="white"/>
<path d="M279.163 48.455C281.515 38.4917 275.344 28.5086 265.381 26.157C255.418 23.8054 245.435 29.976 243.083 39.9393C240.732 49.9026 246.902 59.8858 256.865 62.2374C266.829 64.5889 276.812 58.4184 279.163 48.455Z" fill="#263238"/>
<path d="M255.124 48.4044C255.124 48.4044 252.104 47.1576 252.141 45.2828C252.139 45.0419 252.191 44.8036 252.293 44.5853C252.394 44.3671 252.544 44.1743 252.73 44.0211C252.916 43.868 253.133 43.7583 253.367 43.7002C253.601 43.642 253.845 43.6368 254.081 43.685C254.903 44.8153 255.876 45.8282 256.971 46.6958C258.117 47.3793 256.048 48.8847 255.124 48.4044Z" fill="#00B386"/>
<path d="M245.27 71.4841C240.828 72.4077 237.577 73.6176 235.314 84.414V127.239C235.314 128.311 236.053 128.754 236.976 128.246L237.9 127.71L244.993 93.7327C245.288 93.6034 251.873 88.1913 253 80.8583C254.053 73.9685 245.27 71.4841 245.27 71.4841Z" fill="#FFBDA7"/>
<path d="M271.407 67.5313C274.122 67.3466 275.184 67.6421 277.299 69.7293C278.41 70.8209 279.401 72.0284 280.254 73.3312V88.727L271.831 88.1636L271.407 67.5313Z" fill="#00B386"/>
<path opacity="0.1" d="M271.407 67.5313C274.122 67.3466 275.184 67.6421 277.299 69.7293C278.41 70.8209 279.401 72.0284 280.254 73.3312V88.727L271.831 88.1636L271.407 67.5313Z" fill="black"/>
<path d="M277.299 101.685L278.223 93.7235C279.368 92.8554 280.07 91.5532 280.993 89.5029C281.777 87.1017 281.685 84.5007 280.735 82.1606C279.709 79.7593 279.155 78.5956 278.684 77.7182C276.839 73.9493 274.376 70.5155 271.397 67.5591L265.967 67.8823L254.339 69.2769L245.261 71.5119C251.809 80.7475 244.984 93.7513 244.984 93.7513L248.373 104.834C248.373 104.834 244.448 113.303 242.222 119.519C243.341 120.987 244.862 122.1 246.6 122.723L277.936 104.631C277.687 103.569 277.456 102.562 277.299 101.685Z" fill="#00B386"/>
<path opacity="0.05" d="M253.887 91.47C253.887 91.6732 255.217 94.7671 260.047 95.8015C264.877 96.8359 268.885 95.1642 271.037 92.5413C271.037 92.5413 269.19 99.154 260.148 97.3992C254.164 96.2448 253.887 91.47 253.887 91.47Z" fill="black"/>
<path opacity="0.05" d="M252.067 109.036C254.498 109.416 256.97 109.45 259.41 109.138C260.01 109.064 260.712 108.898 260.97 108.343C261.358 107.503 260.425 106.681 259.64 106.191C257.188 104.642 254.934 102.799 252.926 100.706C251.648 99.4944 250.643 98.0238 249.98 96.3925C249.056 93.8158 249.648 90.9989 249.841 88.2744C249.997 86.1386 249.917 83.9922 249.601 81.8741C249.381 79.8797 248.66 77.9733 247.505 76.3328C249.74 84.7002 244.993 93.7603 244.993 93.7603L248.382 104.843C248.382 104.843 247.911 105.841 247.219 107.411C248.71 108.27 250.359 108.822 252.067 109.036Z" fill="black"/>
<path d="M277.299 101.685C276.856 102.276 274.103 105.739 266.032 106.69C257.96 107.642 248.382 104.843 248.382 104.843C248.382 104.843 243.691 112.897 241.77 120.017C240.994 122.88 240.2 126.436 240.2 126.436L277.945 104.64L277.299 101.685Z" fill="#37474F"/>
<path d="M245.27 71.4842C243.668 71.4404 242.091 71.8814 240.744 72.7494C238.436 74.1994 237.05 75.9819 235.314 82.6038V104.141C235.314 104.141 237.651 106.598 242.943 105.85C242.795 105.6 245.713 93.1786 245.713 93.1786C247.901 89.0701 248.848 84.4143 248.438 79.7777C247.856 73.7746 245.27 71.4842 245.27 71.4842Z" fill="#00B386"/>
<path opacity="0.1" d="M245.27 71.4842C243.668 71.4404 242.091 71.8814 240.744 72.7494C238.436 74.1994 237.05 75.9819 235.314 82.6038V104.141C235.314 104.141 237.651 106.598 242.943 105.85C242.795 105.6 245.713 93.1786 245.713 93.1786C247.901 89.0701 248.848 84.4143 248.438 79.7777C247.856 73.7746 245.27 71.4842 245.27 71.4842Z" fill="black"/>
<path d="M274.639 37.2476C275.83 38.439 277.456 41.5698 277.29 52.0245C277.142 60.863 274.297 63.1073 272.857 63.7076C271.416 64.3079 268.645 63.9846 265.948 63.5598V67.8728C265.948 67.8728 269.643 72.0196 269.384 74.4578C269.125 76.896 265.422 78.6785 258.477 73.5343C255.087 71.0129 254.256 69.683 254.256 69.683L254.118 57.1688C254.118 57.1688 252.538 58.7203 249.832 56.3837C247.597 54.4627 246.821 51.1841 248.539 49.4201C248.985 48.9984 249.525 48.6888 250.114 48.5168C250.703 48.3447 251.324 48.3153 251.927 48.4307C252.529 48.5462 253.096 48.8033 253.58 49.1809C254.063 49.5585 254.45 50.0457 254.709 50.6022C254.709 50.6022 259.022 50.7223 264.729 47.536C270.437 44.3497 274.279 40.6832 274.639 37.2476Z" fill="#FFBDA7"/>
<path d="M254.348 69.2491L248.475 70.6898C248.475 70.6898 254.986 79.0019 263.88 79.7777C272.773 80.5535 275.202 75.6401 268.617 67.6975L265.976 67.8545L254.348 69.2491Z" fill="#FFBDA7"/>
<path d="M242.601 44.2021C242.601 48.626 241.908 57.8893 249.361 62.7288C256.094 67.1064 259.382 63.403 259.382 63.403C258.795 63.5861 258.175 63.6389 257.566 63.5575C256.956 63.4762 256.372 63.2627 255.854 62.9319C254.173 61.7313 254.145 59.7272 254.145 57.1135C253.69 57.5339 253.145 57.8453 252.551 58.0242C251.957 58.203 251.331 58.2446 250.719 58.1459C250.107 58.0471 249.525 57.8106 249.018 57.4542C248.511 57.0978 248.091 56.6307 247.791 56.0884C247.733 55.996 247.681 55.9004 247.634 55.8021C245.501 51.7661 242.601 44.2021 242.601 44.2021Z" fill="#263238"/>
<path d="M267.066 49.494C267.069 49.7111 267.008 49.9244 266.892 50.1074C266.775 50.2903 266.607 50.4349 266.408 50.5232C266.21 50.6114 265.99 50.6394 265.776 50.6038C265.561 50.5681 265.362 50.4703 265.203 50.3225C265.044 50.1747 264.932 49.9834 264.881 49.7724C264.83 49.5614 264.841 49.34 264.915 49.1356C264.988 48.9313 265.12 48.753 265.294 48.623C265.468 48.493 265.676 48.4169 265.893 48.4042C266.192 48.3966 266.482 48.5064 266.701 48.7101C266.921 48.9137 267.051 49.1951 267.066 49.494Z" fill="#263238"/>
<path d="M267.223 57.1042L270.178 58.0278C270.127 58.2262 270.037 58.4123 269.912 58.5747C269.787 58.7371 269.63 58.8724 269.452 58.9726C269.273 59.0727 269.076 59.1356 268.872 59.1573C268.668 59.1791 268.462 59.1593 268.266 59.0991C267.866 58.9696 267.532 58.6881 267.337 58.315C267.142 57.9419 267.101 57.5072 267.223 57.1042Z" fill="#F0997A"/>
<path d="M276.486 46.3727L274.224 44.8303C274.317 44.6814 274.44 44.5527 274.584 44.4518C274.728 44.3509 274.891 44.2799 275.063 44.2429C275.236 44.2059 275.413 44.2037 275.586 44.2363C275.759 44.269 275.924 44.3359 276.071 44.4332C276.375 44.6417 276.588 44.9591 276.665 45.32C276.743 45.6809 276.679 46.0577 276.486 46.3727Z" fill="#263238"/>
<path d="M275.988 48.9862C276 49.1345 275.983 49.2838 275.937 49.4254C275.891 49.567 275.817 49.6979 275.72 49.8106C275.623 49.9233 275.504 50.0155 275.371 50.0817C275.238 50.1479 275.092 50.1867 274.944 50.196C274.644 50.206 274.353 50.0971 274.133 49.8929C273.913 49.6887 273.783 49.406 273.771 49.1062C273.758 48.9579 273.776 48.8086 273.821 48.667C273.867 48.5255 273.941 48.3945 274.038 48.2818C274.135 48.1691 274.254 48.0769 274.388 48.0108C274.521 47.9446 274.666 47.9057 274.815 47.8964C275.114 47.8864 275.406 47.9954 275.626 48.1995C275.845 48.4037 275.975 48.6865 275.988 48.9862Z" fill="#263238"/>
<path d="M270.612 47.8318L270.603 55.0817L274.122 53.9642L270.612 47.8318Z" fill="#F0997A"/>
<path d="M265.948 63.5416C263.095 63.1906 257.23 61.5467 256.306 59.2378C256.677 60.4063 257.4 61.432 258.375 62.1747C260.139 63.6616 265.958 65.3148 265.958 65.3148L265.948 63.5416Z" fill="#F0997A"/>
<path d="M254.755 54.1859C255.322 54.1494 255.853 53.8985 256.242 53.4843C256.63 53.07 256.846 52.5234 256.846 51.9555C256.846 51.3876 256.63 50.841 256.242 50.4267C255.853 50.0124 255.322 49.7616 254.755 49.7251V54.1859Z" fill="#263238"/>
<path d="M175.329 79.3714L171.856 72.8419L174.627 64.7792V59.8381L166.075 64.7792V69.7202L169.769 76.0928C169.828 76.1898 169.915 76.267 170.018 76.3144L175.329 79.3714Z" fill="#263238"/>
<path d="M189.708 33.6274C189.661 32.7393 189.404 31.875 188.96 31.1047C188.515 30.3344 187.895 29.6799 187.15 29.1943L185.063 27.9845C184.268 27.5834 183.39 27.3745 182.5 27.3745C181.61 27.3745 180.732 27.5834 179.937 27.9845L157.707 40.8312C156.96 41.3177 156.338 41.9735 155.892 42.7454C155.446 43.5172 155.188 44.3834 155.14 45.2735V70.967C155.188 71.8571 155.446 72.7233 155.892 73.4951C156.338 74.267 156.96 74.9228 157.707 75.4093L159.794 76.6192C160.589 77.0202 161.467 77.2291 162.357 77.2291C163.248 77.2291 164.125 77.0202 164.92 76.6192L171.487 72.8233L175.181 79.1774C175.234 79.2677 175.312 79.341 175.406 79.3887C175.499 79.4364 175.604 79.4566 175.709 79.4469C175.813 79.4373 175.913 79.3981 175.996 79.3341C176.079 79.27 176.142 79.1837 176.178 79.0851L180.002 67.8731L187.15 63.754C187.895 63.2659 188.515 62.6095 188.959 61.8378C189.403 61.0662 189.66 60.2008 189.708 59.3116V33.6274Z" fill="#37474F"/>
<path d="M155.121 70.9669C155.17 71.8571 155.428 72.7232 155.874 73.4951C156.32 74.2669 156.942 74.9227 157.689 75.4092L159.776 76.6191C160.499 76.9832 161.291 77.1897 162.1 77.2247C162.909 77.2597 163.716 77.1226 164.468 76.8223C163.258 77.2748 162.334 76.6006 162.334 75.1322V49.4018C162.363 48.5069 162.624 47.635 163.092 46.8712L155.86 42.7429C155.393 43.5067 155.132 44.3786 155.103 45.2735L155.121 70.9669Z" fill="#263238"/>
<path d="M189.625 32.8977C189.33 31.8171 188.332 31.4662 187.15 32.1496L164.902 44.9963C164.128 45.459 163.49 46.1187 163.055 46.9081L155.86 42.7521C156.301 41.9668 156.938 41.3084 157.707 40.8403L179.946 27.9843C180.743 27.5832 181.622 27.3743 182.514 27.3743C183.406 27.3743 184.285 27.5832 185.081 27.9843L187.169 29.1942C187.808 29.6127 188.355 30.1568 188.778 30.7935C189.2 31.4301 189.488 32.1461 189.625 32.8977Z" fill="#455A64"/>
<path d="M251.07 210.942L247.597 204.412L250.368 196.349V191.417L241.825 196.349V201.29L245.519 207.654C245.573 207.755 245.662 207.834 245.769 207.875L251.07 210.942Z" fill="#263238"/>
<path d="M265.45 165.207C265.403 164.317 265.147 163.452 264.702 162.68C264.258 161.908 263.637 161.252 262.891 160.765L260.804 159.555C260.009 159.154 259.132 158.945 258.241 158.945C257.351 158.945 256.473 159.154 255.678 159.555L233.439 172.402C232.692 172.887 232.069 173.543 231.623 174.315C231.177 175.087 230.919 175.954 230.872 176.844V202.547C230.919 203.437 231.177 204.303 231.623 205.075C232.069 205.847 232.692 206.503 233.439 206.989L235.526 208.189C236.32 208.595 237.198 208.806 238.089 208.806C238.98 208.806 239.859 208.595 240.652 208.189L247.219 204.394L250.913 210.748C250.965 210.839 251.042 210.913 251.135 210.961C251.228 211.009 251.332 211.03 251.437 211.02C251.541 211.01 251.64 210.971 251.723 210.906C251.805 210.841 251.867 210.754 251.901 210.655L255.78 199.462L262.928 195.343C263.674 194.856 264.295 194.2 264.739 193.428C265.184 192.656 265.44 191.79 265.487 190.9L265.45 165.207Z" fill="#37474F"/>
<path d="M230.862 202.547C230.91 203.437 231.168 204.303 231.614 205.075C232.06 205.847 232.682 206.503 233.43 206.989L235.517 208.189C236.239 208.553 237.029 208.76 237.836 208.795C238.644 208.83 239.449 208.693 240.2 208.393C238.999 208.854 238.075 208.171 238.075 206.712V181.009C238.105 180.117 238.366 179.248 238.833 178.488L231.592 174.323C231.133 175.086 230.875 175.954 230.844 176.844L230.862 202.547Z" fill="#263238"/>
<path d="M265.367 164.477C265.071 163.388 264.074 163.037 262.891 163.72L240.643 176.576C239.867 177.036 239.229 177.696 238.796 178.488L231.592 174.323C232.031 173.535 232.667 172.876 233.439 172.411L255.678 159.564C256.473 159.163 257.351 158.954 258.241 158.954C259.132 158.954 260.009 159.163 260.804 159.564L262.901 160.765C263.541 161.185 264.09 161.731 264.514 162.369C264.938 163.007 265.228 163.724 265.367 164.477Z" fill="#455A64"/>
<path d="M110.532 222.671L107.059 216.141L109.83 208.079V203.137L101.278 208.079V213.01L104.972 219.383C105.034 219.478 105.12 219.554 105.221 219.605L110.532 222.671Z" fill="#263238"/>
<path d="M124.921 176.927C124.871 176.037 124.612 175.171 124.166 174.4C123.72 173.628 123.099 172.972 122.353 172.485L120.266 171.284C119.473 170.879 118.594 170.667 117.703 170.667C116.812 170.667 115.934 170.879 115.14 171.284L92.8917 184.131C92.1466 184.616 91.5266 185.271 91.082 186.041C90.6375 186.811 90.381 187.676 90.3334 188.564V214.266C90.3818 215.156 90.6385 216.021 91.0829 216.793C91.5273 217.564 92.1469 218.221 92.8917 218.709L94.9789 219.909C95.7724 220.315 96.6508 220.526 97.5418 220.526C98.4329 220.526 99.3112 220.315 100.105 219.909L106.671 216.123L110.365 222.477C110.417 222.568 110.494 222.642 110.587 222.69C110.68 222.738 110.785 222.759 110.889 222.749C110.994 222.739 111.093 222.7 111.175 222.635C111.257 222.571 111.319 222.483 111.354 222.385L115.233 211.191L122.372 207.072C123.118 206.584 123.739 205.928 124.185 205.157C124.631 204.385 124.889 203.519 124.939 202.63L124.921 176.927Z" fill="#37474F"/>
<path d="M90.3334 214.266C90.3818 215.156 90.6385 216.021 91.0829 216.793C91.5273 217.564 92.1469 218.221 92.8917 218.709L94.9789 219.909C95.7021 220.273 96.4937 220.479 97.3021 220.516C98.1106 220.553 98.9176 220.418 99.6706 220.122C98.4608 220.574 97.5464 219.891 97.5464 218.432V192.729C97.5781 191.839 97.8355 190.971 98.2945 190.208L91.0815 186.089C90.6225 186.852 90.3651 187.72 90.3334 188.61V214.266Z" fill="#263238"/>
<path d="M124.838 176.197C124.533 175.107 123.545 174.766 122.363 175.449L100.105 188.296C99.3472 188.764 98.7261 189.423 98.3038 190.208L91.0908 186.088C91.5159 185.306 92.1363 184.648 92.8917 184.177L115.131 171.312C115.927 170.91 116.807 170.701 117.699 170.701C118.59 170.701 119.47 170.91 120.266 171.312L122.363 172.521C123 172.938 123.547 173.477 123.972 174.109C124.397 174.74 124.691 175.45 124.838 176.197Z" fill="#455A64"/>
<path d="M358.84 75.9542L355.349 69.4246L358.12 61.3619V56.4209L349.614 61.4081V66.3399L353.308 72.7125C353.367 72.8095 353.454 72.8867 353.557 72.9342L358.84 75.9542Z" fill="#263238"/>
<path d="M386.805 31.5124C386.76 30.6176 386.505 29.7459 386.06 28.9679C385.616 28.1898 384.995 27.5271 384.247 27.0332L382.132 25.8141C381.341 25.4013 380.462 25.1858 379.569 25.1858C378.677 25.1858 377.798 25.4013 377.007 25.8141L341.163 46.6865C340.416 47.1835 339.796 47.8482 339.352 48.6275C338.908 49.4068 338.652 50.2792 338.605 51.175V67.4389C338.65 68.3351 338.906 69.208 339.35 69.9876C339.794 70.7671 340.415 71.4315 341.163 71.9274L343.241 73.1465C344.033 73.5518 344.91 73.7632 345.799 73.7632C346.689 73.7632 347.566 73.5518 348.358 73.1465L354.915 69.3138L358.609 75.7325C358.661 75.8234 358.738 75.8975 358.831 75.9457C358.924 75.994 359.029 76.0145 359.133 76.0048C359.237 75.995 359.337 75.9555 359.419 75.8908C359.501 75.8261 359.563 75.7391 359.597 75.6402L363.467 64.3358L384.238 52.2648C384.986 51.7709 385.607 51.1082 386.051 50.3301C386.495 49.5521 386.751 48.6804 386.796 47.7856L386.805 31.5124Z" fill="#37474F"/>
<path d="M338.642 67.0511C338.689 67.9392 338.946 68.8035 339.39 69.5738C339.835 70.3441 340.455 70.9987 341.2 71.4842L343.287 72.6941C344.01 73.0582 344.802 73.2646 345.611 73.2997C346.42 73.3347 347.227 73.1975 347.979 72.8973C346.769 73.3591 345.855 72.6756 345.855 71.2072V55.0818C345.885 54.1884 346.142 53.3174 346.603 52.5512L339.39 48.386C338.929 49.1521 338.672 50.0231 338.642 50.9165V67.0511Z" fill="#263238"/>
<path d="M386.75 30.5427C386.445 29.4437 385.457 29.0927 384.275 29.7762L348.422 50.6579C347.648 51.1277 347.01 51.7935 346.575 52.5881L339.381 48.3859C339.802 47.5966 340.423 46.9311 341.182 46.4557L377.034 25.574C377.828 25.1686 378.706 24.9573 379.597 24.9573C380.488 24.9573 381.366 25.1686 382.16 25.574L384.247 26.7931C384.896 27.2166 385.452 27.7672 385.882 28.4117C386.313 29.0561 386.608 29.7811 386.75 30.5427Z" fill="#455A64"/>
<path d="M364.88 138.673C371.484 138.673 374.799 140.862 377.561 146.893C380.202 152.665 388.643 169.169 388.2 173.223C387.757 177.278 370.92 194.521 370.92 194.521L366.109 188.776L376.591 171.543L366.349 157.024L364.88 138.673Z" fill="#FFA8A7"/>
<path d="M365.444 138.682C365.444 138.682 371.908 138.018 374.947 141.841C377.986 145.665 380.932 153.459 380.932 153.459C380.932 153.459 377.921 162.122 369.923 163.194C361.925 164.265 365.444 138.682 365.444 138.682Z" fill="#455A64"/>
<path d="M348.746 316.311C348.746 316.311 349.494 318.546 349.9 320.494C350.223 322.046 350.676 324.641 350.131 325.805C349.586 326.968 347.416 327.726 344.072 327.698C341.911 327.698 338.531 329.13 336.222 330.395C333.913 331.66 328.834 332.242 326.349 331.937C323.375 331.595 320.3 329.896 319.82 328.686C319.339 327.476 318.896 325.814 326.987 323.283C327.051 323.283 336.73 320.162 340.12 316.486L348.746 316.311Z" fill="#263238"/>
<path d="M348.746 313.54L340.12 313.716V314.353C340.125 315.097 339.951 315.832 339.612 316.494C339.273 317.157 338.778 317.728 338.171 318.158C333.978 321.067 327.088 323.293 326.986 323.311L325.694 323.736C324.299 324.844 325.481 326.728 328.806 327.024C332.131 327.32 342.484 323.893 344.774 322.803C345.975 322.266 346.992 321.388 347.698 320.278C348.404 319.168 348.768 317.875 348.746 316.56C348.736 315.443 348.746 313.54 348.746 313.54Z" fill="#FFA8A7"/>
<path d="M371.484 303.797C372.093 304.046 372.213 305.2 372.241 307.491C372.241 309.227 372.564 312.266 370.477 312.81C368.39 313.355 365.379 312.977 364.104 311.305C362.507 309.227 361.435 307.398 359.145 304.84C357.159 302.624 354.998 300.555 354.259 297.498C353.585 294.727 354.259 293.573 356.162 292.834C358.064 292.095 359.856 292.695 362.479 294.875C363.217 295.369 364.007 295.781 364.834 296.103C366.589 296.648 370.874 303.556 371.484 303.797Z" fill="#263238"/>
<path d="M371.539 301.672L371.465 304.489C371.465 304.489 369.544 308.183 364.224 304.489C364.104 304.212 363.633 298.772 363.633 298.772L371.539 301.672Z" fill="#FFA8A7"/>
<path d="M364.834 296.112C364.005 295.794 363.215 295.382 362.479 294.884C360.327 294.21 355.811 294.995 357.861 298.052C359.559 300.592 361.725 302.786 364.243 304.517C366.653 305.681 367.494 304.24 367.494 304.24L366.644 297.646C366.168 297.001 365.548 296.476 364.834 296.112Z" fill="#FFA8A7"/>
<path d="M376.591 263.298C376.591 254.016 374.513 249.925 374.513 249.925C374.513 249.925 375.538 237.152 376.591 225.201C379.103 196.783 376.711 195.435 372.684 185.71C372.684 185.71 338.152 181.092 335.927 195.869C331.059 228.342 332.666 250.646 332.99 257.24C333.313 263.834 334.098 267.704 336.093 281.502C337.598 292.003 340.166 314.316 340.166 314.316C344.95 317.031 348.478 320.891 348.792 313.992C349.106 307.093 353.714 285.288 353.613 277.697C353.525 272.07 352.693 266.48 351.138 261.072C351.138 261.072 354.241 230.807 355.035 225.977C355.035 225.977 355.912 235.628 356.236 242.213C356.559 248.798 358.369 255.143 359.93 267.399C361.315 278.029 363.624 300.241 363.624 300.241C368.408 302.947 371.114 307.685 371.548 301.654C371.982 295.623 376.591 272.368 376.591 263.298Z" fill="#FFA8A7"/>
<path opacity="0.1" d="M354.989 225.996L356.975 213.518C360.962 213.048 364.803 211.732 368.242 209.658C368.242 209.658 365.767 213.352 359.2 214.867L357.196 229.33L356.383 244.476L354.989 225.996Z" fill="black"/>
<path d="M349.429 132.624L350.768 146.569L363.227 145.794L362.23 130.333L349.429 132.624Z" fill="#FFA8A7"/>
<path d="M374.421 144.584C373.155 140.89 370.579 138.729 364.88 138.673L362.774 138.738C362.377 140.788 356.236 142.432 350.177 140.354C349.318 140.566 346.972 140.991 345.652 141.167L342.752 141.582C338.337 143.005 336.388 150.541 335.963 162.482C335.816 166.546 336.277 171.053 337.127 179.448C336.656 191.639 335.88 201.891 335.88 201.891C335.88 201.891 343.213 204.985 358.194 203.045C371.604 201.318 375.741 194.512 375.27 195.5C374.079 190.296 372.435 185.206 370.357 180.289L369.433 175.375C376.499 158.326 376.305 150.07 374.421 144.584Z" fill="#00B386"/>
<path d="M369.433 175.375C369.433 175.375 368.602 181.138 357.87 182.219C342.17 183.807 337.127 179.448 337.127 179.448L336.933 184.066C335.178 193.671 330.404 217.416 330.699 227.566C330.699 227.566 334.043 228.84 336.832 223.049C336.832 223.049 336.453 227.566 343.103 230.032C348.598 232.063 354.453 229.302 356.171 228.914L356.328 227.649C356.328 227.649 369.064 230.881 377.173 223.714C377.173 223.714 380.008 207.765 377.173 196.395C375.372 189.173 372.029 183.54 370.348 180.307L369.433 175.375Z" fill="#455A64"/>
<path d="M369.396 227.649C365.702 228.046 361.223 226.725 361.02 225.22C360.817 223.715 363.559 211.921 363.559 211.921C367.567 210.885 371.098 208.505 373.562 205.179C367.558 209.446 359.413 208.818 359.413 208.818L356.328 227.649C360.632 228.598 365.092 228.598 369.396 227.649Z" fill="#37474F"/>
<path d="M369.433 175.375C369.433 175.375 368.159 179.356 361.02 181.138C347.028 184.629 337.127 179.448 337.127 179.448C336.918 181.059 336.835 182.683 336.878 184.306C336.878 184.306 348.044 189.709 358.988 187.077C369.932 184.445 370.477 180.695 370.477 180.695C370.477 180.695 369.914 177.176 369.433 175.375Z" fill="#37474F"/>
<path d="M345.652 141.167C339.805 141.887 335.391 143.254 332.62 148.555C327.504 158.382 322.664 167.1 319.256 170.721C315.617 174.553 301.459 179.374 298.098 178.839C294.736 178.303 291.577 174.784 289.85 175.773C288.123 176.761 292.113 179.282 291.91 180.113C291.706 180.944 285.445 180.039 282.545 178.045C279.645 176.05 277.982 181.739 281.704 186.079C285.426 190.42 292.298 191.519 299.908 190.023C307.518 188.527 321.741 185.064 327.254 179.993C332.706 175.109 337.417 169.456 341.237 163.212C350.777 151.483 345.652 141.167 345.652 141.167Z" fill="#FFA8A7"/>
<path d="M346.557 141.037C346.557 141.037 339.353 140.502 335.88 143.984C332.408 147.465 329.268 153.764 329.268 153.764C329.268 153.764 331.336 160.423 341.274 163.24C343.775 161.428 345.637 158.871 346.594 155.934C348.367 150.744 347.831 143.014 346.557 141.037Z" fill="#455A64"/>
<path d="M333.479 105.822C333.373 105.168 333.373 104.5 333.479 103.846C333.632 102.997 333.969 102.191 334.465 101.485C334.961 100.78 335.606 100.191 336.353 99.7598C337.101 99.3289 337.933 99.0663 338.793 98.9904C339.652 98.9144 340.518 99.027 341.329 99.3202C341.09 98.0401 341.285 96.7165 341.884 95.5601C342.483 94.4036 343.452 93.4808 344.636 92.9384C345.558 92.5909 346.541 92.4315 347.526 92.4696C348.511 92.5076 349.478 92.7424 350.371 93.1601C351.442 93.5356 352.332 94.3006 352.865 95.3027C353.498 94.2483 354.426 93.4025 355.534 92.8701C356.643 92.3376 357.883 92.1418 359.102 92.3069C360.32 92.4721 361.464 92.9908 362.391 93.799C363.318 94.6073 363.987 95.6695 364.317 96.8543C366.21 96.4295 368.888 97.2699 369.738 99.154C370.662 101.297 369.526 103.947 369.969 106.201C370.255 107.651 370.893 109.018 371.142 110.486C371.419 112.132 371.576 113.796 371.613 115.464C371.881 122.345 355.912 126.815 356.217 131.534L347.702 121.172C347.702 120.747 346.501 119.666 346.234 119.325C345.716 118.641 345.264 117.911 344.802 117.191C343.287 114.891 341.348 113.682 338.928 112.499C337.261 111.73 335.817 110.548 334.735 109.064C334.068 108.097 333.638 106.986 333.479 105.822Z" fill="#263238"/>
<path d="M340.193 117.33C340.193 117.33 337.423 121.43 337.792 121.864C338.438 122.293 339.154 122.606 339.907 122.788L340.193 117.33Z" fill="#F28F8F"/>
<path d="M348.625 104.344C345.938 105.702 341.302 108.223 340.11 117.93C338.891 127.895 341.145 131.358 342.53 132.707C343.454 133.63 348.274 133.907 350.787 133.141C353.936 132.217 360.743 128.874 363.938 123.73C367.688 117.68 368.464 109.609 364.132 106.45C358.027 101.961 350.888 103.19 348.625 104.344Z" fill="#FFA8A7"/>
<path d="M347.443 104.049C346.309 104.466 345.254 105.072 344.322 105.84C343.857 106.23 343.482 106.715 343.223 107.263C343.013 107.771 342.933 108.323 342.992 108.87C343.071 109.616 343.345 110.329 343.786 110.937C344.227 111.544 344.819 112.026 345.504 112.333C345.143 112.827 344.895 113.394 344.779 113.994C344.662 114.594 344.68 115.213 344.83 115.806C345.32 117.182 346.168 118.403 347.286 119.343C347.339 119.41 347.409 119.461 347.49 119.491C347.568 119.501 347.648 119.494 347.725 119.472C347.801 119.45 347.872 119.412 347.933 119.361C349.614 118.235 350.657 116.286 353.031 117.071C356.162 118.096 355.875 122.187 353.419 124.284C352.783 124.884 351.993 125.295 351.137 125.473C350.281 125.65 349.392 125.587 348.57 125.291C348.57 125.291 348.653 130.324 353.031 132.31C353.031 132.31 357.889 133.87 362.368 132.43C364.012 130.333 366.783 127.655 369.055 125.263C376.554 117.385 376.988 105.933 365.924 102.312C365.545 102.192 365.157 102.072 364.769 101.971C359.406 100.589 353.728 101.125 348.718 103.485C348.293 103.689 347.868 103.892 347.443 104.049Z" fill="#263238"/>
<path d="M347.092 122.853C346.803 122.753 346.536 122.597 346.308 122.394C346.079 122.19 345.893 121.944 345.761 121.668C345.629 121.392 345.553 121.093 345.537 120.787C345.521 120.482 345.567 120.176 345.67 119.888C345.89 119.306 346.33 118.834 346.895 118.573C347.46 118.312 348.104 118.284 348.69 118.493L347.092 122.853Z" fill="#263238"/>
</svg>
